<svg width="61" height="58" viewBox="0 0 61 58" fill="none" xmlns="http://www.w3.org/2000/svg">
<rect x="19" y="23" width="42" height="32" rx="6" fill="url(#paint0_linear_199_15496)" fill-opacity="0.4"/>
<path d="M44.3327 27.0833C44.3327 18.615 37.4678 11.75 28.9993 11.75C20.531 11.75 13.666 18.615 13.666 27.0833" stroke="#4F4F4F" stroke-width="2" stroke-linecap="round" stroke-linejoin="round"/>
<path d="M9.83398 35.5899V31.9927C9.83398 30.2335 11.0311 28.7004 12.7376 28.2738L16.0717 27.4402C16.7976 27.2587 17.5007 27.8076 17.5007 28.5559V39.0266C17.5007 39.7749 16.7976 40.3238 16.0717 40.1423L12.7376 39.3088C11.0311 38.8821 9.83398 37.349 9.83398 35.5899Z" stroke="#4F4F4F" stroke-width="2"/>
<path d="M48.1667 35.5899V31.9927C48.1667 30.2335 46.9695 28.7004 45.2631 28.2738L41.9289 27.4402C41.203 27.2587 40.5 27.8076 40.5 28.5559V39.0266C40.5 39.7749 41.203 40.3238 41.9289 40.1423L45.2631 39.3088C46.9695 38.8821 48.1667 37.349 48.1667 35.5899Z" stroke="#4F4F4F" stroke-width="2"/>
<path d="M44.3327 40.5V41.4583C44.3327 43.5755 42.6165 45.2917 40.4993 45.2917H33.791" stroke="#4F4F4F" stroke-width="2"/>
<path d="M31.875 48.167H26.125C24.5372 48.167 23.25 46.8798 23.25 45.292C23.25 43.7042 24.5372 42.417 26.125 42.417H31.875C33.4628 42.417 34.75 43.7042 34.75 45.292C34.75 46.8798 33.4628 48.167 31.875 48.167Z" stroke="#4F4F4F" stroke-width="2"/>
<defs>
<linearGradient id="paint0_linear_199_15496" x1="22.0732" y1="18.7895" x2="59.9318" y2="60.7494" gradientUnits="userSpaceOnUse">
<stop stop-color="white"/>
<stop offset="1" stop-color="#2F80ED"/>
</linearGradient>
</defs>
</svg>
