<svg width="61" height="58" viewBox="0 0 61 58" fill="none" xmlns="http://www.w3.org/2000/svg">
<rect x="19" y="23" width="42" height="32" rx="6" fill="url(#paint0_linear_199_15487)" fill-opacity="0.4"/>
<path d="M19.416 40.5V38.5833C19.416 33.2906 23.7066 29 28.9993 29C34.292 29 38.5827 33.2906 38.5827 38.5833V40.5" stroke="#4F4F4F" stroke-width="2" stroke-linecap="round"/>
<path d="M29 29C32.1757 29 34.75 26.4257 34.75 23.25C34.75 20.0744 32.1757 17.5 29 17.5C25.8243 17.5 23.25 20.0744 23.25 23.25C23.25 26.4257 25.8243 29 29 29Z" stroke="#4F4F4F" stroke-width="2" stroke-linecap="round" stroke-linejoin="round"/>
<path d="M29.0007 48.1663C39.5861 48.1663 48.1673 39.5851 48.1673 28.9997C48.1673 18.4142 39.5861 9.83301 29.0007 9.83301C18.4152 9.83301 9.83398 18.4142 9.83398 28.9997C9.83398 39.5851 18.4152 48.1663 29.0007 48.1663Z" stroke="#4F4F4F" stroke-width="2"/>
<defs>
<linearGradient id="paint0_linear_199_15487" x1="22.0732" y1="18.7895" x2="48.8573" y2="60.2591" gradientUnits="userSpaceOnUse">
<stop stop-color="white"/>
<stop offset="1" stop-color="#2F80ED"/>
</linearGradient>
</defs>
</svg>
