<svg width="61" height="58" viewBox="0 0 61 58" fill="none" xmlns="http://www.w3.org/2000/svg">
<rect x="18" y="22" width="43" height="33" rx="6" fill="url(#paint0_linear_202_20576)" fill-opacity="0.4"/>
<path d="M23.6772 20.8237C25.2 19.9346 27.0312 19.416 29.0013 19.416C33.3703 19.416 37.0565 21.9664 38.2101 25.4535M19.418 36.666V27.7756C19.418 26.7986 19.6101 25.8606 19.9633 24.9891L19.418 36.666ZM38.5846 31.8744V30.5622V31.8744Z" stroke="#4F4F4F" stroke-width="2" stroke-linecap="round" stroke-linejoin="round"/>
<path d="M32.8346 38.5827V28.7174C32.8346 26.7561 31.1185 25.166 29.0013 25.166C26.8842 25.166 25.168 26.7561 25.168 28.7174V30.2396M25.168 38.5827V34.4111V38.5827Z" stroke="#4F4F4F" stroke-width="2" stroke-linecap="round" stroke-linejoin="round"/>
<path d="M32.834 47.783C31.5954 48.0343 30.3134 48.1663 29.0007 48.1663C18.4152 48.1663 9.83398 39.585 9.83398 28.9997C9.83398 18.4142 18.4152 9.83301 29.0007 9.83301C39.586 9.83301 48.1673 18.4142 48.1673 28.9997C48.1673 29.4865 48.1491 29.9689 48.1135 30.4466" stroke="#4F4F4F" stroke-width="2" stroke-linecap="round" stroke-linejoin="round"/>
<path d="M46.5702 41.4583H40.1811M46.5702 41.4583H47.0173C47.6525 41.4583 48.1673 41.9732 48.1673 42.6083V47.0167C48.1673 47.6519 47.6525 48.1667 47.0173 48.1667H39.734C39.0988 48.1667 38.584 47.6519 38.584 47.0167V42.6083C38.584 41.9732 39.0988 41.4583 39.734 41.4583H40.1811H46.5702ZM46.5702 41.4583V38.1042C46.5702 36.9862 45.9311 34.75 43.3757 34.75C40.8202 34.75 40.1811 36.9862 40.1811 38.1042V41.4583H46.5702Z" stroke="#4F4F4F" stroke-width="2" stroke-linecap="round" stroke-linejoin="round"/>
<defs>
<linearGradient id="paint0_linear_202_20576" x1="21.1463" y1="17.6579" x2="60.216" y2="60.6477" gradientUnits="userSpaceOnUse">
<stop stop-color="white"/>
<stop offset="1" stop-color="#2F80ED"/>
</linearGradient>
</defs>
</svg>
