<svg width="344" height="367" viewBox="0 0 344 367" fill="none" xmlns="http://www.w3.org/2000/svg">
<rect x="51.4727" y="213.971" width="246.472" height="153.03" fill="url(#paint0_linear_1147_10827)"/>
<rect x="51.4727" y="213.971" width="246.472" height="153.03" fill="url(#paint1_linear_1147_10827)" fill-opacity="0.2"/>
<path d="M324.532 211.262C324.532 212.926 323.58 214.625 321.596 216.342C319.614 218.056 316.662 219.732 312.813 221.343C305.119 224.563 293.955 227.473 280.123 229.921C252.467 234.816 214.24 237.847 172.002 237.847C129.764 237.847 91.5374 234.816 63.8811 229.921C50.0489 227.473 38.8853 224.563 31.1915 221.343C27.3425 219.732 24.3904 218.056 22.4088 216.342C20.424 214.625 19.4727 212.926 19.4727 211.262C19.4727 209.598 20.424 207.898 22.4088 206.181C24.3904 204.467 27.3425 202.791 31.1915 201.18C38.8853 197.961 50.0489 195.05 63.8811 192.602C91.5374 187.707 129.764 184.677 172.002 184.677C214.24 184.677 252.467 187.707 280.123 192.602C293.955 195.05 305.119 197.961 312.813 201.18C316.662 202.791 319.614 204.467 321.596 206.181C323.58 207.898 324.532 209.598 324.532 211.262Z" fill="#DBE6FF" stroke="url(#paint2_linear_1147_10827)"/>
<g opacity="0.25" filter="url(#filter0_f_1147_10827)">
<ellipse cx="170.645" cy="182.823" rx="85.3173" ry="6.77122" fill="#2F80ED"/>
</g>
<path d="M323.677 214.647L342.637 189.594L312.166 200.428L323.677 214.647Z" fill="#DBE6FF"/>
<path d="M20.3266 214.647L1.36719 189.594L31.8377 200.428L20.3266 214.647Z" fill="#DBE6FF"/>
<path d="M342.99 185.531C342.99 187.279 342.015 189.129 339.833 191.06C337.655 192.987 334.385 194.893 330.08 196.736C321.478 200.419 308.97 203.759 293.437 206.572C262.388 212.195 219.453 215.679 172.001 215.679C124.548 215.679 81.6134 212.195 50.5643 206.572C35.0316 203.759 22.523 200.419 13.9211 196.736C9.61619 194.893 6.34638 192.987 4.16867 191.06C1.98655 189.129 1.01172 187.279 1.01172 185.531C1.01172 183.783 1.98655 181.934 4.16867 180.003C6.34638 178.076 9.61619 176.17 13.9211 174.327C22.523 170.643 35.0316 167.304 50.5643 164.491C81.6134 158.868 124.548 155.384 172.001 155.384C219.453 155.384 262.388 158.868 293.437 164.491C308.97 167.304 321.478 170.643 330.08 174.327C334.385 176.17 337.655 178.076 339.833 180.003C342.015 181.934 342.99 183.783 342.99 185.531Z" fill="#F5F8FF" stroke="url(#paint3_linear_1147_10827)" stroke-width="2"/>
<g filter="url(#filter1_f_1147_10827)">
<ellipse cx="171" cy="187" rx="85" ry="9" fill="#2F80ED" fill-opacity="0.1"/>
</g>
<path d="M272.845 23.0464C271.643 18.5783 269.288 14.5044 266.016 11.2325C262.744 7.96071 258.67 5.6058 254.202 4.40355C237.753 0 171.784 0 171.784 0C171.784 0 105.867 0 89.4175 4.40355C84.9494 5.6058 80.8754 7.96071 77.6036 11.2325C74.3318 14.5044 71.9769 18.5783 70.7746 23.0464C66.3711 39.496 66.3711 73.8063 66.3711 73.8063C66.3711 73.8063 66.3711 108.117 70.7746 124.566C71.9769 129.034 74.3318 133.108 77.6036 136.38C80.8754 139.652 84.9494 142.007 89.4175 143.209C105.867 147.613 171.81 147.613 171.81 147.613C171.81 147.613 237.753 147.613 254.202 143.209C258.67 142.007 262.744 139.652 266.016 136.38C269.288 133.108 271.643 129.034 272.845 124.566C277.249 108.117 277.249 73.8063 277.249 73.8063C277.249 73.8063 277.249 39.496 272.845 23.0464Z" fill="url(#paint4_linear_1147_10827)"/>
<path d="M150.719 105.44L205.508 73.8073L150.719 42.1748V105.44Z" fill="#2F80ED"/>
<defs>
<filter id="filter0_f_1147_10827" x="61.3281" y="152.052" width="218.633" height="61.5425" filterUnits="userSpaceOnUse" color-interpolation-filters="sRGB">
<feFlood flood-opacity="0" result="BackgroundImageFix"/>
<feBlend mode="normal" in="SourceGraphic" in2="BackgroundImageFix" result="shape"/>
<feGaussianBlur stdDeviation="12" result="effect1_foregroundBlur_1147_10827"/>
</filter>
<filter id="filter1_f_1147_10827" x="68" y="160" width="206" height="54" filterUnits="userSpaceOnUse" color-interpolation-filters="sRGB">
<feFlood flood-opacity="0" result="BackgroundImageFix"/>
<feBlend mode="normal" in="SourceGraphic" in2="BackgroundImageFix" result="shape"/>
<feGaussianBlur stdDeviation="9" result="effect1_foregroundBlur_1147_10827"/>
</filter>
<linearGradient id="paint0_linear_1147_10827" x1="174.709" y1="213.971" x2="174.709" y2="367" gradientUnits="userSpaceOnUse">
<stop stop-color="#CCDBFF"/>
<stop offset="1" stop-color="#CCDBFF" stop-opacity="0"/>
</linearGradient>
<linearGradient id="paint1_linear_1147_10827" x1="297.945" y1="308.091" x2="51.4727" y2="306.059" gradientUnits="userSpaceOnUse">
<stop stop-color="white" stop-opacity="0"/>
<stop offset="0.484375" stop-color="white"/>
<stop offset="1" stop-color="white" stop-opacity="0"/>
</linearGradient>
<linearGradient id="paint2_linear_1147_10827" x1="172.002" y1="184.177" x2="172.002" y2="238.347" gradientUnits="userSpaceOnUse">
<stop stop-color="#2F80ED"/>
<stop offset="1" stop-color="white" stop-opacity="0"/>
</linearGradient>
<linearGradient id="paint3_linear_1147_10827" x1="172.001" y1="154.384" x2="172.001" y2="216.679" gradientUnits="userSpaceOnUse">
<stop stop-color="#2F80ED"/>
<stop offset="1" stop-color="#2F80ED" stop-opacity="0"/>
</linearGradient>
<linearGradient id="paint4_linear_1147_10827" x1="171.81" y1="0" x2="171.81" y2="147.613" gradientUnits="userSpaceOnUse">
<stop stop-color="#E6F0FF"/>
<stop offset="1" stop-color="#F5F8FF"/>
</linearGradient>
</defs>
</svg>
