<svg width="93" height="31" viewBox="0 0 93 31" fill="none" xmlns="http://www.w3.org/2000/svg">
<path d="M40.493 29.828H33.0381L37.6973 1.19426H45.153L40.493 29.828ZM26.7667 1.19426L19.6595 20.8888L18.8185 16.6478L18.8193 16.6493L16.3109 3.7724C16.3109 3.7724 16.0076 1.19426 12.7745 1.19426H1.02508L0.887207 1.6791C0.887207 1.6791 4.48021 2.42665 8.6852 4.95194L15.162 29.8288H22.9293L34.7898 1.19426H26.7667ZM85.4029 29.828H92.2481L86.2799 1.1935H80.2872C77.5199 1.1935 76.8459 3.32739 76.8459 3.32739L65.7275 29.828H73.4987L75.0528 25.5748H84.5297L85.4029 29.828ZM77.1997 19.6993L81.1167 8.98383L83.3203 19.6993H77.1997ZM66.3104 8.08002L67.3743 1.93109C67.3743 1.93109 64.0915 0.682617 60.6693 0.682617C56.9698 0.682617 48.1845 2.29951 48.1845 10.1618C48.1845 17.5592 58.4956 17.6512 58.4956 21.5368C58.4956 25.4223 49.2469 24.7261 46.1946 22.2759L45.0863 28.7051C45.0863 28.7051 48.4151 30.322 53.5009 30.322C58.5882 30.322 66.2629 27.688 66.2629 20.5188C66.2629 13.0739 55.8592 12.3808 55.8592 9.14391C55.86 5.9063 63.1203 6.3222 66.3104 8.08002Z" fill="#2566AF"/>
</svg>
