<svg width="380" height="258" viewBox="0 0 380 258" fill="none" xmlns="http://www.w3.org/2000/svg">
<path d="M297.024 32.4352C327.916 44.1973 285.449 75.8339 302.822 87.8606C320.196 99.8888 392.145 123.346 319.688 169.883C247.234 216.42 245.243 247.255 193.519 217.789C141.795 188.323 145.511 183.028 102.946 202.948C60.3815 222.868 15.8922 191.877 31.0184 155.094C46.1445 118.312 55.7759 118.77 38.5035 95.2811C21.2311 71.792 53.4295 -2.62261 112.884 47.6109C172.341 97.8443 204.368 69.7551 210.897 50.9682C217.426 32.1812 249.669 14.4058 297.024 32.4352Z" fill="#DFF2D9"/>
<path d="M345 150.263L348.722 150.451C350.563 150.544 352.007 152.061 352.001 153.897L351.729 230.09C351.723 232.092 350.08 233.707 348.069 233.687L322.514 233.44L345 150.263Z" fill="#1082DF"/>
<path d="M300.379 150.855L347.519 148.038C348.493 147.98 349.312 148.762 349.292 149.736L347.441 228.624C347.401 230.559 345.786 232.09 343.845 232.035L310.678 231.092L300.379 150.855Z" fill="#91B3FA"/>
<path d="M302.918 152.73L344.34 146.978C345.405 146.83 346.352 147.659 346.341 148.73L345.391 228.389C345.377 229.677 344.352 230.73 343.06 230.783L312.551 232.026L302.918 152.73Z" fill="#BDD0FB"/>
<path d="M291.963 148.313L337.411 144.966C339.677 144.799 341.614 146.569 341.64 148.831L342.73 230.4C342.752 232.293 341.23 233.844 339.33 233.867L297.396 234.352C295.418 234.375 293.767 232.854 293.637 230.887L287.748 153.138C287.585 150.651 289.467 148.497 291.963 148.313Z" fill="#319AF0"/>
<path d="M344.103 181.645L339.941 181.694C339.137 181.703 338.479 181.063 338.47 180.262L338.178 155.312C338.169 154.511 338.812 153.856 339.615 153.847L343.778 153.798C344.581 153.789 345.24 154.429 345.249 155.229L345.541 180.18C345.55 180.979 344.907 181.636 344.103 181.645Z" fill="#319AF0"/>
<path d="M317.16 128.513L321.853 128.752C324.173 128.869 325.992 130.781 325.985 133.096L325.643 229.15C325.635 231.675 323.565 233.711 321.029 233.686L288.812 233.374L317.16 128.513Z" fill="#2F5309"/>
<path d="M260.908 129.258L320.336 125.706C321.565 125.633 322.595 126.619 322.571 127.845L320.236 227.297C320.186 229.736 318.151 231.666 315.703 231.598L273.89 230.409L260.908 129.258Z" fill="#BBD6B3"/>
<path d="M264.111 131.622L316.332 124.37C317.674 124.183 318.869 125.23 318.855 126.579L317.658 227C317.641 228.625 316.348 229.952 314.719 230.019L276.257 231.585L264.111 131.622Z" fill="#D9E8D4"/>
<path d="M250.299 126.054L307.594 121.836C310.449 121.626 312.891 123.858 312.925 126.708L314.3 229.539C314.327 231.925 312.409 233.881 310.012 233.91L257.148 234.523C254.654 234.552 252.573 232.633 252.41 230.154L244.987 132.138C244.78 129.002 247.15 126.287 250.299 126.054Z" fill="#49800E"/>
<path d="M316.409 168.07L310.404 168.139C309.6 168.149 308.942 167.508 308.933 166.708L308.557 134.498C308.548 133.698 309.191 133.042 309.994 133.033L315.999 132.963C316.803 132.954 317.461 133.594 317.47 134.394L317.846 166.605C317.855 167.405 317.212 168.06 316.409 168.07Z" fill="#49800E"/>
<path d="M52.7156 67.1056L113.723 67.4128C117.088 67.4296 119.85 70.0704 120.004 73.4186L124.06 161.523C124.18 164.142 122.098 166.342 119.465 166.377L49.5367 167.291C47.062 167.323 45.0425 165.329 45.0547 162.863L45.5039 74.2142C45.5252 70.2682 48.7545 67.0858 52.7156 67.1056Z" fill="#1C3102"/>
<path d="M59.7649 165.977C59.7634 165.977 59.7619 165.977 59.7588 165.977L51.9361 165.837C49.2475 165.788 47.0723 163.571 47.086 160.894L47.1456 149.131C47.1471 148.966 47.28 148.834 47.445 148.834H47.4465C47.6115 148.836 47.7459 148.969 47.7444 149.134L47.6848 160.897C47.6726 163.251 49.5851 165.198 51.9468 165.24L59.7695 165.38C59.9345 165.383 60.0659 165.519 60.0628 165.683C60.0613 165.847 59.9284 165.977 59.7649 165.977Z" fill="url(#paint0_linear_199_17337)"/>
<path d="M47.4635 145.787C47.297 145.785 47.1625 145.652 47.1641 145.487L47.1732 143.583C47.1748 143.418 47.3123 143.292 47.4742 143.286C47.6392 143.288 47.7736 143.422 47.7721 143.586L47.7629 145.49C47.7629 145.655 47.6285 145.787 47.4635 145.787Z" fill="url(#paint1_linear_199_17337)"/>
<path d="M52.9071 66.3948C61.2324 67.5615 89.8638 71.1851 113.56 69.4935C114.64 69.4159 115.573 70.2358 115.625 71.3144L119.898 159.811C119.956 161.025 119.021 162.058 117.803 162.123C107.839 162.66 66.8004 164.723 52.1738 163.123C51.2832 163.025 50.6111 162.275 50.6111 161.384L50.5332 68.453C50.5332 67.1904 51.6529 66.2183 52.9071 66.3948Z" fill="#EFF9EC"/>
<path d="M53.7892 68.6936C61.8013 69.8162 89.3543 73.3044 112.157 71.6767C113.197 71.6021 114.095 72.3916 114.145 73.4291L118.258 158.594C118.314 159.762 117.414 160.756 116.241 160.818C106.651 161.335 67.1586 163.321 53.0834 161.781C52.2265 161.687 51.5803 160.966 51.5788 160.108L51.5039 70.6757C51.5039 69.4603 52.5808 68.5247 53.7892 68.6936Z" fill="#DFEADB"/>
<path d="M109.187 79.1189C109.523 79.1204 109.792 78.8481 109.783 78.5135V78.5059C109.775 78.1712 109.493 77.8913 109.157 77.8837L86.9486 77.3771C86.6125 77.3695 86.4276 77.622 86.5376 77.9384L86.7087 78.4313C86.8187 78.7477 87.1838 79.0079 87.5199 79.0094L109.187 79.1189Z" fill="#F2F6F0"/>
<path d="M86.9329 80.7795C86.5969 80.7719 86.412 81.0244 86.522 81.3408L86.6931 81.8337C86.8031 82.1501 87.1682 82.4102 87.5042 82.4117L109.17 82.5212C109.506 82.5228 109.775 82.2505 109.766 81.9158V81.9082C109.758 81.5735 109.475 81.2936 109.139 81.286L86.9329 80.7795Z" fill="#F2F6F0"/>
<path d="M86.9154 84.2306C86.5793 84.223 86.3944 84.4756 86.5044 84.792L86.6755 85.2848C86.7855 85.6013 87.1506 85.8614 87.4867 85.8629L109.152 85.9724C109.488 85.9739 109.757 85.7016 109.748 85.367V85.3594C109.74 85.0247 109.458 84.7448 109.122 84.7372L86.9154 84.2306Z" fill="#F2F6F0"/>
<path d="M111.254 93.1113C111.59 93.1128 111.848 92.8405 111.828 92.5074V92.4967C111.809 92.1621 111.517 91.8852 111.181 91.8822L59.4278 91.2159C59.0917 91.2113 58.9863 91.4228 59.1956 91.6859L59.7425 92.3766C59.9502 92.6397 60.3963 92.8558 60.7323 92.8573L111.254 93.1113Z" fill="#F2F6F0"/>
<path d="M59.4102 94.6173C59.0741 94.6127 58.9687 94.8242 59.178 95.0873L59.7249 95.778C59.9326 96.0411 60.3787 96.2571 60.7148 96.2587L111.24 96.5127C111.576 96.5142 111.834 96.2419 111.814 95.9088V95.8981C111.794 95.5635 111.502 95.2866 111.166 95.2836L59.4102 94.6173Z" fill="#F2F6F0"/>
<path d="M68.3623 111.632C68.3561 111.632 68.35 111.632 68.3439 111.632L61.479 111.753C60.4891 111.77 59.655 111.114 59.5374 110.228L58.7767 104.509C58.7308 104.169 58.8286 103.829 59.0501 103.551C59.2976 103.241 59.6795 103.04 60.098 103C60.6755 102.946 61.4713 102.856 62.3466 102.757C64.2531 102.542 66.4131 102.301 67.684 102.25C67.6932 102.25 67.7023 102.249 67.7115 102.249C68.6219 102.225 69.4193 102.755 69.6592 103.548C70.0533 104.858 70.09 107.351 70.0961 110.009C70.0945 110.88 69.32 111.604 68.3623 111.632ZM60.15 103.556C59.8826 103.581 59.6413 103.706 59.487 103.898C59.3617 104.056 59.3052 104.246 59.3312 104.435L60.0919 110.153C60.1729 110.759 60.7641 111.207 61.4683 111.194L68.3332 111.072C68.3378 111.072 68.3424 111.072 68.347 111.072C69.0038 111.054 69.5339 110.579 69.5324 110.009C69.5278 107.394 69.4927 104.944 69.1199 103.708C68.955 103.16 68.347 102.766 67.7039 102.807C66.4528 102.857 64.2088 103.108 62.4062 103.311C61.5294 103.411 60.7305 103.501 60.15 103.556Z" fill="white"/>
<path d="M60.9039 104.111C62.3429 103.974 65.4683 103.571 66.9531 103.513C67.5825 103.489 68.1461 103.852 68.3081 104.392C68.6243 105.44 68.6441 107.547 68.6472 109.491C68.6487 110.074 68.1247 110.553 67.4694 110.564L61.9839 110.661C61.3087 110.673 60.7374 110.231 60.6579 109.636L60.05 105.066C59.9858 104.593 60.3707 104.162 60.9039 104.111Z" fill="#EFF9EC"/>
<path d="M74.2727 105.515C73.9367 105.517 73.7396 105.78 73.8343 106.101L74.4881 108.324C74.5828 108.644 74.9342 108.9 75.2702 108.891L109.734 107.952C110.07 107.943 110.331 107.662 110.314 107.329L110.249 105.996C110.232 105.661 109.943 105.389 109.607 105.391L74.2727 105.515Z" fill="#F2F6F0"/>
<path d="M61.2196 105.002C61.7206 104.69 62.3821 104.85 62.683 105.357L64.1036 107.736C64.2457 107.975 64.6001 107.949 64.707 107.693L67.86 100.157C68.0173 99.7815 68.5764 99.891 68.581 100.299C68.6085 102.576 68.1212 106.922 64.5665 110.644C64.5665 110.644 62.5318 109.92 60.8132 106.419C60.5658 105.914 60.7399 105.3 61.2196 105.002Z" fill="#319AF0"/>
<path d="M68.7642 126.279C68.7581 126.279 68.7519 126.279 68.7458 126.279L61.8809 126.401C60.891 126.418 60.057 125.762 59.9393 124.875L59.1771 119.157C59.1312 118.816 59.229 118.477 59.4505 118.198C59.698 117.888 60.0799 117.687 60.4984 117.648C61.0759 117.593 61.8717 117.503 62.747 117.404C64.6534 117.19 66.8134 116.948 68.0844 116.898C68.0936 116.898 68.1027 116.896 68.1119 116.896C69.0223 116.872 69.8197 117.403 70.0596 118.195C70.4537 119.504 70.4903 121.998 70.4949 124.656C70.498 125.529 69.722 126.253 68.7642 126.279ZM60.5519 118.205C60.2846 118.23 60.0432 118.355 59.8889 118.547C59.7621 118.705 59.7071 118.895 59.7316 119.084L60.4923 124.802C60.5733 125.407 61.1645 125.856 61.8687 125.843L68.7336 125.721C68.7382 125.721 68.7428 125.721 68.7474 125.721C69.4042 125.703 69.9343 125.228 69.9328 124.658C69.9282 122.043 69.893 119.593 69.5203 118.357C69.3553 117.809 68.7474 117.423 68.1043 117.456C66.8532 117.506 64.6091 117.757 62.8066 117.96C61.9313 118.059 61.1324 118.148 60.5519 118.205Z" fill="white"/>
<path d="M61.3062 118.759C62.7452 118.622 65.8706 118.219 67.3554 118.161C67.9848 118.137 68.5485 118.501 68.7104 119.041C69.0266 120.089 69.0465 122.196 69.0495 124.14C69.0511 124.722 68.5271 125.201 67.8718 125.212L62.3862 125.309C61.711 125.322 61.1397 124.879 61.0603 124.284L60.4523 119.714C60.3881 119.24 60.7731 118.809 61.3062 118.759Z" fill="#EFF9EC"/>
<path d="M74.6751 120.163C74.339 120.165 74.1419 120.428 74.2366 120.749L74.8905 122.971C74.9852 123.292 75.3365 123.548 75.6726 123.539L110.136 122.602C110.472 122.593 110.734 122.311 110.717 121.978L110.651 120.645C110.634 120.311 110.346 120.039 110.01 120.04L74.6751 120.163Z" fill="#F2F6F0"/>
<path d="M61.6219 119.651C62.123 119.339 62.7844 119.499 63.0853 120.006L64.506 122.385C64.6481 122.624 65.0025 122.598 65.1094 122.342L68.2623 114.806C68.4197 114.43 68.9788 114.542 68.9833 114.948C69.0108 117.225 68.5235 121.571 64.9689 125.293C64.9689 125.293 62.9341 124.569 61.2156 121.068C60.9681 120.562 61.1423 119.949 61.6219 119.651Z" fill="#319AF0"/>
<path d="M68.5087 140.362C68.5026 140.362 68.4965 140.362 68.4904 140.362L61.6255 140.482C60.6356 140.5 59.8015 139.843 59.6839 138.956L58.9232 133.238C58.8773 132.897 58.9751 132.558 59.1966 132.28C59.4441 131.969 59.826 131.769 60.2445 131.729C60.8219 131.674 61.6163 131.585 62.4916 131.487C64.3033 131.283 66.5595 131.031 67.832 130.981C68.7348 130.952 69.5658 131.478 69.8072 132.278C70.2013 133.588 70.238 136.081 70.2441 138.739C70.2425 139.612 69.4665 140.336 68.5087 140.362ZM60.2965 132.287C60.0291 132.313 59.7878 132.438 59.6335 132.63C59.5082 132.788 59.4517 132.978 59.4777 133.167L60.2384 138.885C60.3194 139.49 60.9105 139.939 61.6148 139.925L68.4797 139.805C69.1259 139.776 69.6804 139.315 69.6789 138.742C69.6743 136.127 69.6391 133.678 69.2664 132.441C69.1014 131.893 68.4935 131.513 67.8503 131.54C66.5993 131.589 64.3537 131.842 62.5512 132.044C61.6743 132.143 60.8769 132.231 60.2965 132.287Z" fill="white"/>
<path d="M61.0484 132.843C62.4874 132.706 65.6128 132.303 67.0976 132.245C67.727 132.221 68.2891 132.585 68.4526 133.125C68.7688 134.173 68.7887 136.28 68.7917 138.224C68.7932 138.806 68.2693 139.285 67.614 139.296L62.1284 139.393C61.4532 139.406 60.8819 138.963 60.8025 138.368L60.1945 133.798C60.1303 133.325 60.5153 132.895 61.0484 132.843Z" fill="#EFF9EC"/>
<path d="M74.4192 134.248C74.0831 134.25 73.8861 134.513 73.9808 134.834L74.6346 137.056C74.7293 137.377 75.0807 137.633 75.4167 137.624L109.88 136.687C110.217 136.678 110.478 136.396 110.461 136.063L110.395 134.73C110.378 134.396 110.09 134.123 109.754 134.125L74.4192 134.248Z" fill="#F2F6F0"/>
<path d="M61.3661 133.735C61.8671 133.423 62.5286 133.583 62.8295 134.09L64.2501 136.469C64.3922 136.708 64.7466 136.682 64.8535 136.426L68.0065 128.89C68.1638 128.514 68.7229 128.625 68.7275 129.032C68.755 131.309 68.2677 135.655 64.713 139.376C64.713 139.376 62.6783 138.652 60.9597 135.15C60.7123 134.646 60.8864 134.033 61.3661 133.735Z" fill="#319AF0"/>
<path d="M68.1279 154.89C68.1218 154.89 68.1157 154.89 68.1095 154.89L61.2446 155.012C60.2547 155.029 59.4207 154.373 59.303 153.486L58.5423 147.768C58.4965 147.427 58.5942 147.088 58.8157 146.81C59.0632 146.499 59.4451 146.299 59.8637 146.259C60.4411 146.204 61.237 146.115 62.1123 146.016C64.0187 145.801 66.1787 145.559 67.4496 145.509C68.383 145.495 69.1834 146.006 69.4248 146.807C69.8189 148.116 69.8556 150.61 69.8617 153.267C69.8601 154.14 69.0857 154.865 68.1279 154.89ZM59.9141 146.816C59.6467 146.842 59.4054 146.966 59.2511 147.158C59.1243 147.316 59.0693 147.506 59.0938 147.695L59.8545 153.413C59.9355 154.019 60.5266 154.468 61.2308 154.454L68.0958 154.332C68.1004 154.332 68.105 154.332 68.1095 154.332C68.7664 154.314 69.2965 153.839 69.2949 153.269C69.2904 150.654 69.2552 148.205 68.8825 146.968C68.7175 146.42 68.1095 146.048 67.4664 146.067C66.2153 146.118 63.9713 146.369 62.1688 146.571C61.2935 146.67 60.4946 146.76 59.9141 146.816Z" fill="white"/>
<path d="M60.6673 147.37C62.1062 147.234 65.2317 146.83 66.7165 146.773C67.3458 146.748 67.9095 147.112 68.0714 147.652C68.3877 148.7 68.4075 150.807 68.4106 152.751C68.4121 153.334 67.8881 153.813 67.2328 153.823L61.7473 153.921C61.0721 153.933 60.5008 153.49 60.4213 152.896L59.8133 148.326C59.7507 147.851 60.1341 147.421 60.6673 147.37Z" fill="url(#paint2_linear_199_17337)"/>
<path d="M74.0364 148.775C73.7003 148.776 73.5033 149.039 73.598 149.36L74.2518 151.583C74.3465 151.904 74.6978 152.159 75.0339 152.15L109.498 151.213C109.834 151.204 110.095 150.923 110.078 150.589L110.012 149.257C109.996 148.922 109.707 148.65 109.371 148.651L74.0364 148.775Z" fill="url(#paint3_linear_199_17337)"/>
<path d="M60.9852 148.263C61.4862 147.951 62.1477 148.11 62.4486 148.617L63.8693 150.996C64.0113 151.235 64.3657 151.209 64.4727 150.954L67.6256 143.418C67.7829 143.042 68.342 143.153 68.3466 143.559C68.3741 145.836 67.8868 150.182 64.3321 153.905C64.3321 153.905 62.2974 153.181 60.5789 149.679C60.3314 149.174 60.5055 148.561 60.9852 148.263Z" fill="url(#paint4_linear_199_17337)"/>
<path d="M87.0657 55.2699C84.8705 53.7319 82.9534 53.7532 81.603 54.1427C80.3703 54.4986 79.5668 55.6776 79.6783 56.9493L80.2282 63.2745L87.1466 63.921C87.1451 63.9225 91.3719 58.2864 87.0657 55.2699ZM83.9952 60.3553C83.042 60.3507 82.2736 59.5764 82.2782 58.6272C82.2828 57.678 83.0603 56.9128 84.0135 56.9173C84.9668 56.9219 85.7351 57.6962 85.7305 58.6454C85.726 59.5947 84.9484 60.3614 83.9952 60.3553Z" fill="#2C353A"/>
<path d="M80.8119 60.774C80.6913 60.7298 80.6011 60.6188 80.5904 60.4834L80.5034 59.4764C80.4866 59.2893 80.6271 59.1234 80.815 59.1067C81.0029 59.09 81.1694 59.2284 81.1862 59.417L81.2733 60.4241C81.2901 60.6112 81.1495 60.777 80.9616 60.7937C80.9082 60.7983 80.8578 60.7907 80.8119 60.774ZM80.6408 58.7994C80.5202 58.7553 80.43 58.6443 80.4193 58.5089L80.3521 57.7437C80.2391 56.4476 81.064 55.2459 82.3135 54.8869C83.169 54.6404 84.0489 54.6085 84.9288 54.7926C85.1105 54.8336 85.2328 55.0116 85.193 55.1972C85.1548 55.3813 84.9731 55.4999 84.7867 55.4619C84.0168 55.3006 83.2484 55.328 82.503 55.544C81.5681 55.8133 80.9494 56.7154 81.035 57.6874L81.1022 58.4526C81.119 58.6397 80.9784 58.8055 80.7905 58.8222C80.7371 58.8238 80.6867 58.8162 80.6408 58.7994Z" fill="url(#paint5_linear_199_17337)"/>
<path d="M70.7578 67.3148L70.7746 64.1355C70.7807 63.0387 71.6973 62.164 72.7987 62.2066L83.8011 62.6371L94.8035 63.0676C95.7796 63.1056 96.5678 63.8784 96.6213 64.8489L96.7893 67.905L70.7578 67.3148Z" fill="#2C353A"/>
<path d="M78.9848 63.5686C78.9848 63.5686 78.9833 63.5686 78.9848 63.5686L78.0362 63.5641C77.8712 63.5626 77.7368 63.4287 77.7383 63.2644C77.7398 63.1001 77.8727 62.9678 78.0377 62.9678H78.0392L78.9863 62.9723C79.1513 62.9739 79.2857 63.1077 79.2842 63.272C79.2827 63.4363 79.1498 63.5686 78.9848 63.5686Z" fill="url(#paint6_linear_199_17337)"/>
<path d="M71.8344 66.4753C71.703 66.4266 71.6098 66.3003 71.6113 66.1528L71.6175 64.8673C71.6205 64.3395 71.8283 63.8436 72.2056 63.4724C72.5829 63.1012 73.0824 62.8974 73.6125 62.9004L77.0923 62.9187C77.2802 62.9202 77.4345 63.0738 77.433 63.2625C77.4314 63.4511 77.2771 63.6032 77.0877 63.6017L73.6079 63.5834C72.8915 63.5804 72.3049 64.1569 72.3018 64.8704L72.2957 66.1558C72.2942 66.3444 72.1399 66.4966 71.9505 66.495C71.9108 66.4966 71.871 66.489 71.8344 66.4753Z" fill="url(#paint7_linear_199_17337)"/>
<path d="M63.8675 66.1162L102.355 66.3094C103.739 66.317 104.917 67.3134 105.146 68.6734L105.178 68.8605C105.428 70.3498 104.272 71.7037 102.757 71.696L63.2717 71.4968C62.3644 71.4922 61.6449 70.7331 61.6938 69.831L61.7869 68.071C61.845 66.9712 62.7615 66.1102 63.8675 66.1162Z" fill="#6CC551"/>
<path d="M271.686 235.129H138.492C134.156 235.129 130.619 231.594 130.533 227.175L127.211 54.9859C127.124 50.512 130.606 46.8124 134.995 46.7151L271.512 43.6787C275.976 43.5798 279.646 47.2399 279.646 51.7898V227.015C279.646 231.497 276.083 235.129 271.686 235.129Z" fill="#1C3102"/>
<path d="M267.537 226.686H141.583C139.912 226.686 138.559 225.337 138.559 223.674V70.8089C138.559 69.1447 139.914 67.7969 141.583 67.7969H267.537C269.208 67.7969 270.561 69.1462 270.561 70.8089V223.674C270.563 225.337 269.208 226.686 267.537 226.686Z" fill="#D9E8D4"/>
<g opacity="0.57">
<path opacity="0.57" d="M265.416 74.7314H192.451V80.4603H265.416V74.7314Z" fill="white"/>
<path opacity="0.57" d="M265.416 82.8711H192.451V86.1873H265.416V82.8711Z" fill="white"/>
<path opacity="0.57" d="M265.416 88.5996H192.451V91.9158H265.416V88.5996Z" fill="white"/>
<path opacity="0.57" d="M265.416 94.3291H192.451V97.6453H265.416V94.3291Z" fill="white"/>
</g>
<g opacity="0.57">
<path opacity="0.57" d="M189.726 146.487H147.945V152.216H189.726V146.487Z" fill="white"/>
<path opacity="0.57" d="M189.726 154.627H147.945V157.943H189.726V154.627Z" fill="white"/>
<path opacity="0.57" d="M189.726 160.355H147.945V163.672H189.726V160.355Z" fill="white"/>
<path opacity="0.57" d="M189.726 166.085H147.945V169.401H189.726V166.085Z" fill="white"/>
</g>
<path d="M196.217 117.76H192.451V135.032H196.217V117.76Z" fill="#319AF0"/>
<path d="M202.508 123.695H198.742V135.031H202.508V123.695Z" fill="#319AF0"/>
<path d="M208.799 109.024H205.033V135.03H208.799V109.024Z" fill="#319AF0"/>
<path d="M215.09 128.782H211.324V135.03H215.09V128.782Z" fill="#319AF0"/>
<path d="M221.381 112.503H217.615V135.032H221.381V112.503Z" fill="#319AF0"/>
<path d="M227.672 116.402H223.906V135.031H227.672V116.402Z" fill="#319AF0"/>
<path d="M233.961 120.643H230.195V135.03H233.961V120.643Z" fill="#319AF0"/>
<path d="M240.254 103.768H236.488V135.03H240.254V103.768Z" fill="#319AF0"/>
<path d="M246.545 107.075H242.779V135.031H246.545V107.075Z" fill="#319AF0"/>
<path d="M252.836 112.078H249.07V135.03H252.836V112.078Z" fill="#319AF0"/>
<path d="M259.125 129.362H255.359V135.03H259.125V129.362Z" fill="#319AF0"/>
<path d="M265.418 118.353H261.652V135.03H265.418V118.353Z" fill="#319AF0"/>
<path opacity="0.57" d="M265.416 216.134H147.945V219.45H265.416V216.134Z" fill="white"/>
<path d="M184.923 135.03H150.932C149.282 135.03 147.945 133.699 147.945 132.056V77.7035C147.945 76.0606 149.282 74.7295 150.932 74.7295H184.925C186.575 74.7295 187.911 76.0606 187.911 77.7035V132.056C187.91 133.699 186.573 135.03 184.923 135.03Z" fill="#319AF0"/>
<path opacity="0.57" d="M187.128 211.009H150.843C149.409 211.009 148.246 209.852 148.246 208.423V178.019C148.246 176.59 149.409 175.433 150.843 175.433H187.128C188.562 175.433 189.724 176.59 189.724 178.019V208.423C189.724 209.852 188.562 211.009 187.128 211.009Z" fill="white"/>
<path d="M231.183 178.569C230.72 178.569 230.271 178.382 229.944 178.046C229.559 177.649 229.389 177.092 229.489 176.55L234.684 147.897C234.765 147.448 235.023 147.05 235.402 146.789C235.779 146.531 236.245 146.432 236.697 146.517C249.734 148.959 259.837 159.367 261.837 172.419C261.906 172.871 261.791 173.332 261.518 173.698C261.244 174.065 260.836 174.308 260.381 174.374L231.43 178.552C231.348 178.563 231.265 178.569 231.183 178.569Z" fill="#ABD0F7"/>
<path d="M223.561 210.405C209.458 210.405 197.984 198.979 197.984 184.935C197.984 170.892 209.458 159.466 223.561 159.466C225.136 159.466 226.733 159.616 228.311 159.912C229.24 160.085 229.856 160.973 229.688 161.901L225.925 182.652L246.894 179.626C247.828 179.493 248.7 180.133 248.844 181.064C249.039 182.337 249.137 183.639 249.137 184.935C249.135 198.981 237.663 210.405 223.561 210.405Z" fill="#319AF0"/>
<path d="M96.6091 234.483C96.6091 234.483 108.57 219.516 106.625 205.369C104.681 191.22 94.9745 192.909 90.6561 201.275C86.3376 209.642 82.4545 208.493 85.0208 200.627C87.5872 192.761 90.8027 187.642 85.4852 179.812C80.1677 171.983 79.6162 168.656 82.6042 161.669C85.5921 154.682 89.3439 144.782 77.4562 141.25C65.5686 137.717 53.7268 148.57 56.4994 162.773C59.2719 176.977 60.937 178.524 57.118 183.786C53.3006 189.048 54.8908 191.208 55.4316 194.632C55.9723 198.056 50.14 198.858 50.2638 194.034C50.3875 189.21 57.8085 177.826 52.743 172.515C47.6791 167.205 37.7513 167.147 35.2095 179.428C32.6676 191.708 40.8126 197.227 40.4063 201.669C40.0015 206.111 35.6265 199.375 31.8167 203.904C28.0069 208.431 33.1365 211.988 36.9112 214.441C40.6858 216.895 46.3791 221.293 40.9623 224.486C35.5455 227.679 30.4174 224.623 33.7353 234.485H96.6091V234.483Z" fill="#BEE5B2"/>
<path d="M72.02 151.49C71.629 151.697 71.2868 151.956 70.9538 152.233C70.6207 152.511 70.3152 152.82 70.0296 153.147C69.4537 153.798 68.9664 154.533 68.5707 155.313C67.7764 156.877 67.3517 158.617 67.2097 160.36C67.1852 160.578 67.1776 160.797 67.1669 161.016C67.1592 161.235 67.1455 161.454 67.1501 161.672L67.1531 162.327L67.1852 162.981L67.2035 163.309L67.2356 163.634L67.3013 164.285C67.367 164.714 67.4128 165.149 67.4953 165.575C67.5747 166.003 67.6527 166.43 67.755 166.85L67.9017 167.484L68.0529 168.097L68.6639 170.543C69.472 173.802 70.2511 177.06 70.8636 180.335C71.4594 183.608 71.8718 186.916 71.7787 190.185C71.7573 191.002 71.7023 191.815 71.5969 192.618C71.4945 193.421 71.354 194.217 71.1478 194.991C70.9446 195.765 70.6941 196.526 70.3748 197.253C70.0204 198.076 69.7424 198.929 69.5255 199.775C69.1161 201.473 68.8747 203.172 68.6914 204.863C68.5127 206.555 68.3737 208.241 68.2637 209.925C68.0315 213.288 67.8329 216.641 67.3456 219.946C67.2845 220.36 67.2188 220.772 67.1409 221.182C67.0722 221.594 66.9836 222 66.898 222.408C66.8201 222.818 66.7071 223.217 66.6124 223.623C66.5589 223.824 66.4993 224.023 66.4428 224.222C66.3848 224.422 66.3313 224.624 66.261 224.819L66.0609 225.409C65.9937 225.605 65.9082 225.795 65.8333 225.989C65.6882 226.379 65.4972 226.746 65.3231 227.125C64.9351 227.858 64.4799 228.558 63.9238 229.182L64.0598 229.315C64.6769 228.722 65.2009 228.038 65.6592 227.312C66.096 226.576 66.4764 225.804 66.7865 225.007C67.4235 223.418 67.8421 221.758 68.1873 220.094C68.8747 216.761 69.2001 213.384 69.5713 210.039C69.7592 208.365 69.9272 206.695 70.1579 205.043C70.387 203.392 70.6727 201.754 71.1004 200.187C71.3265 199.407 71.5785 198.657 71.9054 197.937C72.2797 197.127 72.573 196.287 72.8128 195.437C73.0557 194.586 73.2237 193.722 73.349 192.857C73.4789 191.991 73.5522 191.121 73.5904 190.255C73.7355 186.781 73.3032 183.361 72.7212 180.007C72.1269 176.651 71.3219 173.352 70.4237 170.092C70.1961 169.278 69.9685 168.464 69.7332 167.653L69.5545 167.046L69.391 166.454C69.2749 166.06 69.1894 165.662 69.0932 165.265C68.9923 164.868 68.9297 164.466 68.8457 164.066L68.7525 163.464C68.7189 163.263 68.6899 163.061 68.67 162.86C68.557 162.054 68.5295 161.243 68.5218 160.432C68.5188 159.621 68.586 158.812 68.725 158.015C68.8671 157.219 69.0626 156.43 69.3529 155.669C69.5026 155.292 69.663 154.918 69.8524 154.555C70.0326 154.189 70.2434 153.837 70.4726 153.497C70.9308 152.82 71.4747 152.175 72.1193 151.664L72.02 151.49Z" fill="#49800E"/>
<path opacity="0.62" d="M97.4824 202.187C97.1249 204.835 96.6193 207.461 95.9991 210.051C95.6874 211.346 95.3437 212.633 94.9649 213.907C94.8748 214.227 94.7678 214.542 94.6701 214.86C94.5738 215.178 94.4669 215.493 94.3615 215.807C94.1599 216.44 93.9307 217.064 93.7092 217.689C93.4694 218.308 93.2372 218.929 92.976 219.539C92.7346 220.157 92.4566 220.759 92.1893 221.364C91.6271 222.565 91.0329 223.748 90.373 224.897C89.7161 226.047 88.989 227.154 88.2145 228.234C87.4248 229.302 86.5647 230.317 85.6543 231.303L85.7826 231.442C86.8366 230.597 87.8067 229.641 88.7003 228.619C89.5787 227.585 90.3822 226.485 91.1154 225.342C91.8242 224.185 92.4917 223.001 93.0692 221.774C93.3502 221.158 93.6405 220.544 93.8941 219.916C94.1583 219.293 94.3875 218.655 94.6273 218.022C94.8488 217.383 95.0764 216.746 95.2765 216.101C95.3819 215.78 95.4782 215.456 95.5698 215.131C95.6615 214.805 95.7608 214.482 95.8448 214.155C96.2053 212.855 96.5032 211.537 96.7598 210.214C97.2639 207.567 97.6153 204.891 97.6748 202.197L97.4824 202.187Z" fill="white"/>
<path d="M193.18 235.431C193.18 235.431 210.833 213.405 212.024 192.968C213.216 172.53 208.818 186.133 206.051 195.85C203.285 205.568 199.788 212.044 197.268 213.816C194.747 215.588 203.493 201.013 206.09 185.631C208.687 170.248 208.451 160.656 204.388 169.421C200.325 178.186 197.624 193.96 193.18 202.69C188.738 211.42 191.862 201.093 192.288 195.592C192.714 190.091 193.318 179.583 188.892 179.528C184.468 179.475 185.677 193.664 180.848 204.923C176.019 216.181 155.209 235.429 155.209 235.429H193.18V235.431Z" fill="#6CC551"/>
<path opacity="0.62" d="M210.332 187.847C209.847 189.913 209.329 191.971 208.761 194.01C208.625 194.522 208.475 195.029 208.331 195.537L207.899 197.063L206.992 200.099C205.753 204.136 204.383 208.117 202.901 212.041C201.433 215.973 199.766 219.802 198.011 223.573L196.659 226.381C196.549 226.618 196.43 226.847 196.306 227.075L195.944 227.761L195.223 229.136L194.505 230.516C194.261 230.972 193.995 231.412 193.741 231.861C193.227 232.753 192.713 233.649 192.208 234.555L192.205 234.559C192.176 234.611 192.189 234.679 192.235 234.713C192.278 234.743 192.335 234.731 192.365 234.687C192.935 233.834 193.497 232.971 194.056 232.105C194.334 231.672 194.623 231.246 194.892 230.805L195.671 229.46L196.447 228.111L196.833 227.435C196.963 227.21 197.09 226.984 197.206 226.749L198.636 223.965C199.123 223.044 199.542 222.081 199.988 221.133L200.643 219.703C200.75 219.464 200.863 219.228 200.967 218.987L201.272 218.259L202.487 215.346C202.875 214.367 203.241 213.376 203.62 212.392C205.099 208.438 206.423 204.41 207.584 200.324C207.867 199.3 208.15 198.275 208.421 197.248C208.68 196.215 208.956 195.19 209.194 194.151L209.556 192.595L209.9 191.034C210.129 189.994 210.334 188.946 210.522 187.893C210.533 187.832 210.499 187.774 210.446 187.762C210.395 187.75 210.345 187.786 210.332 187.843V187.847Z" fill="#49800E"/>
<path opacity="0.62" d="M204.931 174.523C203.393 179.621 201.851 184.714 200.27 189.787C198.699 194.865 197.082 199.921 195.411 204.951C194.577 207.467 193.709 209.966 192.837 212.462L192.176 214.33C191.956 214.954 191.731 215.575 191.502 216.194L190.828 218.056L190.143 219.912C189.667 221.139 189.215 222.381 188.73 223.602C188.493 224.217 188.251 224.828 187.999 225.435C187.752 226.044 187.52 226.661 187.26 227.264C186.253 229.692 185.198 232.091 184.023 234.429C183.996 234.482 184.012 234.55 184.058 234.581C184.101 234.61 184.156 234.596 184.185 234.552C185.629 232.399 186.88 230.083 188.034 227.719C188.612 226.535 189.179 225.344 189.704 224.132C190.246 222.927 190.76 221.707 191.261 220.481C193.27 215.578 195.008 210.544 196.656 205.482C198.297 200.414 199.814 195.3 201.231 190.152C202.635 184.998 203.967 179.822 205.116 174.584C205.13 174.525 205.098 174.464 205.044 174.449C204.998 174.437 204.948 174.47 204.931 174.523Z" fill="#49800E"/>
<path opacity="0.62" d="M189.189 187.861C188.743 189.943 188.551 192.067 188.322 194.142C188.221 195.184 188.088 196.209 187.966 197.236C187.886 197.746 187.821 198.257 187.747 198.766C187.715 199.022 187.671 199.276 187.625 199.528L187.492 200.288C187.344 201.307 187.095 202.303 186.886 203.309C186.858 203.433 186.834 203.56 186.802 203.684L186.702 204.056L186.502 204.799L186.102 206.287L185.169 209.222L184.128 212.12C182.648 215.945 180.995 219.698 179.236 223.398C178.815 224.335 178.339 225.237 177.891 226.157L176.541 228.918C175.609 230.738 174.674 232.56 173.764 234.401L173.762 234.404C173.736 234.457 173.753 234.526 173.799 234.556C173.843 234.583 173.898 234.57 173.926 234.524C175.007 232.808 176.075 231.078 177.127 229.335C178.136 227.56 179.176 225.804 180.137 223.991C180.613 223.083 181.099 222.178 181.57 221.264L181.924 220.579C182.04 220.349 182.149 220.115 182.262 219.882L182.932 218.486C183.855 216.641 184.654 214.716 185.462 212.797C187.042 208.937 188.322 204.873 189.061 200.642L189.192 199.848C189.235 199.583 189.284 199.32 189.307 199.051C189.363 198.515 189.426 197.983 189.476 197.447C189.525 196.912 189.545 196.377 189.573 195.841C189.606 195.306 189.608 194.772 189.612 194.239C189.626 192.103 189.515 190.006 189.383 187.884C189.38 187.821 189.333 187.774 189.278 187.779C189.234 187.779 189.198 187.815 189.189 187.861Z" fill="#49800E"/>
<path d="M80.6123 127.872C80.1021 146.02 78.4477 208.621 79.2375 230.805C79.3215 233.155 81.4586 235.041 84.1242 235.119C97.3087 235.499 145.64 236.464 167.205 235.665C171.696 235.499 175.269 232.291 175.362 228.328C175.81 209.28 176.799 155.701 174.449 131.158C174.167 128.217 171.549 125.875 168.218 125.581C153.86 124.315 105.321 121.22 86.689 122.285C83.3283 122.478 80.6948 124.904 80.6123 127.872Z" fill="#6B818C"/>
<path d="M84.3984 135.874V151.255C84.3984 154.204 86.7998 156.596 89.7618 156.596H163.553C166.515 156.596 168.916 154.204 168.916 151.255V135.875C168.916 132.926 166.515 130.534 163.553 130.534H89.7618C86.7998 130.534 84.3984 132.926 84.3984 135.874Z" fill="#EFF9EC"/>
<path opacity="0.2" d="M165.149 135.785C164.497 135.113 163.603 134.728 162.665 134.713L93.6188 133.621C91.7735 133.592 90.2153 134.982 90.0427 136.812L88.6083 152.067C88.4907 153.316 90.5544 154.367 93.1849 154.399L161.068 155.217C163.695 155.249 165.866 154.251 165.887 153.002L166.144 138.292C166.159 137.36 165.802 136.458 165.149 135.785Z" fill="#FAFDF9"/>
<path d="M102.845 172.188C102.845 174.902 100.636 177.101 97.9112 177.101H91.9048C89.1796 177.101 86.9707 174.902 86.9707 172.188C86.9707 169.474 89.1796 167.274 91.9048 167.274H97.9112C100.636 167.276 102.845 169.476 102.845 172.188Z" fill="#BEE5B2"/>
<path d="M125.156 172.188C125.156 174.902 122.947 177.101 120.222 177.101H114.215C111.49 177.101 109.281 174.902 109.281 172.188C109.281 169.474 111.49 167.274 114.215 167.274H120.222C122.947 167.276 125.156 169.476 125.156 172.188Z" fill="#BEE5B2"/>
<path d="M146.605 172.188C146.605 174.902 144.396 177.101 141.671 177.101H135.665C132.939 177.101 130.73 174.902 130.73 172.188C130.73 169.474 132.939 167.274 135.665 167.274H141.671C144.396 167.276 146.605 169.476 146.605 172.188Z" fill="#BEE5B2"/>
<path d="M168.351 172.909C168.351 175.667 166.107 177.901 163.338 177.901H157.533C154.764 177.901 152.52 175.667 152.52 172.909C152.52 170.151 154.764 167.916 157.533 167.916H163.338C166.106 167.916 168.351 170.152 168.351 172.909Z" fill="#319AF0"/>
<path d="M102.845 187.569C102.845 190.283 100.636 192.482 97.9112 192.482H91.9048C89.1796 192.482 86.9707 190.283 86.9707 187.569C86.9707 184.855 89.1796 182.655 91.9048 182.655H97.9112C100.636 182.655 102.845 184.855 102.845 187.569Z" fill="#BEE5B2"/>
<path d="M125.156 187.569C125.156 190.283 122.947 192.482 120.222 192.482H114.215C111.49 192.482 109.281 190.283 109.281 187.569C109.281 184.855 111.49 182.655 114.215 182.655H120.222C122.947 182.655 125.156 184.855 125.156 187.569Z" fill="#BEE5B2"/>
<path d="M146.605 187.569C146.605 190.283 144.396 192.482 141.671 192.482H135.665C132.939 192.482 130.73 190.283 130.73 187.569C130.73 184.855 132.939 182.655 135.665 182.655H141.671C144.396 182.655 146.605 184.855 146.605 187.569Z" fill="#BEE5B2"/>
<path d="M168.914 187.569C168.914 190.283 166.705 192.482 163.98 192.482H157.973C155.248 192.482 153.039 190.283 153.039 187.569C153.039 184.855 155.248 182.655 157.973 182.655H163.98C166.705 182.655 168.914 184.855 168.914 187.569Z" fill="#BEE5B2"/>
<path d="M102.845 201.189C102.845 203.903 100.636 206.102 97.9112 206.102H91.9048C89.1796 206.102 86.9707 203.903 86.9707 201.189C86.9707 198.475 89.1796 196.275 91.9048 196.275H97.9112C100.636 196.275 102.845 198.475 102.845 201.189Z" fill="#6CAC67"/>
<path d="M125.154 201.189C125.154 203.903 122.945 206.102 120.22 206.102H114.213C111.488 206.102 109.279 203.903 109.279 201.189C109.279 198.475 111.488 196.275 114.213 196.275H120.22C122.945 196.275 125.154 198.475 125.154 201.189Z" fill="#6CAC67"/>
<path d="M146.605 201.189C146.605 203.903 144.396 206.102 141.671 206.102H135.665C132.939 206.102 130.73 203.903 130.73 201.189C130.73 198.475 132.939 196.275 135.665 196.275H141.671C144.396 196.275 146.605 198.475 146.605 201.189Z" fill="#6CAC67"/>
<path d="M102.845 216.143C102.845 218.857 100.636 221.057 97.9112 221.057H91.9048C89.1796 221.057 86.9707 218.857 86.9707 216.143C86.9707 213.429 89.1796 211.229 91.9048 211.229H97.9112C100.636 211.229 102.845 213.429 102.845 216.143Z" fill="#6CAC67"/>
<path d="M125.154 216.143C125.154 218.857 122.945 221.057 120.22 221.057H114.213C111.488 221.057 109.279 218.857 109.279 216.143C109.279 213.429 111.488 211.229 114.213 211.229H120.22C122.945 211.229 125.154 213.429 125.154 216.143Z" fill="#6CAC67"/>
<path d="M146.605 216.143C146.605 218.857 144.396 221.057 141.671 221.057H135.665C132.939 221.057 130.73 218.857 130.73 216.143C130.73 213.429 132.939 211.229 135.665 211.229H141.671C144.396 211.229 146.605 213.429 146.605 216.143Z" fill="#6CAC67"/>
<path d="M166.77 215.741C166.77 219.176 163.975 221.96 160.526 221.96H160.145C156.696 221.96 153.9 219.176 153.9 215.741V203.827C153.9 200.392 156.696 197.608 160.145 197.608H160.526C163.975 197.608 166.77 200.392 166.77 203.827V215.741Z" fill="#6CC551"/>
<g opacity="0.7">
<path opacity="0.7" d="M158.189 138.01C158.189 138.601 157.709 139.078 157.117 139.078H154.113C153.521 139.078 153.041 138.601 153.041 138.01C153.041 137.42 153.521 136.942 154.113 136.942H157.117C157.709 136.942 158.189 137.42 158.189 138.01Z" fill="#B5E2A6"/>
<path opacity="0.7" d="M158.189 152.535C158.189 153.125 157.709 153.603 157.117 153.603H154.113C153.521 153.603 153.041 153.125 153.041 152.535C153.041 151.944 153.521 151.467 154.113 151.467H157.117C157.709 151.467 158.189 151.946 158.189 152.535Z" fill="#B5E2A6"/>
<path opacity="0.7" d="M153.471 143.991C153.471 144.581 152.991 145.059 152.399 145.059C151.806 145.059 151.326 144.581 151.326 143.991V141.001C151.326 140.411 151.806 139.934 152.399 139.934C152.991 139.934 153.471 140.411 153.471 141.001V143.991Z" fill="#B5E2A6"/>
<path opacity="0.7" d="M153.471 149.972C153.471 150.562 152.991 151.04 152.399 151.04C151.806 151.04 151.326 150.562 151.326 149.972V146.981C151.326 146.391 151.806 145.913 152.399 145.913C152.991 145.913 153.471 146.391 153.471 146.981V149.972Z" fill="#B5E2A6"/>
<path opacity="0.7" d="M160.764 143.991C160.764 144.581 160.284 145.059 159.692 145.059C159.099 145.059 158.619 144.581 158.619 143.991V141.001C158.619 140.411 159.099 139.934 159.692 139.934C160.284 139.934 160.764 140.411 160.764 141.001V143.991Z" fill="#B5E2A6"/>
<path opacity="0.7" d="M160.764 149.972C160.764 150.562 160.284 151.04 159.692 151.04C159.099 151.04 158.619 150.562 158.619 149.972V146.981C158.619 146.391 159.099 145.913 159.692 145.913C160.284 145.913 160.764 146.391 160.764 146.981V149.972Z" fill="#B5E2A6"/>
</g>
<path d="M68.6014 234.362C67.2908 234.475 65.0147 234.659 63.2198 234.737C62.1413 234.784 61.5196 234.679 61.1621 234.536C61.1621 234.575 61.1636 234.613 61.1652 234.648C61.1743 234.837 61.3271 234.986 61.518 234.997C64.9077 235.185 67.6039 235.062 68.5648 235.004C68.7634 234.992 68.881 234.778 68.7802 234.609C68.7297 234.527 68.6671 234.443 68.6014 234.362Z" fill="url(#paint8_linear_199_17337)"/>
<path d="M63.2202 234.737C65.0151 234.658 67.2897 234.475 68.6019 234.363C67.3126 232.788 63.2202 231.727 63.2202 231.727H62.0639C61.2695 232.867 61.1534 233.954 61.1626 234.538C61.52 234.679 62.1418 234.784 63.2202 234.737Z" fill="url(#paint9_linear_199_17337)"/>
<path d="M61.8691 229.846L61.9776 231.977C61.9898 232.208 62.1624 232.401 62.3946 232.435C62.6253 232.468 62.9354 232.471 63.2623 232.363C63.4639 232.296 63.6136 232.128 63.6503 231.921L64.0246 229.846H61.8691V229.846Z" fill="url(#paint10_linear_199_17337)"/>
<path d="M46.8585 234.721C46.2903 234.642 46.0321 234.348 45.9252 234.033C45.9252 234.036 45.9236 234.039 45.9236 234.042C45.8396 234.374 46.0336 234.718 46.4216 234.882C46.8906 235.08 47.4023 235.113 47.801 235.097C48.2272 235.078 48.6198 234.903 48.8352 234.622L48.8383 234.617C48.4075 234.827 47.8071 234.852 46.8585 234.721Z" fill="url(#paint11_linear_199_17337)"/>
<path d="M49.5396 229.832H48.5864C47.1352 229.803 46.2232 232.852 45.9238 234.032C46.0323 234.347 46.2889 234.641 46.8572 234.72C47.8058 234.852 48.4077 234.826 48.8354 234.615C49.619 233.587 50.0086 232.082 50.1949 231.203C50.4088 230.206 49.5396 229.832 49.5396 229.832Z" fill="url(#paint12_linear_199_17337)"/>
<path d="M48.7076 227.854L48.179 229.951C48.1149 230.208 48.2371 230.474 48.4769 230.596C48.7733 230.746 49.1903 230.906 49.5722 230.86C49.7525 230.839 49.9022 230.713 49.9617 230.544L50.7393 228.338L48.7076 227.854Z" fill="url(#paint13_linear_199_17337)"/>
<path d="M48.0781 228.459C48.7365 229.041 50.8782 229.118 50.8782 229.118C58.5925 210.678 61.7485 208.058 61.7485 208.058C60.6348 215.018 61.5682 230.426 61.5682 230.426C62.8407 230.986 64.4828 230.426 64.4828 230.426C64.5867 219.032 66.3449 209.094 68.4225 201.262C63.2073 201.145 60.4347 199.368 59.5289 198.654C55.1844 205.634 48.0781 228.459 48.0781 228.459Z" fill="#1C3102"/>
<path d="M60.8538 177.451C59.867 182.354 60.2199 191.128 60.4536 195.13C60.5193 196.256 59.7311 197.815 59.0925 198.879C58.9932 199.046 59.0543 199.259 59.2285 199.349C60.2963 199.895 63.9105 201.588 68.1007 201.798C68.3802 201.811 68.6292 201.623 68.7026 201.354C71.8112 189.797 75.4209 182.413 75.4209 182.413C71.4339 176.073 60.8538 177.451 60.8538 177.451Z" fill="#319AF0"/>
<path d="M62.2758 207.622C62.2315 207.622 62.1872 207.61 62.1475 207.585C62.0314 207.514 61.9947 207.363 62.065 207.248C62.1062 207.179 63.1037 205.573 65.1247 204.604C65.2469 204.544 65.3951 204.596 65.4547 204.718C65.5143 204.84 65.4623 204.987 65.3401 205.046C63.4581 205.952 62.4973 207.488 62.4881 207.503C62.4408 207.581 62.3598 207.622 62.2758 207.622Z" fill="url(#paint14_linear_199_17337)"/>
<path d="M54.6641 191.52C54.9818 193.803 55.9182 196.295 57.791 198.94L58.5029 198.362C58.5029 198.362 57.681 195.04 58.1485 191.27C56.9921 191.045 55.628 191.276 54.6641 191.52Z" fill="url(#paint15_linear_199_17337)"/>
<path d="M61.9563 183.499L60.8534 177.45C60.8534 177.45 53.4874 183.057 54.6621 191.52C55.626 191.276 56.9916 191.045 58.1465 191.27C58.4856 188.554 59.4908 185.605 61.9563 183.499Z" fill="#319AF0"/>
<path d="M75.419 182.411L72.5762 188.508C73.036 192.19 75.0218 193.781 77.1635 194.392C77.2964 192.714 77.7226 191.359 78.1182 190.422C75.3823 187.608 75.419 182.411 75.419 182.411Z" fill="#319AF0"/>
<path d="M78.1188 190.421C77.7232 191.358 77.297 192.713 77.1641 194.391C82.8772 196.599 84.388 192.318 84.388 192.318L83.3324 192.132C80.9479 192.383 79.2828 191.618 78.1188 190.421Z" fill="url(#paint16_linear_199_17337)"/>
<path d="M72.8006 174.883L71.4273 179.907C71.2731 180.472 70.6605 180.774 70.1152 180.558C69.527 180.324 68.78 180.005 68.1369 179.659C67.4511 179.29 67.2357 178.412 67.671 177.767L70.5245 173.53L72.8006 174.883Z" fill="url(#paint17_linear_199_17337)"/>
<path d="M87.0065 188.955L51.8354 201.703C50.3598 202.237 49.6556 203.91 50.3048 205.332L50.4117 205.567C50.9861 206.826 52.4816 207.378 53.7418 206.797L87.8925 191.065L87.0065 188.955Z" fill="#319AF0"/>
<path opacity="0.31" d="M103.171 198.266C112.76 198.266 120.534 190.665 120.534 181.288C120.534 171.911 112.76 164.31 103.171 164.31C93.582 164.31 85.8086 171.911 85.8086 181.288C85.8086 190.665 93.582 198.266 103.171 198.266Z" fill="url(#paint18_linear_199_17337)"/>
<path d="M103.171 162.396C92.5007 162.396 83.8516 170.854 83.8516 181.288C83.8516 191.722 92.5007 200.18 103.171 200.18C113.841 200.18 122.49 191.722 122.49 181.288C122.49 170.854 113.841 162.396 103.171 162.396ZM103.171 197.404C94.068 197.404 86.6898 190.189 86.6898 181.288C86.6898 172.388 94.068 165.173 103.171 165.173C112.274 165.173 119.652 172.388 119.652 181.288C119.653 190.189 112.274 197.404 103.171 197.404Z" fill="#319AF0"/>
<path opacity="0.73" d="M85.3218 183.648C85.247 183.648 85.1828 183.593 85.1736 183.517C85.1156 183.07 85.0759 182.614 85.053 182.16C85.0484 182.078 85.1125 182.008 85.195 182.004C85.2806 181.995 85.3478 182.063 85.3524 182.145C85.3738 182.591 85.4135 183.04 85.47 183.478C85.4807 183.56 85.4226 183.634 85.3402 183.645C85.334 183.648 85.3279 183.648 85.3218 183.648ZM85.4547 178.367C85.4456 178.367 85.4364 178.367 85.4287 178.363C85.3478 178.348 85.2928 178.272 85.3081 178.19C85.5265 176.975 85.8779 175.777 86.3514 174.635C89.1392 167.899 95.743 163.547 103.173 163.547C106.638 163.547 110.006 164.505 112.915 166.319C112.985 166.363 113.006 166.454 112.962 166.524C112.918 166.594 112.826 166.615 112.756 166.571C109.896 164.787 106.583 163.845 103.173 163.845C95.8637 163.845 89.3699 168.124 86.6279 174.748C86.162 175.872 85.8183 177.048 85.6029 178.243C85.5891 178.315 85.5265 178.367 85.4547 178.367Z" fill="white"/>
<path d="M75.8025 171.066C75.8147 171.152 74.6583 176.799 74.6583 176.799L71.4336 176.072L71.7315 170.558C71.7315 170.558 75.5932 169.62 75.8025 171.066Z" fill="url(#paint19_linear_199_17337)"/>
<path d="M72.4587 171.787L72.0737 174.678C72.0691 174.714 72.0691 174.751 72.0737 174.789C72.1058 175.015 72.2754 175.786 73.0575 175.566C73.7678 175.365 74.417 175.193 74.8677 175.33C75.0693 175.391 75.1915 175.595 75.1487 175.802C75.0433 176.314 74.7852 177.466 74.4063 178.433C74.3299 178.63 74.1146 178.733 73.9114 178.674C73.3004 178.496 72.0202 178.087 71.0701 177.516C70.9418 177.439 70.8639 177.299 70.87 177.15C70.9005 176.419 70.9861 174.201 70.9143 173.579C70.8471 172.995 70.1276 172.645 69.8144 172.52C69.7121 172.479 69.6311 172.399 69.5914 172.297C69.4463 171.936 69.2477 171.1 70.3048 170.757C70.5263 170.686 70.6424 170.449 70.5645 170.23C70.4071 169.794 70.3414 169.133 71.1602 168.768C71.9912 168.396 72.6129 168.838 72.949 169.197C73.085 169.341 73.3019 169.364 73.4699 169.257C73.5662 169.197 73.6884 169.177 73.8381 169.27C74.0397 169.394 74.3055 169.309 74.4094 169.098C74.608 168.69 75.0143 168.255 75.8285 168.393C77.2736 168.64 77.4371 170.234 77.0552 171.168C76.6733 172.102 75.1228 171.746 74.3452 171.276C73.7541 170.919 72.9857 171.293 72.6527 171.494C72.5457 171.556 72.4755 171.666 72.4587 171.787Z" fill="#1C3102"/>
<path d="M70.7838 174.632C70.7838 174.632 71.378 172.975 70.767 172.571C70.1575 172.164 69.2532 172.376 69.4518 173.576C69.7008 175.068 70.7838 174.632 70.7838 174.632Z" fill="url(#paint20_linear_199_17337)"/>
<path d="M58.2093 198.261L61.5349 197.992L62.9754 199.314C62.9754 199.314 62.6347 199.783 61.57 199.513C60.5053 199.244 59.0465 199.177 59.0465 199.177C59.0465 199.177 57.5769 199.837 57.5586 198.602L58.2093 198.261Z" fill="url(#paint21_linear_199_17337)"/>
<path d="M83.9654 193.103C84.2526 193.326 85.2378 192.859 85.8412 192.537C86.1345 192.38 86.2766 192.038 86.1758 191.721C86.0307 191.266 85.7893 190.678 85.4914 190.603C84.9965 190.478 82.78 192.181 83.9654 193.103Z" fill="url(#paint22_linear_199_17337)"/>
<path opacity="0.73" d="M52.5291 206.328C52.5123 206.328 52.497 206.325 52.4802 206.32C51.0962 205.844 50.7739 205.027 50.748 204.427C50.7098 203.549 51.2627 202.735 52.1243 202.4L56.3465 200.76C56.4229 200.73 56.51 200.768 56.5405 200.846C56.5711 200.922 56.5329 201.008 56.455 201.039L52.2328 202.679C51.4904 202.966 51.0138 203.664 51.0458 204.414C51.0779 205.154 51.5927 205.701 52.578 206.039C52.6559 206.066 52.6971 206.15 52.6712 206.229C52.6498 206.289 52.5917 206.328 52.5291 206.328Z" fill="white"/>
<path opacity="0.73" d="M57.7023 200.541C57.6427 200.541 57.5862 200.505 57.5633 200.447C57.5327 200.371 57.5709 200.284 57.6488 200.254L58.1957 200.041C58.2721 200.01 58.3591 200.048 58.3897 200.126C58.4202 200.202 58.382 200.289 58.3041 200.319L57.7573 200.532C57.7389 200.538 57.7206 200.541 57.7023 200.541Z" fill="white"/>
<path d="M290.202 160.182C290.202 160.182 290.45 161.575 290.571 162.955C290.618 163.493 290.201 163.962 289.657 163.985C287.813 164.061 283.868 164.21 282.452 164.147C282.239 164.138 282.1 163.921 282.178 163.725C282.244 163.559 282.372 163.426 282.534 163.352L289.051 160.369L290.202 160.182Z" fill="#6CC551"/>
<path d="M290.405 159.365L290.207 161.032C290.207 161.032 289.066 161.561 288.285 160.965L288.757 159.107L290.405 159.365Z" fill="url(#paint23_linear_199_17337)"/>
<path d="M290.257 128.033C290.342 128.468 290.717 149.752 288.433 159.288C288.396 159.443 288.474 159.604 288.624 159.665C288.974 159.808 289.661 160.014 290.484 160.043C290.739 160.052 290.969 159.886 291.04 159.642C291.693 157.429 294.823 146.343 295.231 135.752C295.687 123.917 295.231 135.349 295.231 135.349L294.963 128.033H290.257Z" fill="#1C3102"/>
<path d="M297.701 160.91C297.701 160.91 298.095 161.613 298.476 163.483C298.544 163.82 298.308 164.143 297.964 164.176C297.354 164.236 296.418 164.313 295.666 164.307C295.32 164.304 295.051 164.004 295.092 163.662C295.175 162.981 295.434 161.861 296.235 160.988L297.701 160.91Z" fill="#6CC551"/>
<path d="M298.045 158.767L297.581 161.287C297.581 161.287 297.122 161.627 296.215 161.38L296.436 158.668L298.045 158.767Z" fill="url(#paint24_linear_199_17337)"/>
<path d="M299.298 128.686C301.166 139.915 298.893 156.439 298.126 159.673C298.079 159.871 297.918 160.023 297.717 160.056C297.374 160.113 296.811 160.158 296.255 159.998C296.064 159.944 295.929 159.772 295.922 159.572C295.819 156.958 296.004 140.906 294.263 134.562C294.174 134.241 293.977 133.96 293.705 133.767L290.326 131.374L290.066 127.507L299.298 128.686Z" fill="#1C3102"/>
<path d="M287.395 107.408C292.994 107.315 299.173 108.872 299.173 108.872C300.842 118.569 299.464 129.756 299.464 129.756C295.129 130.888 290.239 129.064 290.239 129.064C289.518 125.01 286.158 113.603 286.158 113.603C283.422 113.265 281.169 112.478 279.312 111.439C280.729 109.806 281.396 107.726 281.685 106.497C283.665 107.11 285.667 107.437 287.395 107.408Z" fill="#35605A"/>
<path d="M270.855 99.1959C271.405 98.5342 272.102 98.8476 272.102 98.8476C272.925 102.313 277.247 105.124 281.684 106.498C281.394 107.727 280.727 109.806 279.312 111.44C271.945 107.316 270.855 99.1959 270.855 99.1959Z" fill="url(#paint25_linear_199_17337)"/>
<path d="M270.988 99.3643C270.93 99.5468 271.597 99.8237 271.99 99.0783C272.004 98.7208 272.222 97.1905 272.007 96.8999C270.865 95.3498 268.652 93.4072 268.652 93.4072C268.278 93.7754 268.586 94.1359 268.586 94.1359L269.66 95.2494C269.436 95.6541 269.162 95.9948 269.034 96.4831C268.936 96.8528 268.996 97.2483 269.184 97.586C269.372 97.9237 269.63 98.3633 269.873 98.7071C270.332 99.3597 270.988 99.3643 270.988 99.3643Z" fill="url(#paint26_linear_199_17337)"/>
<path d="M270.129 95.9736L271.107 96.7997L271.414 97.6211L270.541 98.5841C270.541 98.5841 270.248 96.9533 270.03 96.5989C269.813 96.2475 269.926 96.0771 270.129 95.9736Z" fill="url(#paint27_linear_199_17337)"/>
<path d="M297.023 114.273L299.171 108.874C299.171 108.874 304.402 112.412 305.262 116.9C304.273 116.973 302.475 117.229 300.716 118.114C300.328 115.995 297.023 114.273 297.023 114.273Z" fill="#35605A"/>
<path d="M292.453 119.354C292.453 119.354 298.325 122.658 300.307 119.836C300.718 119.25 300.817 118.668 300.714 118.112C302.474 117.227 304.272 116.971 305.261 116.898C305.52 118.251 305.383 119.69 304.585 121.144C301.115 127.466 291.676 120.794 291.676 120.794L292.453 119.354Z" fill="url(#paint28_linear_199_17337)"/>
<path d="M293.158 123.533L289.953 112.389C289.917 112.263 289.808 112.17 289.677 112.154C289.096 112.088 287.414 111.897 285.471 111.735C283.131 111.537 280.414 111.377 278.79 111.514C278.559 111.534 278.42 111.777 278.522 111.983C279.445 113.843 283.244 121.41 285.146 123.889C285.209 123.971 285.306 124.02 285.41 124.018L292.847 123.95C293.062 123.947 293.218 123.74 293.158 123.533Z" fill="#1C3102"/>
<path d="M285.139 110.767L282.816 110.382C282.692 110.361 282.591 110.48 282.629 110.598L282.86 111.292C282.88 111.353 282.933 111.395 282.996 111.405L285.232 111.701C285.348 111.716 285.443 111.611 285.417 111.499L285.275 110.893C285.258 110.828 285.206 110.779 285.139 110.767Z" fill="#D9E8D4"/>
<path d="M286.878 112.727L286.687 111.734C286.667 111.635 286.584 111.559 286.484 111.548L281.791 111.074C281.634 111.057 281.507 111.201 281.543 111.355L281.841 112.592C281.866 112.691 281.951 112.762 282.054 112.767L286.639 112.996C286.789 113.007 286.907 112.873 286.878 112.727Z" fill="#D9E8D4"/>
<path d="M292.383 120.84C292.383 120.84 292.829 119.012 292.649 118.364C292.468 117.716 292.12 116.882 290.956 117.066C289.794 117.252 288.422 117.74 288.422 117.74C288.422 117.74 288.491 118.584 289.375 118.312L288.827 118.735C288.827 118.735 288.905 119.412 289.652 119.05L289.141 119.609C289.141 119.609 289.462 120.165 290.011 119.809C290.562 119.453 290.825 121.061 292.383 120.84Z" fill="url(#paint29_linear_199_17337)"/>
<path d="M293.064 102.883L294.845 108.014C294.874 108.099 294.839 108.193 294.761 108.236C294.275 108.504 292.526 109.276 290.416 107.945C290.196 107.807 290.047 107.58 290.013 107.323L289.436 102.883H293.064Z" fill="url(#paint30_linear_199_17337)"/>
<path d="M289.189 98.1299C289.189 98.1299 287.233 101.798 287.483 103.279C287.734 104.761 290.158 104.654 292.275 103.451L293.755 99.4914L289.189 98.1299Z" fill="url(#paint31_linear_199_17337)"/>
<path d="M292.182 101.506C292.096 101.468 292.064 101.363 292.116 101.286C292.274 101.047 292.567 100.56 292.66 100.134C292.66 100.134 293.011 99.9107 291.765 99.6125C290.518 99.3159 288.659 98.8534 288.268 97.7977C287.888 96.7678 288.888 94.1757 290.486 96.24C290.547 96.3191 290.667 96.3206 290.726 96.2415C290.987 95.9023 291.676 95.198 292.633 95.6254C293.526 96.0255 293.627 96.6781 293.615 97.0067C293.612 97.104 293.699 97.1786 293.794 97.1603C294.246 97.0751 295.33 97.0006 295.837 98.1096C296.254 99.0223 295.984 99.5395 295.737 99.792C295.657 99.8742 295.692 100.008 295.801 100.041C296.099 100.133 296.482 100.384 296.444 101.076C296.39 102.034 295.315 101.951 295.008 101.906C294.958 101.899 294.907 101.917 294.874 101.954C294.611 102.243 293.427 103.472 292.145 103.621C292.034 103.633 291.948 103.525 291.985 103.42L292.539 101.815C292.565 101.741 292.529 101.659 292.457 101.627L292.182 101.506Z" fill="#1C3102"/>
<path d="M291.96 101.734C291.96 101.734 293.353 100.782 293.454 101.584C293.556 102.385 292.199 102.744 291.527 102.446L291.96 101.734Z" fill="url(#paint32_linear_199_17337)"/>
<path d="M274.89 236.95C275.263 236.95 275.564 236.682 275.564 236.35V164.671C275.564 164.339 275.263 164.071 274.89 164.071C274.518 164.071 274.217 164.339 274.217 164.671V236.35C274.217 236.68 274.519 236.95 274.89 236.95Z" fill="url(#paint33_linear_199_17337)"/>
<path d="M293.15 236.95C293.523 236.95 293.824 236.682 293.824 236.35V164.671C293.824 164.339 293.523 164.071 293.15 164.071C292.778 164.071 292.477 164.339 292.477 164.671V236.35C292.477 236.68 292.778 236.95 293.15 236.95Z" fill="url(#paint34_linear_199_17337)"/>
<path d="M338.012 237.405C338.1 237.405 338.189 237.39 338.274 237.356C338.617 237.227 338.777 236.874 338.63 236.57L304.174 164.435C304.029 164.131 303.632 163.988 303.291 164.119C302.949 164.248 302.789 164.601 302.935 164.905L337.391 237.04C337.5 237.268 337.75 237.405 338.012 237.405Z" fill="#7D97F4"/>
<path d="M316.726 237.405C316.815 237.405 316.904 237.39 316.989 237.356C317.331 237.227 317.492 236.874 317.345 236.57L282.889 164.435C282.744 164.131 282.347 163.988 282.006 164.119C281.664 164.248 281.503 164.601 281.65 164.905L316.106 237.04C316.216 237.268 316.465 237.405 316.726 237.405Z" fill="#7D97F4"/>
<path d="M273.322 165.33H305.927C306.164 165.33 306.355 165.138 306.355 164.904V164.066C306.355 163.83 306.162 163.64 305.927 163.64H273.322C273.085 163.64 272.895 163.831 272.895 164.066V164.904C272.895 165.138 273.085 165.33 273.322 165.33Z" fill="#7D97F4"/>
<path d="M287.476 176.299H308.823C309.196 176.299 309.497 176.032 309.497 175.7C309.497 175.368 309.196 175.101 308.823 175.101H287.476C287.104 175.101 286.803 175.368 286.803 175.7C286.803 176.032 287.104 176.299 287.476 176.299Z" fill="#7D97F4"/>
<path d="M315.374 188.742H294.027V189.941H315.374V188.742Z" fill="#7D97F4"/>
<path d="M321.714 202.385H300.367V203.583H321.714V202.385Z" fill="#7D97F4"/>
<path d="M307.015 217.227H328.362C328.735 217.227 329.036 216.959 329.036 216.628C329.036 216.296 328.735 216.028 328.362 216.028H307.015C306.643 216.028 306.342 216.296 306.342 216.628C306.342 216.958 306.644 217.227 307.015 217.227Z" fill="#7D97F4"/>
<path d="M313.445 230.87H334.792C335.164 230.87 335.465 230.602 335.465 230.27C335.465 229.939 335.164 229.671 334.792 229.671H313.445C313.072 229.671 312.771 229.939 312.771 230.27C312.771 230.602 313.072 230.87 313.445 230.87Z" fill="#7D97F4"/>
<path d="M227.925 61.8931L236.357 54.9214C237.17 54.249 238.194 53.8809 239.251 53.8809H280.078C282.579 53.8809 284.607 55.8995 284.607 58.3913V72.3362C284.607 74.828 282.579 76.8466 280.078 76.8466H239.251C238.194 76.8466 237.17 76.4785 236.357 75.8061L227.925 68.8344C225.744 67.0302 225.744 63.6972 227.925 61.8931Z" fill="#2279EA"/>
<path d="M267.687 57.8369H274.969C276.882 57.8369 278.434 59.3809 278.434 61.287V68.5386C278.434 70.4432 276.883 71.9887 274.969 71.9887H267.687C265.775 71.9887 264.223 70.4447 264.223 68.5386V61.287C264.223 59.3809 265.775 57.8369 267.687 57.8369Z" fill="#ABD0F7"/>
<path d="M267.369 63.1084L271.18 70.0132L275.291 59.8135L270.805 65.1894L267.369 63.1084Z" fill="#3199EF"/>
<path d="M109.857 95.457L105.787 96.4702L106.804 104.069C106.804 104.069 105.278 105.588 104.77 107.615C104.261 109.641 103.792 118.15 103.792 118.15L102.827 118.732L102.709 119.217L105.518 122.979L105.052 119.985C104.979 119.51 105.106 118.546 105.066 118.526C106.592 114.474 109.857 103.057 109.857 103.057V95.457Z" fill="url(#paint35_linear_199_17337)"/>
<path d="M111.045 119.268C111.001 119.267 110.958 119.271 110.914 119.268C111.111 116.825 112.009 106.072 112.909 102.042C113.926 97.4829 111.383 88.3633 111.383 88.3633L106.805 92.9223L109.348 101.535C107.605 104.14 109.632 119.388 109.589 119.381L109.593 119.414L108.928 120.322L109.009 120.815L113.063 123.198L111.468 120.618C111.213 120.21 111.074 119.746 111.045 119.268Z" fill="url(#paint36_linear_199_17337)"/>
<path d="M105.896 68.1426C105.896 68.1426 96.9808 78.1476 105.896 83.2786L106.805 82.623C106.805 82.623 102.379 78.4032 106.805 73.2356L105.896 68.1426Z" fill="url(#paint37_linear_199_17337)"/>
<path d="M113.329 123.573H112.035C111.792 123.573 111.564 123.462 111.416 123.272C111.013 122.75 110.177 121.731 109.777 121.705C109.239 121.669 109.308 123.573 109.308 123.573H109.007L108.625 121.206C108.529 120.611 108.827 120.021 109.363 119.741C109.363 119.741 109.485 120.646 110.153 121.048C110.819 121.448 112.866 122.883 112.866 122.883C112.866 122.883 113.116 122.848 113.391 122.896C113.801 122.971 113.744 123.573 113.329 123.573Z" fill="#6CC551"/>
<path d="M105.617 123.426L104.424 122.927C104.201 122.834 104.033 122.642 103.972 122.41C103.804 121.772 103.43 120.511 103.072 120.333C102.591 120.093 101.913 121.874 101.913 121.874L101.635 121.757L102.205 119.428C102.348 118.842 102.852 118.413 103.456 118.363C103.456 118.363 103.216 119.246 103.676 119.872C104.134 120.499 105.461 122.612 105.461 122.612C105.461 122.612 105.706 122.676 105.941 122.828C106.286 123.053 106.001 123.587 105.617 123.426Z" fill="#6CC551"/>
<path d="M112.548 80.6544C112.548 80.6544 112.399 81.5671 112.619 84.0786C112.839 86.5886 113.885 92.4833 113.673 98.1225C113.673 98.1225 110.694 98.8131 105.518 98.486C105.518 98.486 103.334 89.6813 103.867 86.3346C104.399 82.9879 107.286 80.5859 107.286 80.5859L112.548 80.6544Z" fill="#35605A"/>
<path d="M110.347 63.8776L110.71 68.1415H107.252L108.112 61.6338L110.347 63.8776Z" fill="url(#paint38_linear_199_17337)"/>
<path d="M106.227 67.5515C107.422 67.4861 110.09 67.3644 111.981 67.4679C112.977 67.5211 113.811 68.233 114.015 69.2051L114.476 71.4063C114.647 72.2262 114.623 73.075 114.401 73.8828L112.548 80.6537C112.548 80.6537 110.9 81.6395 107.284 80.5853C107.284 80.5853 104.108 73.0416 105.408 68.2163C105.509 67.8421 105.839 67.5728 106.227 67.5515Z" fill="#6CC551"/>
<path d="M113.923 68.8098C114.434 70.147 114.893 71.548 115.387 72.8608C115.639 73.518 115.892 74.1615 116.166 74.7532C116.303 75.0483 116.456 75.3191 116.595 75.564C116.734 75.8074 116.891 76.0097 116.972 76.1025C116.988 76.1162 116.934 76.1269 116.917 76.1284C116.907 76.1299 117.261 76.1862 117.371 76.2045L117.797 76.2014C118.408 76.1695 119.099 76.063 119.792 75.9291C121.192 75.669 122.644 75.3054 124.138 75.0286L124.151 75.027C124.436 74.9738 124.711 75.1624 124.763 75.4469C124.798 75.634 124.728 75.8181 124.594 75.9352C123.992 76.4631 123.353 76.8966 122.692 77.318C122.359 77.5203 122.02 77.7196 121.674 77.9113C121.323 78.0892 120.97 78.2687 120.605 78.4361C119.869 78.7555 119.106 79.0506 118.23 79.2393C117.999 79.2773 117.771 79.3184 117.535 79.3488C117.269 79.3579 117.027 79.3807 116.737 79.364C116.583 79.3488 116.429 79.3305 116.273 79.3077C116.19 79.2925 116.129 79.291 116.03 79.2636C115.924 79.2317 115.818 79.1967 115.714 79.1571C115.495 79.0795 115.355 78.9852 115.179 78.8864C115.032 78.7905 114.898 78.6886 114.768 78.5852C114.288 78.179 113.991 77.7743 113.729 77.388C113.468 77.0016 113.26 76.6137 113.074 76.2334C112.701 75.4743 112.41 74.7213 112.173 73.9637C111.693 72.4455 111.368 70.9532 111.232 69.3697C111.166 68.6106 111.731 67.9428 112.494 67.8773C113.124 67.8226 113.693 68.1998 113.908 68.7612L113.923 68.8098Z" fill="url(#paint39_linear_199_17337)"/>
<path d="M123.666 75.7104L124.283 74.2516L127.533 73.4453C127.533 73.4453 127.792 74.0066 126.428 74.2516C126.428 74.2516 126.915 74.7885 126.656 75.4183C126.396 76.0496 123.634 76.6809 123.666 75.7104Z" fill="url(#paint40_linear_199_17337)"/>
<path d="M111.811 58.9554C111.935 59.0284 112.908 62.4466 112.092 63.8795C111.276 65.3125 108.786 63.7076 108.111 61.6358C107.436 59.5623 108.521 57.0234 111.811 58.9554Z" fill="url(#paint41_linear_199_17337)"/>
<path d="M105.357 61.6344C104.798 64.3604 102.948 63.6135 101.638 64.8259C99.5128 66.7913 96.4745 64.7651 93.5186 66.627C91.3861 67.9718 90.358 71.4112 91.3815 74.1874C92.7991 78.0331 97.6446 79.6151 100.154 78.4438C102.554 77.3242 102.212 73.9714 105.441 72.6754C106.812 72.1247 107.488 72.4822 108.31 71.6668C109.748 70.2399 109.36 67.4698 109.21 66.4019C108.886 64.0866 108.105 63.6667 108.478 62.6491C109.202 60.67 112.583 61.0776 112.865 59.6812C113.122 58.4094 110.672 55.9968 108.367 56.3771C104.798 56.9673 105.606 60.4205 105.357 61.6344Z" fill="#1C3102"/>
<path d="M302.62 98.9568C302.151 98.9233 302.07 98.2738 302.518 98.1338C305.127 97.3154 309.407 95.4443 311.439 91.6124C311.885 90.7712 311.402 89.7398 310.477 89.5086C305.892 88.3646 293.579 84.0733 294.712 71.181C296.102 55.371 313.915 54.3168 325.28 57.4612C336.646 60.6055 342.409 68.3668 339.783 80.2596C337.307 91.474 315.669 99.8802 302.62 98.9568Z" fill="#82CD6B"/>
<path d="M325.568 89.2182C325.311 89.2182 325.074 89.0539 324.995 88.7968C324.899 88.4819 325.076 88.1487 325.392 88.0514C330.283 86.556 333.449 83.7098 334.799 79.5904C338.125 69.4454 331.787 64.789 331.516 64.5943C331.247 64.4026 331.185 64.0314 331.376 63.7637C331.567 63.496 331.939 63.4321 332.208 63.6222C332.282 63.674 339.545 68.9526 335.937 79.9601C334.48 84.4066 330.954 87.5981 325.743 89.1923C325.685 89.209 325.626 89.2182 325.568 89.2182Z" fill="#82CD6B"/>
<path opacity="0.6" d="M326.511 67.3626H300.055C299.49 67.3626 299.031 66.9063 299.031 66.3434C299.031 65.7806 299.49 65.3242 300.055 65.3242H326.511C327.076 65.3242 327.534 65.7806 327.534 66.3434C327.534 66.9063 327.076 67.3626 326.511 67.3626Z" fill="white"/>
<path opacity="0.53" d="M329.689 71.3558H303.232C302.667 71.3558 302.209 70.8994 302.209 70.3366C302.209 69.7737 302.667 69.3174 303.232 69.3174H329.689C330.254 69.3174 330.712 69.7737 330.712 70.3366C330.714 70.8994 330.255 71.3558 329.689 71.3558Z" fill="white"/>
<path opacity="0.53" d="M322.167 79.3431H303.234C302.669 79.3431 302.211 78.8868 302.211 78.3239C302.211 77.7611 302.669 77.3047 303.234 77.3047H322.167C322.732 77.3047 323.191 77.7611 323.191 78.3239C323.191 78.8868 322.732 79.3431 322.167 79.3431Z" fill="white"/>
<path opacity="0.6" d="M332.655 75.349H306.199C305.634 75.349 305.176 74.8926 305.176 74.3298C305.176 73.7669 305.634 73.3105 306.199 73.3105H332.655C333.221 73.3105 333.679 73.7669 333.679 74.3298C333.679 74.8926 333.221 75.349 332.655 75.349Z" fill="white"/>
<defs>
<linearGradient id="paint0_linear_199_17337" x1="47.0864" y1="157.405" x2="60.0647" y2="157.405" gradientUnits="userSpaceOnUse">
<stop stop-color="#DAE3FE"/>
<stop offset="1" stop-color="#E9EFFD"/>
</linearGradient>
<linearGradient id="paint1_linear_199_17337" x1="47.1648" y1="144.536" x2="47.7732" y2="144.536" gradientUnits="userSpaceOnUse">
<stop stop-color="#DAE3FE"/>
<stop offset="1" stop-color="#E9EFFD"/>
</linearGradient>
<linearGradient id="paint2_linear_199_17337" x1="59.8062" y1="150.345" x2="68.4119" y2="150.345" gradientUnits="userSpaceOnUse">
<stop stop-color="#DAE3FE"/>
<stop offset="1" stop-color="#E9EFFD"/>
</linearGradient>
<linearGradient id="paint3_linear_199_17337" x1="73.5737" y1="150.401" x2="110.08" y2="150.401" gradientUnits="userSpaceOnUse">
<stop stop-color="#DAE3FE"/>
<stop offset="1" stop-color="#E9EFFD"/>
</linearGradient>
<linearGradient id="paint4_linear_199_17337" x1="98.7176" y1="86.1385" x2="65.5127" y2="146.772" gradientUnits="userSpaceOnUse">
<stop stop-color="#FE7062"/>
<stop offset="1" stop-color="#FF928E"/>
</linearGradient>
<linearGradient id="paint5_linear_199_17337" x1="80.3415" y1="57.7345" x2="85.2003" y2="57.7345" gradientUnits="userSpaceOnUse">
<stop stop-color="#DAE3FE"/>
<stop offset="1" stop-color="#E9EFFD"/>
</linearGradient>
<linearGradient id="paint6_linear_199_17337" x1="77.7386" y1="63.2676" x2="79.2839" y2="63.2676" gradientUnits="userSpaceOnUse">
<stop stop-color="#DAE3FE"/>
<stop offset="1" stop-color="#E9EFFD"/>
</linearGradient>
<linearGradient id="paint7_linear_199_17337" x1="71.6118" y1="64.6991" x2="77.4344" y2="64.6991" gradientUnits="userSpaceOnUse">
<stop stop-color="#DAE3FE"/>
<stop offset="1" stop-color="#E9EFFD"/>
</linearGradient>
<linearGradient id="paint8_linear_199_17337" x1="61.1625" y1="234.731" x2="68.817" y2="234.731" gradientUnits="userSpaceOnUse">
<stop stop-color="#4042E2"/>
<stop offset="1" stop-color="#4F52FF"/>
</linearGradient>
<linearGradient id="paint9_linear_199_17337" x1="61.1625" y1="233.237" x2="68.6013" y2="233.237" gradientUnits="userSpaceOnUse">
<stop stop-color="#09005D"/>
<stop offset="1" stop-color="#1A0F91"/>
</linearGradient>
<linearGradient id="paint10_linear_199_17337" x1="61.8689" y1="231.151" x2="64.025" y2="231.151" gradientUnits="userSpaceOnUse">
<stop stop-color="#FF928E"/>
<stop offset="1" stop-color="#FEB3B1"/>
</linearGradient>
<linearGradient id="paint11_linear_199_17337" x1="45.9031" y1="234.566" x2="48.8365" y2="234.566" gradientUnits="userSpaceOnUse">
<stop stop-color="#4042E2"/>
<stop offset="1" stop-color="#4F52FF"/>
</linearGradient>
<linearGradient id="paint12_linear_199_17337" x1="45.9247" y1="232.317" x2="50.2303" y2="232.317" gradientUnits="userSpaceOnUse">
<stop stop-color="#09005D"/>
<stop offset="1" stop-color="#1A0F91"/>
</linearGradient>
<linearGradient id="paint13_linear_199_17337" x1="48.1616" y1="229.361" x2="50.7384" y2="229.361" gradientUnits="userSpaceOnUse">
<stop stop-color="#FF928E"/>
<stop offset="1" stop-color="#FEB3B1"/>
</linearGradient>
<linearGradient id="paint14_linear_199_17337" x1="56.8468" y1="219.858" x2="58.0733" y2="217.394" gradientUnits="userSpaceOnUse">
<stop stop-color="#4042E2"/>
<stop offset="1" stop-color="#4F52FF"/>
</linearGradient>
<linearGradient id="paint15_linear_199_17337" x1="59.9675" y1="191.957" x2="50.8283" y2="200.084" gradientUnits="userSpaceOnUse">
<stop stop-color="#FF928E"/>
<stop offset="1" stop-color="#FEB3B1"/>
</linearGradient>
<linearGradient id="paint16_linear_199_17337" x1="77.1636" y1="192.723" x2="84.3876" y2="192.723" gradientUnits="userSpaceOnUse">
<stop stop-color="#FF928E"/>
<stop offset="1" stop-color="#FEB3B1"/>
</linearGradient>
<linearGradient id="paint17_linear_199_17337" x1="70.1425" y1="173.498" x2="70.0642" y2="186.932" gradientUnits="userSpaceOnUse">
<stop stop-color="#FF928E"/>
<stop offset="1" stop-color="#FEB3B1"/>
</linearGradient>
<linearGradient id="paint18_linear_199_17337" x1="85.8098" y1="181.287" x2="120.534" y2="181.287" gradientUnits="userSpaceOnUse">
<stop stop-color="#DAE3FE"/>
<stop offset="1" stop-color="#E9EFFD"/>
</linearGradient>
<linearGradient id="paint19_linear_199_17337" x1="74.5186" y1="171.288" x2="69.2349" y2="180.909" gradientUnits="userSpaceOnUse">
<stop stop-color="#FF928E"/>
<stop offset="1" stop-color="#FEB3B1"/>
</linearGradient>
<linearGradient id="paint20_linear_199_17337" x1="65.8873" y1="179.528" x2="70.3539" y2="173.367" gradientUnits="userSpaceOnUse">
<stop stop-color="#FF928E"/>
<stop offset="1" stop-color="#FEB3B1"/>
</linearGradient>
<linearGradient id="paint21_linear_199_17337" x1="63.5897" y1="196.03" x2="54.4505" y2="204.157" gradientUnits="userSpaceOnUse">
<stop stop-color="#FF928E"/>
<stop offset="1" stop-color="#FEB3B1"/>
</linearGradient>
<linearGradient id="paint22_linear_199_17337" x1="83.6206" y1="191.878" x2="86.2076" y2="191.878" gradientUnits="userSpaceOnUse">
<stop stop-color="#FF928E"/>
<stop offset="1" stop-color="#FEB3B1"/>
</linearGradient>
<linearGradient id="paint23_linear_199_17337" x1="290.405" y1="160.178" x2="288.286" y2="160.178" gradientUnits="userSpaceOnUse">
<stop stop-color="#FF928E"/>
<stop offset="1" stop-color="#FEB3B1"/>
</linearGradient>
<linearGradient id="paint24_linear_199_17337" x1="298.045" y1="160.07" x2="296.215" y2="160.07" gradientUnits="userSpaceOnUse">
<stop stop-color="#FF928E"/>
<stop offset="1" stop-color="#FEB3B1"/>
</linearGradient>
<linearGradient id="paint25_linear_199_17337" x1="340.99" y1="4.25337" x2="329.075" y2="22.6911" gradientUnits="userSpaceOnUse">
<stop stop-color="#FF928E"/>
<stop offset="1" stop-color="#FEB3B1"/>
</linearGradient>
<linearGradient id="paint26_linear_199_17337" x1="-80.6284" y1="-441.698" x2="-68.7133" y2="-423.26" gradientUnits="userSpaceOnUse">
<stop stop-color="#FF928E"/>
<stop offset="1" stop-color="#FEB3B1"/>
</linearGradient>
<linearGradient id="paint27_linear_199_17337" x1="269.454" y1="94.5593" x2="272.771" y2="102.2" gradientUnits="userSpaceOnUse">
<stop stop-color="#FF928E"/>
<stop offset="1" stop-color="#FEB3B1"/>
</linearGradient>
<linearGradient id="paint28_linear_199_17337" x1="305.38" y1="120.383" x2="291.676" y2="120.383" gradientUnits="userSpaceOnUse">
<stop stop-color="#FF928E"/>
<stop offset="1" stop-color="#FEB3B1"/>
</linearGradient>
<linearGradient id="paint29_linear_199_17337" x1="292.692" y1="118.951" x2="288.422" y2="118.951" gradientUnits="userSpaceOnUse">
<stop stop-color="#FF928E"/>
<stop offset="1" stop-color="#FEB3B1"/>
</linearGradient>
<linearGradient id="paint30_linear_199_17337" x1="291.463" y1="101.573" x2="293.314" y2="113.315" gradientUnits="userSpaceOnUse">
<stop stop-color="#FF928E"/>
<stop offset="1" stop-color="#FEB3B1"/>
</linearGradient>
<linearGradient id="paint31_linear_199_17337" x1="294.21" y1="95.2623" x2="288.644" y2="104.186" gradientUnits="userSpaceOnUse">
<stop stop-color="#FF928E"/>
<stop offset="1" stop-color="#FEB3B1"/>
</linearGradient>
<linearGradient id="paint32_linear_199_17337" x1="289.715" y1="103.709" x2="295.063" y2="100.433" gradientUnits="userSpaceOnUse">
<stop stop-color="#F9B776"/>
<stop offset="1" stop-color="#F47960"/>
</linearGradient>
<linearGradient id="paint33_linear_199_17337" x1="274.217" y1="200.51" x2="275.565" y2="200.51" gradientUnits="userSpaceOnUse">
<stop stop-color="#09005D"/>
<stop offset="1" stop-color="#1A0F91"/>
</linearGradient>
<linearGradient id="paint34_linear_199_17337" x1="292.476" y1="200.51" x2="293.823" y2="200.51" gradientUnits="userSpaceOnUse">
<stop stop-color="#09005D"/>
<stop offset="1" stop-color="#1A0F91"/>
</linearGradient>
<linearGradient id="paint35_linear_199_17337" x1="106.369" y1="109.528" x2="125.026" y2="105.091" gradientUnits="userSpaceOnUse">
<stop stop-color="#FF928E"/>
<stop offset="1" stop-color="#FEB3B1"/>
</linearGradient>
<linearGradient id="paint36_linear_199_17337" x1="92.9831" y1="114.655" x2="111.621" y2="105.986" gradientUnits="userSpaceOnUse">
<stop stop-color="#FF928E"/>
<stop offset="1" stop-color="#FEB3B1"/>
</linearGradient>
<linearGradient id="paint37_linear_199_17337" x1="101.933" y1="75.7101" x2="106.804" y2="75.7101" gradientUnits="userSpaceOnUse">
<stop stop-color="#FF928E"/>
<stop offset="1" stop-color="#FEB3B1"/>
</linearGradient>
<linearGradient id="paint38_linear_199_17337" x1="108.79" y1="62.4069" x2="109.082" y2="71.2118" gradientUnits="userSpaceOnUse">
<stop stop-color="#FF928E"/>
<stop offset="1" stop-color="#FEB3B1"/>
</linearGradient>
<linearGradient id="paint39_linear_199_17337" x1="127.546" y1="66.852" x2="97.6911" y2="84.0268" gradientUnits="userSpaceOnUse">
<stop stop-color="#FF928E"/>
<stop offset="1" stop-color="#FEB3B1"/>
</linearGradient>
<linearGradient id="paint40_linear_199_17337" x1="130.518" y1="72.0195" x2="100.664" y2="89.1942" gradientUnits="userSpaceOnUse">
<stop stop-color="#FF928E"/>
<stop offset="1" stop-color="#FEB3B1"/>
</linearGradient>
<linearGradient id="paint41_linear_199_17337" x1="108.272" y1="53.7238" x2="111.587" y2="66.5465" gradientUnits="userSpaceOnUse">
<stop stop-color="#FF928E"/>
<stop offset="1" stop-color="#FEB3B1"/>
</linearGradient>
</defs>
</svg>
