<svg width="438" height="356" viewBox="0 0 438 356" fill="none" xmlns="http://www.w3.org/2000/svg">
<path d="M263.334 29.195L230 7.24349C223.325 2.8482 214.675 2.84821 208 7.24349L174.666 29.195C171.065 31.5659 166.795 32.71 162.492 32.457L122.648 30.1137C114.67 29.6445 107.178 33.9696 103.596 41.1133L85.703 76.7911C83.7704 80.6446 80.6445 83.7704 76.7911 85.703L41.1133 103.596C33.9696 107.178 29.6445 114.67 30.1137 122.648L32.457 162.492C32.71 166.795 31.5659 171.065 29.195 174.666L7.24349 208C2.8482 214.675 2.84821 223.325 7.24349 230L29.195 263.334C31.5659 266.935 32.71 271.205 32.457 275.508L30.1137 315.352C29.6445 323.33 33.9696 330.822 41.1133 334.404L78.4946 353.151C81.2773 354.547 84.3474 355.274 87.4605 355.274H350.54C353.653 355.274 356.723 354.547 359.505 353.151L396.887 334.404C404.03 330.822 408.355 323.33 407.886 315.352L405.543 275.508C405.29 271.205 406.434 266.935 408.805 263.334L430.757 230C435.152 223.325 435.152 214.675 430.757 208L408.805 174.666C406.434 171.065 405.29 166.795 405.543 162.492L407.886 122.648C408.355 114.67 404.03 107.178 396.887 103.596L361.209 85.703C357.355 83.7704 354.23 80.6446 352.297 76.7911L334.404 41.1133C330.822 33.9696 323.33 29.6445 315.352 30.1137L275.508 32.457C271.205 32.71 266.935 31.5659 263.334 29.195Z" fill="url(#paint0_linear_959_2754)"/>
<path d="M269.508 297.508C256.253 297.508 245.508 286.763 245.508 273.508C245.508 260.253 256.253 249.508 269.508 249.508C282.763 249.508 293.508 260.253 293.508 273.508C293.508 286.763 282.763 297.508 269.508 297.508Z" stroke="#2F80ED" stroke-width="14" stroke-linecap="round" stroke-linejoin="round"/>
<path d="M168 196C154.745 196 144 185.255 144 172C144 158.745 154.745 148 168 148C181.255 148 192 158.745 192 172C192 185.255 181.255 196 168 196Z" stroke="#366FEB" stroke-width="14" stroke-linecap="round" stroke-linejoin="round"/>
<path d="M290.831 148L144 294.831Z" fill="#366FEB"/>
<path d="M290.831 148L144 294.831" stroke="#366FEB" stroke-width="14" stroke-linecap="round" stroke-linejoin="round"/>
<defs>
<linearGradient id="paint0_linear_959_2754" x1="219" y1="61.2401" x2="219" y2="355.274" gradientUnits="userSpaceOnUse">
<stop stop-color="#F5F8FF"/>
<stop offset="1" stop-color="#F5F8FF" stop-opacity="0"/>
</linearGradient>
</defs>
</svg>
