<svg width="679" height="300" viewBox="0 0 679 300" fill="none" xmlns="http://www.w3.org/2000/svg">
<g clip-path="url(#clip0_221_20731)">
<rect width="679" height="300" rx="16" fill="#EFF9EC"/>
<path d="M545.208 127.76C532.421 109.962 506.466 101.179 504.717 73.8206C504.054 63.4597 510.951 54.8437 507.298 44.8025C482.79 -22.5458 381.591 28.269 337.654 44.4435C319.358 51.1775 297.452 58.7405 277.492 58.6491C254.514 58.5446 232.734 47.5766 209.941 46.256C202.92 45.8491 196.406 46.6933 190.362 48.6319C167.701 55.9054 148.415 80.6155 141.844 107.48C136.52 129.257 145.249 150.205 136.385 171.673C126.938 194.558 107.202 210.972 103.098 237.124C98.1725 268.512 122.756 294.667 148.05 294.516C164.148 294.421 193.841 290.456 207.074 279.156C223.187 265.394 239.499 263.886 258.907 263.623C295.842 263.122 333.093 270.672 369.768 275.648C401.195 279.913 432.275 286.836 463.946 286.621C487.204 286.462 506.93 286.024 518.418 258.157C532.149 224.851 572.029 165.094 545.208 127.76Z" fill="#DFF2D9"/>
<path d="M485.455 292.645C502.865 295.992 554.282 298.089 573.238 212.756C573.775 210.332 570.759 208.763 569.095 210.604C561.297 219.227 547.424 233.885 535.638 238.395C499.125 252.37 485.905 274.85 481.545 285.38C480.252 288.496 482.141 292.008 485.455 292.645Z" fill="#BEE5B2"/>
<path d="M483.771 290.467C483.348 290.467 482.959 290.191 482.835 289.764C482.685 289.249 482.981 288.707 483.499 288.557C508.909 281.168 527.562 266.954 538.737 256.329C550.838 244.824 556.992 234.972 557.052 234.874C557.335 234.417 557.936 234.276 558.393 234.559C558.85 234.842 558.991 235.442 558.708 235.899C558.645 235.999 552.362 246.064 540.079 257.742C528.748 268.514 509.83 282.928 484.042 290.428C483.953 290.456 483.862 290.467 483.771 290.467Z" fill="#447604"/>
<path d="M525.179 147.228C527.159 163.161 537.067 261.403 484.817 292.751C483.235 293.7 481.205 292.645 481.072 290.804C480.224 279.094 479.695 241.884 501.185 197.967C516.691 166.281 522.374 151.997 524.165 147.111C524.354 146.595 525.112 146.682 525.179 147.228Z" fill="#6CC551"/>
<path d="M481.069 291.779C480.912 291.779 480.754 291.742 480.606 291.662C480.133 291.405 479.959 290.813 480.216 290.341C506.562 241.904 517.607 184.562 517.648 181.721C517.58 181.255 517.859 180.798 518.32 180.653C518.834 180.494 519.38 180.777 519.541 181.29C520.178 183.327 508.164 243.04 481.926 291.272C481.75 291.594 481.415 291.779 481.069 291.779Z" fill="#447604"/>
<path d="M171.839 202.392C171.839 202.392 188.188 175.937 180.035 161.521C171.883 147.104 151.017 128.856 172.694 89.8185C185.386 66.9643 190.601 56.7753 192.746 52.2584C193.582 50.496 195.866 50.0152 197.337 51.2945C207.75 60.35 240.454 91.6875 233.23 122.305C224.665 158.601 171.839 202.392 171.839 202.392Z" fill="#6CC551"/>
<path d="M200.143 67.3056C200.143 67.3056 200.309 67.8017 200.598 68.7503C200.879 69.6946 201.297 71.0784 201.743 72.8603C202.195 74.6401 202.722 76.8072 203.248 79.3093C203.516 80.5603 203.796 81.8919 204.053 83.304C204.182 84.0111 204.314 84.7334 204.449 85.4754C204.569 86.2195 204.691 86.981 204.815 87.7577C204.939 88.5345 205.065 89.3286 205.193 90.138C205.302 90.9496 205.413 91.7764 205.526 92.6184C205.635 93.4604 205.744 94.3176 205.855 95.188C205.946 96.0604 206.038 96.946 206.131 97.8446C206.22 98.7431 206.325 99.6526 206.407 100.575C206.479 101.5 206.549 102.433 206.623 103.38C206.686 104.326 206.769 105.281 206.819 106.247C206.86 107.216 206.901 108.19 206.943 109.176C206.98 110.162 207.036 111.154 207.06 112.155C207.073 113.155 207.084 114.165 207.097 115.179C207.108 116.193 207.123 117.215 207.119 118.24C207.093 119.267 207.067 120.298 207.041 121.332C207.014 122.368 206.986 123.408 206.96 124.45C206.897 125.492 206.836 126.536 206.773 127.583C206.71 128.629 206.647 129.678 206.581 130.729L206.558 131.123L206.538 131.349L206.518 131.543L206.44 132.322L206.281 133.877C205.805 138.116 205.048 142.302 204.071 146.357C203.083 150.413 201.862 154.336 200.511 158.065C199.164 161.797 197.641 165.317 196.092 168.598C194.543 171.881 192.918 174.903 191.342 177.645C189.772 180.391 188.207 182.834 186.778 184.968C185.346 187.101 184.038 188.92 182.931 190.395C181.828 191.874 180.901 192.993 180.27 193.758C179.948 194.139 179.7 194.429 179.532 194.627C179.358 194.827 179.267 194.929 179.267 194.929C178.884 195.364 178.22 195.408 177.785 195.025C177.365 194.655 177.311 194.024 177.65 193.589L177.67 193.565C177.67 193.565 177.746 193.467 177.894 193.278C178.044 193.08 178.266 192.788 178.558 192.405C179.139 191.635 179.961 190.48 180.992 188.996C182.019 187.51 183.233 185.68 184.556 183.537C185.879 181.394 187.302 178.933 188.784 176.215C190.261 173.493 191.756 170.491 193.227 167.266C194.695 164.042 196.09 160.576 197.385 156.942C198.675 153.307 199.821 149.488 200.763 145.557C201.719 141.627 202.456 137.587 202.922 133.534L203.083 131.978L203.163 131.199L203.198 130.84L203.226 130.455C203.3 129.426 203.377 128.397 203.451 127.367C203.525 126.34 203.599 125.316 203.67 124.293C203.709 123.268 203.746 122.248 203.786 121.23C203.825 120.211 203.862 119.2 203.901 118.19C203.91 117.181 203.918 116.175 203.927 115.179C203.938 114.18 203.947 113.188 203.958 112.202C203.955 111.217 203.923 110.24 203.905 109.269C203.886 108.299 203.866 107.337 203.847 106.382C203.818 105.429 203.757 104.487 203.716 103.552C203.675 102.618 203.633 101.693 203.594 100.782C203.542 99.8702 203.468 98.9694 203.409 98.0817C203.346 97.194 203.283 96.3172 203.222 95.4534C203.139 94.5918 203.059 93.7432 202.978 92.9099C202.902 92.0744 202.826 91.2542 202.75 90.4491C202.656 89.6463 202.565 88.8565 202.476 88.0841C202.384 87.3117 202.295 86.5545 202.208 85.8148C202.106 85.0772 202.006 84.357 201.908 83.6543C201.734 82.2465 201.527 80.915 201.334 79.6661C200.951 77.164 200.552 74.9947 200.202 73.2128C199.847 71.4309 199.556 70.034 199.341 69.0876C199.127 68.1476 198.997 67.6429 198.997 67.6429C198.914 67.323 199.108 66.9988 199.425 66.9183C199.73 66.84 200.039 67.0119 200.137 67.3034L200.143 67.3056Z" fill="#DFF2D9"/>
<path d="M179.276 247.735C181.291 249.289 163.856 215.062 165.93 167.297C166.907 144.789 172.42 117.464 162.14 104.409C153.584 93.5457 117.284 91.9204 105.348 91.6811C103.855 91.6506 103.002 93.3695 103.932 94.5378C108.507 100.295 118.091 113.632 118.925 125.277C120.026 140.625 131.953 152.672 143.807 157.687C155.66 162.702 162.044 166.527 164.043 187.521C166.047 208.517 173.551 243.323 179.276 247.735Z" fill="#BEE5B2"/>
<path d="M120.291 101.106C120.291 101.106 120.646 101.18 121.29 101.348C121.934 101.517 122.878 101.772 124.059 102.164C125.239 102.555 126.662 103.064 128.263 103.73C129.862 104.398 131.651 105.199 133.528 106.224C135.408 107.24 137.397 108.443 139.405 109.861C141.409 111.284 143.443 112.914 145.362 114.809C147.281 116.702 149.1 118.834 150.699 121.184C152.292 123.538 153.652 126.11 154.709 128.801L155.092 129.815C155.225 130.153 155.347 130.492 155.447 130.84C155.658 131.53 155.878 132.22 156.071 132.911C156.432 134.267 156.789 135.62 157.146 136.961C157.492 138.307 157.834 139.645 158.171 140.966C158.491 142.291 158.806 143.599 159.115 144.887C159.724 147.463 160.29 149.961 160.791 152.337C161.295 154.71 161.75 156.96 162.139 159.044C162.331 160.087 162.516 161.085 162.69 162.034C162.849 162.987 163.001 163.89 163.145 164.738C163.419 166.438 163.649 167.922 163.826 169.147C164.008 170.369 164.124 171.335 164.202 171.992C164.278 172.654 164.317 173.006 164.317 173.006C164.344 173.23 164.183 173.435 163.956 173.459C163.741 173.483 163.547 173.337 163.508 173.128L163.506 173.117C163.506 173.117 163.441 172.774 163.321 172.127C163.193 171.481 163.005 170.532 162.766 169.325C162.292 166.91 161.535 163.474 160.61 159.358C160.131 157.304 159.611 155.078 159.061 152.724C158.484 150.376 157.875 147.902 157.246 145.342C156.587 142.789 155.904 140.155 155.212 137.474C154.851 136.134 154.487 134.785 154.122 133.429C153.937 132.768 153.721 132.119 153.528 131.462C153.436 131.132 153.323 130.807 153.199 130.49L152.842 129.526C150.878 124.396 147.712 119.774 144.085 116.084C142.275 114.235 140.378 112.579 138.472 111.143C136.568 109.705 134.666 108.471 132.86 107.422C131.05 106.38 129.353 105.479 127.813 104.755C126.274 104.024 124.901 103.452 123.761 103.01C122.619 102.57 121.714 102.244 121.092 102.04C120.467 101.833 120.139 101.739 120.139 101.739C119.965 101.689 119.862 101.509 119.91 101.332C119.958 101.165 120.126 101.065 120.293 101.1L120.291 101.106Z" fill="#447604"/>
<path d="M178.149 246.865C179.596 247.533 169.411 231.968 167.944 217.858C166.478 203.748 162.002 179.769 149.035 165.972C136.067 152.176 122.636 151.567 106.497 165.592C93.0483 177.28 84.589 183.268 79.513 184.566C78.2554 184.888 77.6831 186.357 78.362 187.462C81.9759 193.35 92.0214 206.781 107.595 204.971C127.462 202.662 150.93 188.422 158.867 198.839C166.804 209.257 166.18 215.356 166.678 220.466C167.179 225.579 168.58 242.452 178.149 246.865Z" fill="#6CC551"/>
<path d="M113.082 182.641C113.082 182.641 113.28 182.434 113.65 182.047C114.022 181.664 114.577 181.116 115.315 180.448C116.786 179.112 118.979 177.289 121.883 175.457C123.339 174.547 124.977 173.644 126.803 172.855C128.628 172.076 130.641 171.397 132.823 171.033C133.365 170.929 133.924 170.89 134.483 170.825C134.766 170.809 135.049 170.796 135.332 170.781C135.617 170.761 135.902 170.757 136.189 170.77C136.476 170.777 136.766 170.785 137.055 170.792L137.925 170.872C138.217 170.892 138.506 170.946 138.796 170.994C139.096 171.051 139.357 171.075 139.688 171.162C141.796 171.636 144.124 172.391 146.224 173.338C148.332 174.343 150.308 175.613 152.083 177.069C152.505 177.456 152.927 177.841 153.345 178.226C153.549 178.422 153.769 178.603 153.963 178.81L154.533 179.432C154.907 179.847 155.297 180.248 155.649 180.67C155.984 181.107 156.317 181.54 156.648 181.971C156.811 182.186 156.974 182.402 157.137 182.615C157.283 182.839 157.429 183.063 157.575 183.285C157.864 183.729 158.151 184.168 158.434 184.604C158.969 185.491 159.441 186.388 159.922 187.245C160.34 188.135 160.745 188.999 161.136 189.834C161.495 190.683 161.813 191.514 162.133 192.306C162.298 192.7 162.44 193.091 162.561 193.481C162.69 193.868 162.816 194.244 162.938 194.612C163.177 195.35 163.432 196.039 163.604 196.71C163.789 197.375 163.96 197.995 164.119 198.572C164.282 199.146 164.424 199.675 164.528 200.158C164.963 202.086 165.211 203.187 165.211 203.187C165.255 203.383 165.133 203.578 164.935 203.624C164.748 203.665 164.561 203.557 164.507 203.376L164.502 203.361C164.502 203.361 164.174 202.29 163.601 200.417C163.336 199.475 162.907 198.367 162.479 197.077C162.274 196.429 161.989 195.763 161.717 195.054C161.428 194.351 161.175 193.589 160.814 192.839C160.47 192.082 160.129 191.283 159.746 190.474C159.333 189.682 158.906 188.862 158.469 188.02C157.973 187.212 157.501 186.362 156.963 185.53C156.68 185.124 156.395 184.715 156.106 184.301C155.962 184.094 155.817 183.886 155.673 183.677C155.514 183.481 155.353 183.283 155.192 183.083C154.87 182.687 154.544 182.286 154.215 181.884C153.876 181.492 153.504 181.127 153.147 180.744L152.605 180.172C152.422 179.982 152.216 179.819 152.02 179.641C151.624 179.29 151.228 178.94 150.828 178.585C149.152 177.271 147.311 176.131 145.36 175.202C143.349 174.325 141.391 173.686 139.181 173.194C138.219 172.998 137.172 172.833 136.161 172.839C135.906 172.826 135.654 172.828 135.399 172.844C135.145 172.855 134.892 172.865 134.64 172.876C134.137 172.933 133.635 172.961 133.141 173.053C131.156 173.34 129.264 173.91 127.523 174.604C125.771 175.276 124.17 176.075 122.725 176.882C121.274 177.678 119.99 178.498 118.861 179.245C117.734 179.993 116.781 180.694 116 181.277C115.223 181.864 114.623 182.341 114.218 182.669C113.82 183.002 113.609 183.181 113.609 183.181L113.596 183.192C113.435 183.326 113.196 183.305 113.061 183.144C112.941 182.996 112.95 182.778 113.082 182.641Z" fill="#DFF2D9"/>
<path d="M281.691 279.282C281.691 279.282 280.969 283.151 280.597 286.984C280.451 288.481 281.595 289.796 283.096 289.872C288.203 290.133 299.127 290.651 303.05 290.514C303.64 290.492 304.032 289.893 303.818 289.343C303.64 288.882 303.292 288.507 302.844 288.296L284.872 279.828L281.691 279.282Z" fill="#6CC551"/>
<path d="M281.154 276.999L281.659 281.64C281.659 281.64 284.807 283.142 286.981 281.505L285.721 276.327L281.154 276.999Z" fill="url(#paint0_linear_221_20731)"/>
<path d="M282.399 189.858C282.151 191.066 280.547 250.253 286.622 276.841C286.722 277.274 286.498 277.72 286.085 277.883C285.11 278.27 283.202 278.827 280.921 278.882C280.214 278.899 279.586 278.433 279.394 277.755C277.645 271.582 269.27 240.662 268.422 211.194C267.473 178.266 268.433 210.073 268.433 210.073L269.368 189.734L282.399 189.858Z" fill="#1C3102"/>
<path d="M260.909 281.105C260.909 281.105 259.802 283.051 258.697 288.24C258.496 289.178 259.145 290.083 260.098 290.185C261.784 290.368 264.377 290.605 266.457 290.611C267.417 290.614 268.172 289.787 268.065 288.834C267.852 286.934 267.165 283.814 264.971 281.367L260.909 281.105Z" fill="#6CC551"/>
<path d="M260.01 275.135L261.228 282.156C261.228 282.156 262.49 283.113 265.01 282.452L264.468 274.904L260.01 275.135Z" fill="url(#paint1_linear_221_20731)"/>
<path d="M257.337 191.435C251.865 222.618 257.722 268.64 259.76 277.656C259.884 278.209 260.326 278.635 260.883 278.733C261.83 278.899 263.39 279.042 264.932 278.609C265.463 278.461 265.842 277.985 265.868 277.434C266.222 270.165 266.135 225.512 271.127 207.912C271.379 207.02 271.934 206.246 272.693 205.715L282.116 199.151L282.937 188.402L257.337 191.435Z" fill="#1C3102"/>
<path d="M290.878 132.571C275.371 132.166 258.218 136.333 258.218 136.333C253.337 163.262 256.856 194.412 256.856 194.412C268.833 197.676 282.425 192.731 282.425 192.731C284.529 181.475 294.141 149.833 294.141 149.833C301.728 148.965 307.99 146.84 313.16 143.998C309.283 139.416 307.488 133.615 306.717 130.188C301.217 131.838 295.66 132.697 290.878 132.571Z" fill="#6CC551"/>
<path d="M336.906 110.165C335.401 108.311 333.464 109.162 333.464 109.162C331.091 118.781 319.048 126.483 306.718 130.186C307.488 133.613 309.281 139.413 313.16 143.996C333.671 132.719 336.906 110.165 336.906 110.165Z" fill="url(#paint2_linear_221_20731)"/>
<path d="M336.532 110.628C336.687 111.137 334.833 111.89 333.767 109.808C333.739 108.814 333.175 104.553 333.776 103.748C336.978 99.4686 343.16 94.125 343.16 94.125C344.187 95.1563 343.323 96.1528 343.323 96.1528L340.32 99.2228C340.932 100.352 341.68 101.309 342.024 102.671C342.283 103.703 342.109 104.801 341.58 105.735C341.049 106.67 340.325 107.887 339.644 108.835C338.349 110.632 336.532 110.628 336.532 110.628Z" fill="url(#paint3_linear_221_20731)"/>
<path d="M339 101.221L336.269 103.492L335.396 105.77L337.788 108.473C337.788 108.473 338.643 103.943 339.256 102.966C339.868 101.991 339.559 101.512 339 101.221Z" fill="url(#paint4_linear_221_20731)"/>
<path d="M264.023 151.406L258.218 136.332C258.218 136.332 243.638 146.036 241.136 158.494C243.871 158.723 248.844 159.482 253.696 161.991C254.823 156.105 264.023 151.406 264.023 151.406Z" fill="#6CC551"/>
<path d="M276.546 165.657C276.546 165.657 260.193 174.693 254.782 166.793C253.659 165.152 253.4 163.529 253.696 161.989C248.844 159.48 243.871 158.721 241.136 158.492C240.381 162.248 240.722 166.253 242.896 170.317C252.341 187.993 278.661 169.686 278.661 169.686L276.546 165.657Z" fill="url(#paint5_linear_221_20731)"/>
<path d="M275.288 119.829L270.216 134.052C270.131 134.287 270.227 134.55 270.445 134.674C271.783 135.431 276.609 137.627 282.483 133.98C283.094 133.599 283.514 132.975 283.614 132.261L285.331 119.925L275.288 119.829Z" fill="url(#paint6_linear_221_20731)"/>
<path d="M286.15 106.719C286.15 106.719 291.472 116.971 290.739 121.085C290.006 125.2 283.291 124.839 277.46 121.436L273.468 110.383L286.15 106.719Z" fill="url(#paint7_linear_221_20731)"/>
<path d="M277.771 116.028C278.011 115.924 278.102 115.634 277.96 115.415C277.532 114.747 276.731 113.387 276.483 112.199C276.483 112.199 275.515 111.566 278.977 110.771C282.438 109.977 287.601 108.744 288.711 105.815C289.794 102.958 287.09 95.7261 282.61 101.427C282.44 101.644 282.11 101.644 281.944 101.424C281.228 100.474 279.34 98.4959 276.681 99.6577C274.194 100.746 273.896 102.558 273.922 103.474C273.929 103.744 273.687 103.95 273.424 103.898C272.173 103.648 269.17 103.413 267.739 106.483C266.56 109.011 267.297 110.456 267.974 111.165C268.194 111.396 268.093 111.77 267.787 111.859C266.962 112.103 265.892 112.791 265.979 114.72C266.1 117.388 269.083 117.181 269.934 117.068C270.073 117.049 270.213 117.099 270.306 117.203C271.026 118.015 274.273 121.465 277.817 121.911C278.124 121.951 278.365 121.648 278.267 121.354L276.775 116.877C276.705 116.668 276.807 116.441 277.008 116.354L277.771 116.028Z" fill="#1C3102"/>
<path d="M278.38 116.668C278.38 116.668 274.546 113.983 274.244 116.211C273.941 118.437 277.688 119.473 279.555 118.659L278.38 116.668Z" fill="url(#paint8_linear_221_20731)"/>
<path d="M273.205 179.939L282.112 148.832C282.212 148.48 282.515 148.221 282.88 148.18C284.495 147.99 289.17 147.462 294.57 147.007C301.074 146.456 308.628 146.01 313.141 146.391C313.782 146.445 314.17 147.124 313.885 147.701C311.317 152.894 300.76 174.014 295.473 180.936C295.297 181.164 295.027 181.299 294.738 181.297L274.071 181.105C273.47 181.094 273.039 180.518 273.205 179.939Z" fill="#1C3102"/>
<path d="M275.357 172.424C275.357 172.424 274.117 167.321 274.617 165.511C275.117 163.701 276.088 161.373 279.319 161.891C282.552 162.409 286.364 163.771 286.364 163.771C286.364 163.771 286.17 166.129 283.714 165.368L285.237 166.547C285.237 166.547 285.019 168.435 282.944 167.426L284.36 168.988C284.36 168.988 283.468 170.539 281.943 169.545C280.42 168.549 279.687 173.037 275.357 172.424Z" fill="url(#paint9_linear_221_20731)"/>
<path d="M293.977 156.291C293.977 157.736 295.147 158.906 296.592 158.906C298.037 158.906 299.207 157.736 299.207 156.291C299.207 154.846 298.037 153.676 296.592 153.676C295.147 153.676 293.977 154.846 293.977 156.291Z" fill="#DFF2D9"/>
<path d="M283.022 157.986L282.554 157.849L284.368 151.698C284.653 150.734 285.432 150.009 286.4 149.807C292.138 148.608 307.753 148.356 307.91 148.354L307.917 148.841C307.76 148.843 292.19 149.095 286.498 150.283C285.706 150.449 285.069 151.043 284.834 151.837L283.022 157.986Z" fill="#DFF2D9"/>
<path d="M177.699 245.07C176.75 246.476 172.975 278.288 172.386 290.037C172.346 290.831 172.982 291.494 173.776 291.494C174.461 291.494 175.046 290.994 175.151 290.317L182.055 246.084L177.699 245.07Z" fill="#35605A"/>
<path d="M208.042 245.07C208.991 246.476 212.766 278.288 213.356 290.037C213.395 290.831 212.759 291.494 211.965 291.494C211.28 291.494 210.695 290.994 210.59 290.317L203.687 246.084L208.042 245.07Z" fill="#35605A"/>
<path d="M171.99 242.588L171.987 242.934C171.966 245.429 174.115 247.477 176.807 247.522L208.712 248.064C211.366 248.11 213.577 246.191 213.705 243.734L213.723 243.417C213.858 240.854 211.682 238.695 208.914 238.645L176.996 238.073C174.263 238.027 172.014 240.055 171.99 242.588Z" fill="#35605A"/>
<path d="M239.2 288.881C233.528 288.881 231.019 288.394 229.896 287.95C230.114 288.881 230.943 289.617 231.992 289.617H252.057C252.733 289.617 253.16 288.971 252.996 288.385C250.71 288.57 245.853 288.881 239.2 288.881Z" fill="#6CC551"/>
<path d="M252.999 288.386C252.966 288.268 252.918 288.151 252.835 288.044C251.306 286.092 248.236 283.029 244.061 283.088C237.942 283.175 235.808 283.838 231.054 283.125L229.931 286.843C229.816 287.222 229.816 287.6 229.896 287.953C231.019 288.397 233.528 288.884 239.2 288.884C245.853 288.882 250.71 288.571 252.999 288.386Z" fill="#6CC551"/>
<path d="M232.429 279.119L231.052 283.801C231.052 283.801 234.102 285.189 236.785 284.075L237.311 280.018L232.429 279.119Z" fill="url(#paint10_linear_221_20731)"/>
<path d="M274.014 285.935C269.593 289.488 267.333 290.682 266.182 291.039C266.932 291.624 268.038 291.676 268.853 291.019L284.495 278.452C285.021 278.028 284.952 277.26 284.46 276.907C282.793 278.482 279.201 281.766 274.014 285.935Z" fill="#6CC551"/>
<path d="M284.463 276.907C284.363 276.835 284.254 276.776 284.121 276.746C281.713 276.189 277.409 275.734 274.191 278.397C269.476 282.296 268.225 284.148 264.076 286.571L265.519 290.159C265.667 290.525 265.899 290.821 266.184 291.04C267.335 290.681 269.596 289.487 274.017 285.936C279.202 281.765 282.794 278.482 284.463 276.907Z" fill="#6CC551"/>
<path d="M202.976 225.768C202.976 225.768 236.933 228.539 243.897 231.818C250.864 235.097 238.212 281.058 238.212 281.058C238.212 281.058 236.315 281.969 232.096 280.66C232.096 280.66 236.424 246.744 233.203 239.39L196.438 233.376L202.976 225.768Z" fill="#1C3102"/>
<path d="M260.701 280.113C261.017 280.4 264.076 286.569 264.076 286.569C264.076 286.569 267.481 285.831 268.175 283.677L265.111 278.109L260.701 280.113Z" fill="url(#paint11_linear_221_20731)"/>
<path d="M182.526 225.484C182.526 225.484 181.419 228.148 181.464 231.685C181.527 236.579 185.461 240.549 190.348 240.793L230.491 242.623C231.339 242.662 232.055 243.247 232.268 244.07C233.212 247.718 237.823 258.924 260.359 281.28C260.96 281.874 261.893 281.976 262.607 281.525L265.816 279.5C266.153 279.287 266.26 278.845 266.06 278.501L242.688 238.589C241.461 236.563 239.487 235.099 237.192 234.514L202.978 225.767L182.526 225.484Z" fill="#1C3102"/>
<path d="M222.084 163.139C222.084 163.139 217.785 170.741 213.4 174.424L222.462 179.481C222.462 179.481 224.505 171.433 229.17 169.074L222.084 163.139Z" fill="url(#paint12_linear_221_20731)"/>
<path d="M181.795 225.768C181.795 225.768 192.632 228.409 202.976 225.768C202.976 225.768 217.449 206.31 223.049 201.014C223.049 201.014 231.981 215.109 251.863 217.106L252.973 214.628C252.973 214.628 237.146 207.333 232.273 196.121C227.401 184.912 225.443 180.129 221.011 177.205C218.25 175.384 216.596 174.139 215.743 173.461C215.276 173.088 214.629 173.047 214.12 173.358C209.414 176.224 187.278 191.384 181.795 225.768Z" fill="#319AF0"/>
<path d="M222.461 201.138C222.133 201.138 221.809 200.99 221.593 200.709C218.108 196.164 216.165 191.153 216.084 190.942C215.869 190.379 216.149 189.748 216.713 189.532C217.277 189.317 217.908 189.598 218.123 190.159C218.142 190.207 220.04 195.094 223.325 199.38C223.693 199.859 223.601 200.544 223.123 200.909C222.927 201.064 222.694 201.138 222.461 201.138Z" fill="#2C89D6"/>
<path d="M250.666 213.335L252.905 212.739L259.7 211.166C260.518 210.977 261.377 211.122 262.089 211.568L267.931 215.243L251.797 215.215L250.666 213.335Z" fill="url(#paint13_linear_221_20731)"/>
<path d="M228.91 151.737C228.91 151.737 233.09 158.684 233.815 162.525C234.539 166.365 235.703 168.765 231.334 170.133C226.965 171.502 222.903 169.77 220.355 166.186C220.355 166.186 216.376 160.671 216.772 158.145C217.168 155.617 228.91 151.737 228.91 151.737Z" fill="url(#paint14_linear_221_20731)"/>
<path d="M221.52 163.212L222.085 163.138C222.085 163.138 219.126 158.667 221.063 157.557C222.999 156.448 230.891 153.726 232.259 150.619C233.58 147.623 231.604 144.24 229.222 143.533C229.072 143.487 228.913 143.576 228.858 143.724L228.719 144.1C228.623 144.359 228.262 144.37 228.151 144.118C228.047 143.878 227.703 143.868 227.597 144.107C227.174 145.038 225.908 146.629 222.114 147.858C216.729 149.603 213.376 152.318 213.789 156.143C213.815 156.385 213.574 156.552 213.352 156.454C212.912 156.261 212.244 156.23 211.47 157.077C210.123 158.55 211.178 161.774 214.857 164.054C215.031 164.163 215.064 164.409 214.907 164.544C214.357 165.016 213.582 166.067 216.071 167.002C218.619 167.96 220.007 167.636 220.521 167.431C220.66 167.374 220.739 167.233 220.71 167.087L220.055 163.734C220.021 163.56 220.14 163.395 220.316 163.371L221.52 163.212Z" fill="#1C3102"/>
<path d="M221.751 163.902C221.751 163.902 219.906 159.355 217.969 160.954C216.033 162.551 219.76 166.085 221.479 166.037L221.751 163.902Z" fill="url(#paint15_linear_221_20731)"/>
<path d="M244.435 218.409C244.461 218.411 244.487 218.411 244.514 218.411L278.98 218.376C279.833 218.376 280.522 217.684 280.52 216.835C280.52 215.985 279.826 215.282 278.975 215.297L244.509 215.332C243.656 215.332 242.967 216.022 242.969 216.872C242.971 217.695 243.619 218.367 244.435 218.409Z" fill="#1C3102"/>
<path d="M292.329 184.656C292.316 184.68 292.305 184.704 292.294 184.728L277.793 215.993C277.434 216.766 277.769 217.682 278.541 218.041C279.313 218.4 280.242 218.065 280.588 217.288L295.09 186.022C295.449 185.25 295.114 184.334 294.341 183.975C293.591 183.629 292.707 183.933 292.329 184.656Z" fill="#1C3102"/>
<path d="M382.579 249.831H378.941V289.171H382.579V249.831Z" fill="#35605A"/>
<path d="M396.692 289.928H364.832C364.832 288.62 365.892 287.561 367.199 287.561H394.324C395.632 287.561 396.692 288.62 396.692 289.928Z" fill="#35605A"/>
<path d="M401.419 248.464C401.419 250.616 399.659 252.376 397.507 252.376H365.273C363.122 252.376 361.361 250.616 361.361 248.464V244.927C361.361 242.775 363.122 241.015 365.273 241.015H397.507C399.659 241.015 401.419 242.775 401.419 244.927V248.464Z" fill="#35605A"/>
<path d="M353.905 223.6C353.905 223.6 348.5 224.437 342.421 228.499C341.464 229.139 340.939 230.253 341.083 231.395C341.81 237.159 344.804 255.816 354.668 274.04C355.188 275.002 355.339 276.12 355.108 277.189L353.393 285.165L350.215 288.146H358.402L363.855 273.392L361.524 272.654C359.716 272.082 358.476 270.42 358.443 268.525L358.169 252.698C358.402 245.647 353.846 240.782 353.846 240.782L366.922 240.146L353.905 223.6Z" fill="url(#paint16_linear_221_20731)"/>
<path d="M347.023 289.586C346.277 290.563 355.05 291.849 359.482 289.715C359.482 289.715 365.624 279.028 365.624 273.523C365.624 273.523 365.136 272.4 361.529 272.655C361.529 272.655 359.466 285.311 357.289 286.728C355.111 288.146 351.194 286.871 351.194 286.871C351.194 286.871 348.122 288.146 347.023 289.586Z" fill="#6CC551"/>
<path d="M365.272 241.015C365.203 240.895 351.193 239.331 351.193 239.331C351.193 239.331 351.652 243.591 350.218 249.454C348.785 255.318 328.217 280.722 328.217 280.722L330.373 287.558C323.705 289.882 317.145 290.252 310.691 288.742L324.057 280.722C324.057 280.722 336.566 238.095 344.229 230.488L358.271 225.63L365.272 241.015Z" fill="url(#paint17_linear_221_20731)"/>
<path d="M396.691 216.211C396.691 216.211 404.763 228.217 405.424 233.693C406.086 239.169 403.214 241.395 394.743 241.761C386.275 242.129 363.665 242.122 363.665 242.122L344.368 225.632C344.368 225.632 358.43 220.615 362.088 219.196C365.745 217.775 396.691 216.211 396.691 216.211Z" fill="#1C3102"/>
<path d="M329.56 285.256C329.56 285.256 331.882 287.506 330.313 290.008C330.313 290.008 311.919 293.269 306.926 291.79C306.926 291.79 307.964 289.422 313.586 286.729L313.17 287.047C312.646 287.449 312.953 288.289 313.614 288.252C317.319 288.041 324.989 287.362 329.56 285.256Z" fill="#6CC551"/>
<path d="M361.728 140.077C378.226 137.272 385.994 150.729 385.426 153.555C385.35 153.93 385.704 154.247 386.074 154.149C387.969 153.64 392.153 152.996 394.747 156.247C397.038 159.117 395.326 161.825 393.931 163.311C393.594 163.67 393.877 164.254 394.366 164.193C397.85 163.753 405.417 163.649 406.655 170.737C407.81 177.347 403.208 179.212 400.48 179.738C400.019 179.828 399.91 180.435 400.308 180.687C401.67 181.551 403.248 183.335 402.61 186.858C401.611 192.377 390.789 191.925 389.523 191.853C389.442 191.849 389.366 191.825 389.297 191.786L371.96 181.899C371.825 181.823 371.732 181.688 371.706 181.536L368.207 161.323C368.179 161.16 368.229 160.992 368.344 160.872L357.043 144.924C352.938 144.317 361.532 140.109 361.728 140.077Z" fill="#1C3102"/>
<path d="M374.861 214.622C374.861 214.622 365.461 205.671 360.836 199.745C358.336 196.54 357.55 192.321 358.706 188.424C360.818 181.307 364.571 173.938 364.915 172.789C365.44 171.031 375.979 171.103 375.979 171.103C375.979 171.103 396.718 184.562 404.866 207.362L395.715 210.21C395.715 210.21 390.3 201.126 384.95 195.35C384.95 195.35 394.207 207.58 394.534 212.586L374.861 214.622Z" fill="#319AF0"/>
<path d="M363.641 162.963C363.752 163.328 366.502 172.447 366.717 172.636C366.933 172.825 372.75 173.139 375.488 171.268L368.695 157.982L363.641 162.963Z" fill="url(#paint18_linear_221_20731)"/>
<path d="M352.614 151.245C352.614 151.245 351.285 156.469 354.962 163.494C358.639 170.52 362.803 170.513 365.079 168.263C367.355 166.014 370.162 162.197 369.496 155.405C368.828 148.614 354.533 144.6 352.614 151.245Z" fill="url(#paint19_linear_221_20731)"/>
<path d="M364.407 155.777C364.407 155.777 358.304 146.447 352.581 153.79L352.477 156.46C352.477 156.46 345.776 155.664 346.948 149.519C348.121 143.375 353.913 139.533 361.371 142.196C368.83 144.859 373.105 147.587 373.586 152.933C374.067 158.279 369.816 157.106 369.816 157.106C369.816 157.106 368.427 153.342 366.456 152.951C364.485 152.559 364.996 155.494 364.996 155.494L364.407 155.777Z" fill="#1C3102"/>
<path d="M366.621 157.173C366.621 157.173 363.456 152.395 366.7 151.684C369.944 150.972 369.439 156.338 369.089 158.324L366.621 157.173Z" fill="url(#paint20_linear_221_20731)"/>
<path d="M355.713 215.286L362.619 208.631L372.172 212.667C372.172 212.667 381.683 214.14 387.124 212.667C392.566 211.194 392.566 211.194 392.566 211.194L404.865 207.364L406.797 212.823C407.287 214.209 406.795 215.747 405.596 216.6C404.533 217.355 403.286 218.187 402.489 218.535C400.871 219.244 362.564 218.045 362.564 218.045L355.713 215.286Z" fill="url(#paint21_linear_221_20731)"/>
<path d="M381.848 218.426C381.818 218.428 381.787 218.428 381.757 218.428L341.697 218.385C340.707 218.385 339.904 217.58 339.906 216.59C339.906 215.6 340.713 214.782 341.701 214.799L381.761 214.843C382.751 214.843 383.554 215.648 383.552 216.638C383.55 217.595 382.795 218.378 381.848 218.426Z" fill="#1C3102"/>
<path d="M305.685 182.054H339.046C341.507 182.054 343.748 183.474 344.797 185.7L360.221 218.404H318.76C317.173 218.404 315.748 217.436 315.165 215.961L303.205 185.698C302.515 183.949 303.803 182.054 305.685 182.054Z" fill="#1C3102"/>
<path d="M329.188 198.822C329.91 201.067 329.377 203.25 327.995 203.694C326.614 204.137 324.908 202.677 324.183 200.432C323.461 198.187 323.994 196.004 325.376 195.561C326.76 195.115 328.465 196.577 329.188 198.822Z" fill="#DFF2D9"/>
<path d="M427.517 284.97C427.517 284.97 427.937 287.304 428.104 290.076C428.176 291.258 427.299 292.282 426.122 292.398C422.021 292.796 412.689 293.529 406.73 292.67C405.894 292.55 405.564 291.523 406.182 290.949C408.638 288.66 414.573 284.206 424.34 283.233L427.517 284.97Z" fill="#6CC551"/>
<path d="M429.556 279.706L427.482 284.787C427.197 285.483 426.492 285.916 425.744 285.838C425.237 285.785 424.634 285.688 424.051 285.509C422.88 285.154 422.221 283.914 422.571 282.742L424.136 277.509L429.556 279.706Z" fill="url(#paint22_linear_221_20731)"/>
<path d="M464.998 289.017C464.998 289.017 460.847 292.489 459.231 296.945C458.787 298.17 459.727 299.46 461.03 299.46H469.572C470.823 299.46 471.78 298.335 471.563 297.104C471.019 294.03 469.45 289.03 464.998 289.017Z" fill="#6CC551"/>
<path d="M470.142 284.495C470.142 284.495 469.305 288.207 468.659 290.659C468.541 291.105 468.067 291.349 467.634 291.194C466.341 290.733 465.288 290.529 464.525 290.631C464.172 290.679 463.863 290.385 463.859 290.028L463.778 283.864L470.142 284.495Z" fill="url(#paint23_linear_221_20731)"/>
<path d="M448.062 200.981L422.812 278.013C422.812 278.013 427.656 281.186 429.962 281.053L459.953 219.146C459.953 219.146 465.201 257.291 462.657 284.678L471.247 285.333C471.247 285.333 485.215 215.349 474.635 191.379L448.062 200.981Z" fill="#1C3102"/>
<path d="M459.792 218.48C459.803 218.48 459.812 218.48 459.823 218.478C459.957 218.461 460.051 218.339 460.034 218.204L459.055 210.426C459.037 210.293 458.918 210.199 458.78 210.215C458.646 210.232 458.552 210.354 458.569 210.489L459.548 218.267C459.566 218.389 459.673 218.48 459.792 218.48Z" fill="#0E1901"/>
<path d="M443.331 133.197C443.331 133.197 463.787 135.014 460.893 149.589C460.893 149.589 472.201 170.871 477.488 195.94C477.66 196.756 477.114 197.552 476.291 197.691L442.223 203.524C441.283 203.685 440.376 203.1 440.139 202.175L431.999 170.716L428.827 185.344L418.749 182.718L427.234 139.738C427.232 139.738 428.416 133.467 443.331 133.197Z" fill="#35605A"/>
<path d="M431.826 169.31C431.843 169.31 431.861 169.308 431.88 169.304C432.017 169.273 432.104 169.138 432.074 169.001L429.235 155.962C429.204 155.825 429.071 155.74 428.932 155.768C428.795 155.799 428.708 155.933 428.739 156.071L431.578 169.11C431.604 169.23 431.71 169.31 431.826 169.31Z" fill="#24423E"/>
<path d="M433.881 208.113C434.954 207.524 436.212 207.361 437.4 207.656L439.769 208.246C440.274 208.372 440.772 208.024 440.831 207.508L443.283 185.675C446.351 187.13 450.774 186.956 452.234 186.85L446.588 212.589H426.832L433.881 208.113Z" fill="url(#paint24_linear_221_20731)"/>
<path d="M381.389 160.755L381.985 158.771C382.329 157.629 383.173 156.704 384.28 156.26L395.081 151.917C395.081 151.917 395.244 150.531 392.798 149.591C390.353 148.649 390.925 145.912 390.925 145.912C390.925 145.912 394.265 147.435 399.156 149.852C401.952 151.234 403.523 153.675 404.354 155.512L428.827 185.346L425.953 187.319C422.176 189.915 416.978 188.64 414.83 184.591L401.573 159.169C394.918 161.166 388.181 161.547 381.389 160.755Z" fill="url(#paint25_linear_221_20731)"/>
<path d="M436.702 119.279L442.994 136.89C442.994 136.89 437.422 141.245 433.356 139.772L430.186 129.677C430.186 129.677 432.607 117.34 436.702 119.279Z" fill="url(#paint26_linear_221_20731)"/>
<path d="M426.72 106.969C426.552 107.208 421.422 125.796 421.422 125.796L432.098 128.5L439.579 111.606C439.576 111.603 429.531 102.979 426.72 106.969Z" fill="url(#paint27_linear_221_20731)"/>
<path d="M435.56 114.172L432.318 123.374C432.277 123.491 432.22 123.6 432.148 123.702C431.709 124.329 430.036 126.374 428.047 124.533C426.243 122.865 424.572 121.368 423.03 121.098C422.338 120.976 421.668 121.4 421.481 122.077C421.015 123.765 420.036 127.59 419.692 131.045C419.623 131.746 420.108 132.379 420.8 132.51C422.884 132.904 427.305 133.613 430.995 133.35C431.496 133.315 431.935 133.015 432.144 132.558C433.16 130.334 436.269 123.589 437.427 121.844C438.512 120.206 441.18 120.249 442.298 120.347C442.666 120.38 443.025 120.26 443.301 120.019C444.278 119.161 446.139 116.97 443.519 114.351C442.971 113.803 442.984 112.917 443.549 112.386C444.674 111.329 445.875 109.451 444 107.127C442.094 104.764 439.579 105.143 438.038 105.707C437.416 105.935 436.735 105.672 436.398 105.102C436.204 104.778 435.869 104.532 435.286 104.582C434.5 104.649 433.839 103.994 433.852 103.207C433.878 101.692 433.334 99.7776 430.706 98.9617C426.041 97.5148 423.139 102.021 422.851 105.382C422.566 108.744 427.712 110.025 430.736 109.797C433.036 109.623 434.746 111.901 435.434 113.004C435.651 113.357 435.695 113.785 435.56 114.172Z" fill="#1C3102"/>
<path d="M436.215 125.186C436.215 125.186 436.963 119.351 439.391 119.064C441.82 118.776 444.182 120.769 441.772 124.046C438.771 128.121 436.215 125.186 436.215 125.186Z" fill="url(#paint28_linear_221_20731)"/>
<path d="M450.25 187.178C451.647 187.178 452.643 187.071 452.75 187.06L452.93 187.041L460.38 152.309C460.41 152.172 460.321 152.037 460.186 152.009C460.047 151.978 459.914 152.067 459.886 152.202L452.515 186.573C451.405 186.671 445.487 187.062 442.36 184.85L448.814 154.676L447.467 152.137C447.402 152.013 447.247 151.965 447.123 152.033C446.999 152.098 446.951 152.252 447.019 152.376L448.278 154.752L441.797 185.065L441.925 185.163C444.184 186.858 447.822 187.178 450.25 187.178Z" fill="#24423E"/>
<path d="M226.929 293.068C226.757 293.068 226.583 293.031 226.418 292.953C225.758 292.644 225.456 291.811 225.739 291.093L252.96 222.025C253.243 221.307 254.006 220.974 254.666 221.283C255.325 221.592 255.627 222.426 255.344 223.144L228.123 292.211C227.912 292.748 227.434 293.068 226.929 293.068Z" fill="#35605A"/>
<path d="M257.596 293.068C257.093 293.068 256.615 292.748 256.404 292.21L229.183 223.143C228.9 222.425 229.205 221.592 229.862 221.283C230.519 220.974 231.282 221.304 231.567 222.025L258.788 291.092C259.071 291.81 258.767 292.643 258.109 292.952C257.94 293.031 257.766 293.068 257.596 293.068Z" fill="#35605A"/>
<path d="M411.668 293.068C411.496 293.068 411.322 293.031 411.157 292.953C410.498 292.644 410.195 291.811 410.478 291.093L437.699 222.025C437.982 221.307 438.746 220.974 439.405 221.283C440.064 221.592 440.366 222.426 440.084 223.144L412.863 292.211C412.652 292.748 412.173 293.068 411.668 293.068Z" fill="#35605A"/>
<path d="M442.333 293.068C441.831 293.068 441.352 292.748 441.141 292.21L413.92 223.143C413.637 222.425 413.942 221.592 414.599 221.283C415.256 220.974 416.02 221.304 416.305 222.025L443.526 291.092C443.809 291.81 443.504 292.643 442.847 292.952C442.679 293.031 442.505 293.068 442.333 293.068Z" fill="#35605A"/>
<path d="M407.72 217.148H447.145V213.079H407.72C408.564 213.079 408.564 217.148 407.72 217.148Z" fill="#DFF2D9"/>
<path d="M446.927 217.147C447.047 217.147 447.145 217.049 447.145 216.93V213.296C447.145 213.176 447.047 213.079 446.927 213.079H406.734C406.615 213.079 406.517 212.981 406.517 212.861V212.376C406.517 212.256 406.615 212.158 406.734 212.158H449.401C450.341 212.158 451.104 212.92 451.104 213.862V216.462C451.104 217.347 450.386 218.068 449.499 218.068H406.734C406.615 218.068 406.517 217.97 406.517 217.85V217.365C406.517 217.245 406.615 217.147 406.734 217.147H446.927Z" fill="#6CC551"/>
<path d="M452.86 219.888C452.993 219.433 452.812 218.963 452.368 218.606C451.924 218.25 451.263 218.043 450.567 218.043H214.334C213.415 218.043 212.562 218.354 212.069 218.865C211.575 219.379 211.507 220.023 211.892 220.573L214.453 224.248C215.039 225.09 216.309 225.628 217.708 225.628H448.946C450.247 225.628 451.363 225.016 451.611 224.17L452.86 219.888Z" fill="#35605A"/>
<path d="M122.615 235.043L126.669 268.76C126.921 270.867 129.025 272.492 131.59 272.568L193.18 274.369C195.743 274.443 197.975 272.951 198.415 270.869C200.003 263.341 203.214 245.778 201.334 234.325C201.019 232.397 199.161 230.887 196.813 230.672C172.166 228.407 148.714 228.024 127.034 230.434C124.297 230.739 122.341 232.776 122.615 235.043Z" fill="#35605A"/>
<path d="M126.512 236.79L130.245 267.849C130.478 269.787 132.417 271.287 134.779 271.356L191.512 273.016C193.873 273.086 195.931 271.709 196.336 269.792C197.8 262.858 200.757 246.679 199.025 236.128C198.734 234.351 197.023 232.961 194.861 232.763C172.157 230.676 150.554 230.324 130.582 232.545C128.061 232.828 126.261 234.703 126.512 236.79Z" fill="#BEE5B2"/>
<path d="M193.933 255.19C193.802 255.19 193.672 255.179 193.541 255.155C174.701 251.75 136.432 252.407 136.047 252.414C134.828 252.453 133.839 251.474 133.817 250.264C133.795 249.055 134.757 248.056 135.966 248.034C137.553 248.004 175.056 247.362 194.32 250.845C195.51 251.061 196.302 252.201 196.087 253.391C195.895 254.448 194.973 255.19 193.933 255.19Z" fill="#DFF2D9"/>
<path d="M177.754 269.192C177.577 269.192 177.399 269.17 177.218 269.124C163.772 265.752 136.336 266.404 136.06 266.413C134.863 266.457 133.845 265.488 133.814 264.279C133.784 263.069 134.739 262.064 135.949 262.033C137.097 262.005 164.264 261.357 178.285 264.875C179.457 265.169 180.171 266.359 179.877 267.534C179.629 268.528 178.735 269.192 177.754 269.192Z" fill="#DFF2D9"/>
<path d="M193.933 262.744C193.802 262.744 193.672 262.733 193.541 262.709C174.699 259.302 136.43 259.961 136.047 259.968C136.034 259.968 136.019 259.968 136.006 259.968C134.813 259.968 133.839 259.013 133.817 257.816C133.795 256.606 134.757 255.608 135.966 255.586C137.553 255.558 175.056 254.914 194.32 258.397C195.51 258.612 196.302 259.753 196.087 260.943C195.895 262 194.973 262.744 193.933 262.744Z" fill="#DFF2D9"/>
<path d="M97.7049 200.369L102.209 245.838C102.489 248.678 104.826 250.871 107.676 250.971L176.108 253.401C178.954 253.501 181.437 251.489 181.926 248.682C183.691 238.532 187.259 214.847 185.17 199.401C184.818 196.801 182.755 194.764 180.147 194.473C152.76 191.418 126.703 190.902 102.616 194.155C99.5738 194.566 97.4024 197.312 97.7049 200.369Z" fill="#35605A"/>
<path d="M102.034 202.725L106.183 244.611C106.442 247.226 108.594 249.245 111.22 249.339L174.256 251.578C176.878 251.671 179.164 249.815 179.615 247.23C181.242 237.879 184.525 216.063 182.604 201.835C182.28 199.44 180.381 197.564 177.976 197.297C152.751 194.484 128.745 194.007 106.557 197.003C103.755 197.382 101.755 199.91 102.034 202.725Z" fill="#DFF2D9"/>
<path d="M114.294 213.546C112.658 213.546 111.272 212.286 111.142 210.628C111.005 208.885 112.308 207.362 114.051 207.227C115.939 207.079 160.403 203.631 170.161 204.936C171.893 205.167 173.11 206.759 172.879 208.491C172.646 210.223 171.053 211.439 169.322 211.209C161.769 210.197 127.218 212.547 114.542 213.537C114.46 213.541 114.377 213.546 114.294 213.546Z" fill="white"/>
<path d="M114.937 225.293C113.251 225.293 111.85 223.963 111.778 222.262C111.704 220.515 113.06 219.04 114.807 218.968L158.22 217.138C159.965 217.06 161.442 218.42 161.514 220.167C161.588 221.914 160.232 223.389 158.485 223.461L115.072 225.291C115.027 225.291 114.981 225.293 114.937 225.293Z" fill="white"/>
<path d="M115.481 235.242C113.764 235.242 112.356 233.869 112.317 232.146C112.28 230.399 113.666 228.952 115.413 228.913L134.68 228.495C136.44 228.438 137.874 229.844 137.913 231.591C137.95 233.338 136.564 234.785 134.817 234.824L115.55 235.242C115.526 235.242 115.505 235.242 115.481 235.242Z" fill="white"/>
<path d="M233.09 124.875C227.435 124.875 221.271 124.44 217.196 123.611C214.122 122.986 212.507 122.208 212.262 121.231C211.411 117.863 208.635 92.602 213.223 88.6335C213.28 88.5834 213.352 88.5595 213.428 88.5617C217.231 88.6966 250.638 89.9585 252.683 92.6434C254.896 95.5502 248.817 120.225 246.726 122.982C245.753 124.266 239.776 124.875 233.09 124.875ZM213.53 89.1622C209.57 92.948 211.839 117.121 212.84 121.085C212.923 121.411 213.524 122.255 217.316 123.028C226.356 124.866 244.746 124.61 246.251 122.623C247.233 121.329 249.204 114.766 250.736 107.684C252.437 99.8234 253.016 94.062 252.209 93.0046C250.796 91.1486 228.351 89.6909 213.53 89.1622Z" fill="#447604"/>
<path d="M221.232 118.089H218.551C218.223 118.089 217.955 117.821 217.955 117.493V109.473C217.955 109.145 218.223 108.877 218.551 108.877H221.232C221.56 108.877 221.828 109.145 221.828 109.473V117.493C221.828 117.824 221.562 118.089 221.232 118.089ZM219.147 116.899H220.636V110.071H219.147V116.899Z" fill="#447604"/>
<path d="M226.517 118.089H222.853C222.524 118.089 222.257 117.821 222.257 117.493V104.255C222.257 103.927 222.524 103.659 222.853 103.659H226.517C226.845 103.659 227.113 103.927 227.113 104.255V117.493C227.111 117.823 226.845 118.089 226.517 118.089ZM223.447 116.899H225.919V104.854H223.447V116.899Z" fill="#447604"/>
<path d="M233.421 118.089H228.336C228.008 118.089 227.74 117.822 227.74 117.493V101.456C227.74 101.127 228.008 100.859 228.336 100.859H233.421C233.75 100.859 234.017 101.127 234.017 101.456V117.493C234.017 117.824 233.75 118.089 233.421 118.089ZM228.933 116.899H232.827V102.052H228.933V116.899Z" fill="#447604"/>
<path d="M242.626 118.089H236.536C236.207 118.089 235.939 117.821 235.939 117.493V98.0893C235.939 97.7608 236.207 97.4932 236.536 97.4932H242.626C242.954 97.4932 243.222 97.7608 243.222 98.0893V117.493C243.222 117.823 242.954 118.089 242.626 118.089ZM237.132 116.899H242.029V98.6877H237.132V116.899Z" fill="#447604"/>
<path d="M495.82 93.2425L493.781 125.829H505.996V94.1519C505.996 93.2403 505.415 92.4331 504.553 92.1394C502.937 91.5867 500.189 90.897 497.491 91.3779C496.568 91.541 495.879 92.3113 495.82 93.2425Z" fill="#1C3102"/>
<path d="M480.525 93.0857L481.881 125.798H493.451L494.328 92.7202C494.352 91.8107 493.771 90.9882 492.901 90.7272C489.139 89.5979 485.401 89.487 481.709 91.1732C480.962 91.5126 480.492 92.2654 480.525 93.0857Z" fill="#6B818C"/>
<path d="M483.629 115.324L483.718 116.464C483.744 116.81 484.042 117.071 484.388 117.049L490.45 116.697C490.768 116.677 491.024 116.427 491.048 116.109L491.107 115.322C491.135 114.952 490.844 114.639 490.472 114.639H484.264C483.892 114.639 483.601 114.954 483.629 115.324Z" fill="#D9E8D4"/>
<path d="M483.879 118.051V118.466C483.879 118.788 484.147 119.045 484.469 119.032L490.273 118.79C490.576 118.777 490.815 118.529 490.815 118.225V117.783C490.815 117.461 490.545 117.204 490.223 117.219L484.418 117.487C484.116 117.498 483.879 117.748 483.879 118.051Z" fill="#D9E8D4"/>
<path d="M491.831 93.2162C491.601 92.9638 491.283 92.8267 490.959 92.842L483.879 93.1683C483.239 93.1988 482.741 93.7884 482.756 94.4955L483.12 110.74C483.135 111.414 483.613 111.963 484.223 112.002L490.458 112.404C490.774 112.424 491.083 112.302 491.318 112.067C491.551 111.832 491.688 111.501 491.698 111.151L492.179 94.1801C492.188 93.8189 492.062 93.4708 491.831 93.2162Z" fill="#D9E8D4"/>
<path d="M497.393 116.559L497.469 117.699C497.491 118.045 497.746 118.304 498.042 118.285L503.209 117.932C503.481 117.913 503.698 117.663 503.718 117.345L503.768 116.557C503.792 116.187 503.542 115.874 503.226 115.874H497.933C497.617 115.874 497.369 116.19 497.393 116.559Z" fill="#6B818C"/>
<path d="M497.606 119.284V119.7C497.606 120.022 497.835 120.278 498.109 120.265L503.059 120.024C503.318 120.011 503.52 119.763 503.52 119.458V119.016C503.52 118.694 503.292 118.438 503.015 118.453L498.065 118.72C497.809 118.733 497.606 118.982 497.606 119.284Z" fill="#6B818C"/>
<path d="M503.142 94.032L499.11 93.5708C498.673 93.5207 498.235 93.6556 497.902 93.9428C497.57 94.23 497.374 94.6434 497.358 95.0829L496.878 110.738C496.865 111.17 497.03 111.588 497.335 111.895C497.639 112.202 498.059 112.369 498.492 112.356L502.326 112.252C503.15 112.23 503.816 111.575 503.853 110.751L504.532 95.6639C504.569 94.8392 503.962 94.1278 503.142 94.032Z" fill="#6B818C"/>
<path d="M522.377 93.2425L520.338 125.829H532.553V94.1519C532.553 93.2403 531.972 92.4331 531.11 92.1394C529.493 91.5867 526.745 90.897 524.048 91.3779C523.127 91.541 522.435 92.3113 522.377 93.2425Z" fill="#1C3102"/>
<path d="M507.084 93.0857L508.439 125.798H520.01L520.887 92.7202C520.911 91.8107 520.33 90.9882 519.459 90.7272C515.698 89.5979 511.96 89.487 508.267 91.1732C507.519 91.5126 507.049 92.2654 507.084 93.0857Z" fill="#6B818C"/>
<path d="M510.188 115.324L510.277 116.464C510.303 116.81 510.601 117.071 510.947 117.049L517.009 116.697C517.327 116.677 517.583 116.427 517.607 116.109L517.666 115.322C517.694 114.952 517.403 114.639 517.033 114.639H510.825C510.451 114.639 510.157 114.954 510.188 115.324Z" fill="#D9E8D4"/>
<path d="M510.438 118.051V118.466C510.438 118.788 510.705 119.045 511.027 119.032L516.832 118.79C517.134 118.777 517.374 118.529 517.374 118.225V117.783C517.374 117.461 517.104 117.204 516.782 117.219L510.977 117.487C510.675 117.498 510.438 117.748 510.438 118.051Z" fill="#D9E8D4"/>
<path d="M518.388 93.2162C518.157 92.9638 517.84 92.8267 517.515 92.842L510.436 93.1683C509.796 93.1988 509.298 93.7884 509.313 94.4955L509.676 110.74C509.691 111.414 510.17 111.963 510.779 112.002L517.015 112.404C517.33 112.424 517.639 112.302 517.874 112.067C518.107 111.832 518.244 111.501 518.255 111.151L518.736 94.1801C518.745 93.8189 518.621 93.4708 518.388 93.2162Z" fill="#D9E8D4"/>
<path d="M523.95 116.559L524.026 117.699C524.048 118.045 524.302 118.304 524.598 118.285L529.765 117.932C530.037 117.913 530.255 117.662 530.274 117.345L530.325 116.557C530.348 116.187 530.098 115.874 529.783 115.874H524.489C524.176 115.874 523.926 116.189 523.95 116.559Z" fill="#6B818C"/>
<path d="M524.163 119.284V119.699C524.163 120.021 524.392 120.278 524.666 120.265L529.616 120.024C529.875 120.011 530.077 119.762 530.077 119.458V119.016C530.077 118.694 529.848 118.437 529.572 118.453L524.622 118.72C524.365 118.733 524.163 118.981 524.163 119.284Z" fill="#6B818C"/>
<path d="M529.698 94.0319L525.667 93.5707C525.229 93.5206 524.792 93.6555 524.459 93.9427C524.126 94.2299 523.93 94.6433 523.915 95.0828L523.434 110.737C523.421 111.17 523.587 111.588 523.891 111.895C524.196 112.202 524.616 112.369 525.049 112.356L528.883 112.252C529.707 112.23 530.373 111.575 530.41 110.75L531.089 95.6637C531.128 94.8391 530.519 94.1277 529.698 94.0319Z" fill="#6B818C"/>
<path d="M542.845 125.793C542.845 124.838 542.071 124.062 541.114 124.062H473.001C472.046 124.062 471.27 124.836 471.27 125.793V127.199C471.27 128.154 472.044 128.931 473.001 128.931H541.114C542.071 128.931 542.845 128.156 542.845 127.199V125.793Z" fill="#1C3102"/>
<path d="M480.794 167.546C480.013 167.546 479.249 167.246 478.677 166.706C478.061 166.125 477.709 165.31 477.709 164.463V145.911C477.709 145.373 478.144 144.936 478.684 144.936C479.221 144.936 479.658 145.371 479.658 145.911V164.463C479.658 164.779 479.785 165.072 480.015 165.29C480.246 165.508 480.546 165.619 480.862 165.597L502.848 164.287C503.446 164.25 503.916 163.754 503.916 163.153V144.938C503.916 144.614 503.783 144.316 503.542 144.096C503.3 143.876 502.991 143.776 502.667 143.807L484.378 145.619C483.788 145.678 483.536 146.102 483.453 146.283C483.372 146.463 483.22 146.933 483.568 147.414L490.544 157.042C490.757 157.338 491.09 157.507 491.453 157.512C491.832 157.527 492.152 157.348 492.371 157.057L500.056 146.82C500.378 146.389 500.99 146.302 501.42 146.626C501.851 146.948 501.938 147.56 501.614 147.991L493.929 158.23C493.34 159.015 492.443 159.461 491.464 159.461C491.455 159.461 491.447 159.461 491.436 159.461C490.446 159.452 489.547 158.989 488.966 158.188L481.991 148.561C481.336 147.656 481.216 146.507 481.675 145.486C482.134 144.466 483.072 143.794 484.184 143.683L502.473 141.87C503.339 141.785 504.203 142.07 504.847 142.653C505.491 143.237 505.861 144.07 505.861 144.938V163.153C505.861 164.781 504.588 166.134 502.961 166.23L480.975 167.54C480.916 167.544 480.855 167.546 480.794 167.546Z" fill="#447604"/>
</g>
<defs>
<linearGradient id="paint0_linear_221_20731" x1="281.132" y1="279.261" x2="287.003" y2="279.317" gradientUnits="userSpaceOnUse">
<stop stop-color="#FF928E"/>
<stop offset="1" stop-color="#FEB3B1"/>
</linearGradient>
<linearGradient id="paint1_linear_221_20731" x1="259.975" y1="278.758" x2="265.044" y2="278.807" gradientUnits="userSpaceOnUse">
<stop stop-color="#FF928E"/>
<stop offset="1" stop-color="#FEB3B1"/>
</linearGradient>
<linearGradient id="paint2_linear_221_20731" x1="306.754" y1="126.319" x2="336.75" y2="126.604" gradientUnits="userSpaceOnUse">
<stop stop-color="#FF928E"/>
<stop offset="1" stop-color="#FEB3B1"/>
</linearGradient>
<linearGradient id="paint3_linear_221_20731" x1="330.116" y1="121.513" x2="309.553" y2="167.117" gradientUnits="userSpaceOnUse">
<stop stop-color="#FF928E"/>
<stop offset="1" stop-color="#FEB3B1"/>
</linearGradient>
<linearGradient id="paint4_linear_221_20731" x1="336.798" y1="106.325" x2="345.32" y2="93.4919" gradientUnits="userSpaceOnUse">
<stop stop-color="#FF928E"/>
<stop offset="1" stop-color="#FEB3B1"/>
</linearGradient>
<linearGradient id="paint5_linear_221_20731" x1="240.713" y1="168.179" x2="278.672" y2="168.54" gradientUnits="userSpaceOnUse">
<stop stop-color="#FF928E"/>
<stop offset="1" stop-color="#FEB3B1"/>
</linearGradient>
<linearGradient id="paint6_linear_221_20731" x1="280.807" y1="118.655" x2="273.409" y2="146.287" gradientUnits="userSpaceOnUse">
<stop stop-color="#FF928E"/>
<stop offset="1" stop-color="#FEB3B1"/>
</linearGradient>
<linearGradient id="paint7_linear_221_20731" x1="1363.03" y1="241.748" x2="1338.86" y2="238.913" gradientUnits="userSpaceOnUse">
<stop stop-color="#FF928E"/>
<stop offset="1" stop-color="#FEB3B1"/>
</linearGradient>
<linearGradient id="paint8_linear_221_20731" x1="1362.7" y1="244.523" x2="1338.53" y2="241.688" gradientUnits="userSpaceOnUse">
<stop stop-color="#FF928E"/>
<stop offset="1" stop-color="#FEB3B1"/>
</linearGradient>
<linearGradient id="paint9_linear_221_20731" x1="274.498" y1="167.149" x2="286.366" y2="167.149" gradientUnits="userSpaceOnUse">
<stop stop-color="#FF928E"/>
<stop offset="1" stop-color="#FEB3B1"/>
</linearGradient>
<linearGradient id="paint10_linear_221_20731" x1="231.052" y1="281.813" x2="237.312" y2="281.813" gradientUnits="userSpaceOnUse">
<stop stop-color="#FF928E"/>
<stop offset="1" stop-color="#FEB3B1"/>
</linearGradient>
<linearGradient id="paint11_linear_221_20731" x1="260.702" y1="282.34" x2="268.175" y2="282.34" gradientUnits="userSpaceOnUse">
<stop stop-color="#FF928E"/>
<stop offset="1" stop-color="#FEB3B1"/>
</linearGradient>
<linearGradient id="paint12_linear_221_20731" x1="228.572" y1="163.394" x2="212.471" y2="183.629" gradientUnits="userSpaceOnUse">
<stop stop-color="#FF928E"/>
<stop offset="1" stop-color="#FEB3B1"/>
</linearGradient>
<linearGradient id="paint13_linear_221_20731" x1="250.667" y1="213.164" x2="267.929" y2="213.164" gradientUnits="userSpaceOnUse">
<stop stop-color="#FF928E"/>
<stop offset="1" stop-color="#FEB3B1"/>
</linearGradient>
<linearGradient id="paint14_linear_221_20731" x1="132.51" y1="13.7029" x2="151.9" y2="44.2852" gradientUnits="userSpaceOnUse">
<stop stop-color="#FF928E"/>
<stop offset="1" stop-color="#FEB3B1"/>
</linearGradient>
<linearGradient id="paint15_linear_221_20731" x1="127.021" y1="17.1836" x2="146.411" y2="47.766" gradientUnits="userSpaceOnUse">
<stop stop-color="#FF928E"/>
<stop offset="1" stop-color="#FEB3B1"/>
</linearGradient>
<linearGradient id="paint16_linear_221_20731" x1="370.675" y1="248.918" x2="308.013" y2="277.203" gradientUnits="userSpaceOnUse">
<stop stop-color="#FF928E"/>
<stop offset="1" stop-color="#FEB3B1"/>
</linearGradient>
<linearGradient id="paint17_linear_221_20731" x1="295.094" y1="192.636" x2="310.759" y2="218.31" gradientUnits="userSpaceOnUse">
<stop stop-color="#FF928E"/>
<stop offset="1" stop-color="#FEB3B1"/>
</linearGradient>
<linearGradient id="paint18_linear_221_20731" x1="364.242" y1="157.22" x2="374.468" y2="179.195" gradientUnits="userSpaceOnUse">
<stop stop-color="#FF928E"/>
<stop offset="1" stop-color="#FEB3B1"/>
</linearGradient>
<linearGradient id="paint19_linear_221_20731" x1="522.286" y1="249.648" x2="499.725" y2="236.909" gradientUnits="userSpaceOnUse">
<stop stop-color="#FF928E"/>
<stop offset="1" stop-color="#FEB3B1"/>
</linearGradient>
<linearGradient id="paint20_linear_221_20731" x1="525.57" y1="243.833" x2="503.01" y2="231.094" gradientUnits="userSpaceOnUse">
<stop stop-color="#FF928E"/>
<stop offset="1" stop-color="#FEB3B1"/>
</linearGradient>
<linearGradient id="paint21_linear_221_20731" x1="367.893" y1="148.648" x2="371.809" y2="167.795" gradientUnits="userSpaceOnUse">
<stop stop-color="#FF928E"/>
<stop offset="1" stop-color="#FEB3B1"/>
</linearGradient>
<linearGradient id="paint22_linear_221_20731" x1="425.283" y1="287.214" x2="427.143" y2="272.673" gradientUnits="userSpaceOnUse">
<stop stop-color="#FF928E"/>
<stop offset="1" stop-color="#FEB3B1"/>
</linearGradient>
<linearGradient id="paint23_linear_221_20731" x1="465.934" y1="292.198" x2="467.746" y2="278.028" gradientUnits="userSpaceOnUse">
<stop stop-color="#FF928E"/>
<stop offset="1" stop-color="#FEB3B1"/>
</linearGradient>
<linearGradient id="paint24_linear_221_20731" x1="452.236" y1="199.133" x2="426.834" y2="199.133" gradientUnits="userSpaceOnUse">
<stop stop-color="#FF928E"/>
<stop offset="1" stop-color="#FEB3B1"/>
</linearGradient>
<linearGradient id="paint25_linear_221_20731" x1="428.827" y1="167.289" x2="381.39" y2="167.289" gradientUnits="userSpaceOnUse">
<stop stop-color="#FF928E"/>
<stop offset="1" stop-color="#FEB3B1"/>
</linearGradient>
<linearGradient id="paint26_linear_221_20731" x1="445.904" y1="140.684" x2="429.394" y2="123.746" gradientUnits="userSpaceOnUse">
<stop stop-color="#FF928E"/>
<stop offset="1" stop-color="#FEB3B1"/>
</linearGradient>
<linearGradient id="paint27_linear_221_20731" x1="506.254" y1="101.838" x2="364.394" y2="130.559" gradientUnits="userSpaceOnUse">
<stop stop-color="#FF928E"/>
<stop offset="1" stop-color="#FEB3B1"/>
</linearGradient>
<linearGradient id="paint28_linear_221_20731" x1="443.328" y1="147.182" x2="439.31" y2="122.081" gradientUnits="userSpaceOnUse">
<stop stop-color="#FF928E"/>
<stop offset="1" stop-color="#FEB3B1"/>
</linearGradient>
<clipPath id="clip0_221_20731">
<rect width="679" height="300" rx="16" fill="white"/>
</clipPath>
</defs>
</svg>
