<svg width="380" height="258" viewBox="0 0 380 258" fill="none" xmlns="http://www.w3.org/2000/svg">
<g clip-path="url(#clip0_199_17559)">
<path d="M180.054 236.655C180.054 236.655 56.3036 238.039 21.8342 206.896C-12.6352 175.753 0.33933 144.704 26.7318 135.909C53.1244 127.112 57.6271 117.966 43.4244 105.628C29.2233 93.2889 11.1855 67.9623 41.1337 42.5102C71.0836 17.0597 105.255 53.6173 132.022 48.7632C158.79 43.909 148.188 27.5595 183.389 38.8507C218.589 50.142 210.827 17.2672 239.127 14.2871C267.425 11.307 264.525 48.4804 293.632 34.4483C322.74 20.4163 346.548 22.3523 359.062 44.6369C371.576 66.9215 366.14 96.935 338.687 114.822C311.233 132.71 314.18 131.49 324.44 149.066C334.701 166.642 343.9 224.443 297.193 232.699C250.482 240.955 180.054 236.655 180.054 236.655Z" fill="#DFF2D9"/>
<path d="M104.087 223.962C104.452 223.455 104.109 222.733 103.49 222.712C96.5206 222.467 67.3856 219.919 68.5167 194.373C69.8018 165.365 71.9386 157.111 58.3315 147.215C45.9426 138.206 35.063 139.426 26.5929 143.589C26.0023 143.88 26.2131 144.789 26.8707 144.784C32.5364 144.741 45.5176 145.689 50.3182 154.855C56.5344 166.727 56.004 196.264 68.6991 210.152C81.242 223.873 91.9593 223.455 103.42 224.273C103.681 224.295 103.933 224.176 104.087 223.962Z" fill="#BEE5B2"/>
<path d="M10.5173 127.068C9.81286 126.476 9.96178 125.328 10.7934 124.93C13.0841 123.837 17.1903 121.352 21.2346 116.279C25.2906 111.191 35.5745 100.416 51.8823 106.643C68.19 112.869 68.3991 143.594 66.4949 173.465C64.5908 203.336 95.6667 219.927 95.6667 219.927L103.899 224.963C103.899 224.963 73.3838 214.155 65.3354 190.069C57.2869 165.982 65.1814 132.403 45.8116 129.468C27.2199 126.653 22.6786 137.284 10.5173 127.068Z" fill="#82CD6B"/>
<path d="M1.27726 159.796C0.253215 160.008 -0.442866 158.788 0.248195 157.987C4.20883 153.399 12.945 145.207 23.3728 147.392C37.6659 150.387 47.0462 158.835 56.5755 184.637C65.8371 209.714 95.0056 223.141 103.24 224.848C103.621 224.926 103.891 225.271 103.879 225.669C103.864 226.188 103.387 226.568 102.892 226.452C97.134 225.109 66.9515 217.686 53.0282 206.711C38.4105 195.185 21.047 155.688 1.27726 159.796Z" fill="#BEE5B2"/>
<path d="M10.9743 154.242C13.4741 153.618 16.0443 153.517 18.5893 153.722C19.2268 153.762 19.8593 153.857 20.4918 153.939C21.121 154.05 21.7535 154.145 22.3759 154.297C23.6292 154.557 24.849 154.955 26.0538 155.385C30.8561 157.187 35.1263 160.261 38.5849 164.017C42.0553 167.784 44.761 172.168 46.9914 176.736C47.5252 177.887 48.049 179.055 48.5593 180.209C49.0646 181.361 49.5398 182.527 50.077 183.665L50.8634 185.38L51.6883 187.075C52.2254 188.211 52.8278 189.315 53.4018 190.433C54.6048 192.639 55.8548 194.819 57.2335 196.914C58.6157 199.007 60.0932 201.035 61.6945 202.961C64.9005 206.809 68.6285 210.22 72.8 213.004C74.8815 214.401 77.0618 215.653 79.304 216.789C81.5462 217.923 83.8469 218.947 86.1745 219.915C90.8312 221.842 95.6067 223.492 100.357 225.205C100.421 225.227 100.452 225.297 100.431 225.361C100.409 225.423 100.34 225.455 100.278 225.435C97.879 224.647 95.4795 223.858 93.0918 223.033C90.7023 222.212 88.3213 221.362 85.9636 220.438C81.2517 218.603 76.6335 216.434 72.3716 213.651C68.1132 210.874 64.2446 207.469 60.98 203.56C59.3419 201.611 57.8326 199.561 56.422 197.446C55.0131 195.329 53.7381 193.132 52.5132 190.91C51.9276 189.786 51.3152 188.673 50.7663 187.53L49.9264 185.823L49.1249 184.1C48.5777 182.955 48.0941 181.784 47.5788 180.628C47.0667 179.473 46.5648 178.332 46.041 177.193C43.8641 172.688 41.2237 168.376 37.8537 164.69C36.1637 162.859 34.3248 161.163 32.3018 159.709C30.2822 158.253 28.0885 157.04 25.7727 156.124C24.6081 155.688 23.4251 155.291 22.212 155.002C21.6096 154.838 20.9955 154.731 20.3848 154.605C19.769 154.51 19.1532 154.401 18.5324 154.346C17.2925 154.21 16.0409 154.157 14.791 154.202C13.5478 154.25 12.2844 154.361 11.083 154.632L11.068 154.635C10.9592 154.66 10.8521 154.592 10.827 154.483C10.8036 154.374 10.8689 154.269 10.9743 154.242Z" fill="#49800E"/>
<path d="M12.115 125.601C12.9499 125.741 13.8234 125.745 14.6751 125.688C15.5301 125.624 16.3785 125.49 17.2051 125.271C18.8599 124.836 20.4211 124.097 21.8183 123.128C22.5177 122.644 23.177 122.102 23.7994 121.523C24.4152 120.936 24.9925 120.308 25.5313 119.647C25.7957 119.314 26.0584 118.978 26.3093 118.633L27.0556 117.566C27.576 116.831 28.1583 116.154 28.7707 115.506C29.9972 114.216 31.366 113.07 32.8267 112.061C34.2909 111.057 35.8453 110.172 37.4968 109.487C39.1467 108.806 40.8819 108.296 42.6756 108.077C43.5708 107.965 44.4761 107.921 45.383 107.956C46.2899 107.998 47.1934 108.129 48.0786 108.338C48.5237 108.436 48.9554 108.577 49.3905 108.714C49.8171 108.875 50.2438 109.03 50.6538 109.226C51.477 109.608 52.2752 110.053 53.0081 110.583C54.4939 111.621 55.769 112.919 56.8683 114.326C59.0503 117.168 60.5529 120.42 61.6857 123.745C62.2579 125.408 62.7281 127.103 63.128 128.81C63.5363 130.515 63.8659 132.235 64.1454 133.962C64.6825 137.418 65.0556 140.893 65.2414 144.375C65.2464 144.465 65.1778 144.541 65.0874 144.546C65.0004 144.551 64.9268 144.485 64.9167 144.402C64.5336 140.945 64.0751 137.498 63.4024 134.094C63.0628 132.394 62.703 130.699 62.2512 129.029C61.8045 127.359 61.3192 125.7 60.7252 124.083C59.5439 120.855 58.0496 117.718 55.9497 115.046C55.4142 114.39 54.8604 113.749 54.2496 113.172C53.6523 112.579 52.9997 112.047 52.317 111.567C51.6377 111.079 50.9048 110.675 50.1501 110.327C49.7736 110.148 49.3821 110.008 48.9939 109.862C48.5973 109.738 48.2008 109.611 47.7958 109.522C46.9876 109.332 46.1594 109.221 45.3278 109.174C44.4945 109.138 43.6562 109.174 42.8229 109.273C41.1546 109.467 39.5165 109.939 37.947 110.577C34.8079 111.862 31.9165 113.816 29.5053 116.219C28.9063 116.823 28.3374 117.457 27.837 118.133L27.0623 119.189C26.7929 119.542 26.5135 119.888 26.2257 120.226C25.6434 120.897 25.0193 121.535 24.3566 122.129C23.6857 122.714 22.9795 123.26 22.2316 123.744C20.729 124.701 19.0624 125.398 17.3289 125.777C15.5954 126.146 13.8 126.232 12.0564 125.855C11.9861 125.84 11.941 125.77 11.956 125.698C11.9711 125.629 12.038 125.584 12.1066 125.596L12.115 125.601Z" fill="#49800E"/>
<path d="M29.287 148.649L143.74 146.715C148.349 146.636 152.047 150.589 151.774 155.299L147.835 223.048C147.619 226.756 144.637 229.661 141.008 229.696L30.9904 230.784C28.273 230.81 26.0274 228.62 25.9237 225.839L23.2916 155.132C23.1611 151.631 25.8668 148.706 29.287 148.649Z" fill="#6B818C"/>
<path d="M31.0413 150.375L142.508 148.534C146.996 148.461 150.598 152.22 150.33 156.702L146.494 221.158C146.285 224.685 143.38 227.449 139.846 227.483L32.6995 228.518C30.0524 228.543 27.8671 226.459 27.765 223.815L25.2016 156.543C25.0761 153.213 27.7115 150.43 31.0413 150.375Z" fill="#C3DCBA"/>
<path d="M33.1254 152.595L139.268 150.843C143.541 150.773 146.971 154.353 146.717 158.619L143.064 219.996C142.864 223.356 140.099 225.986 136.734 226.02L34.7066 227.005C32.1867 227.03 30.1051 225.044 30.0081 222.526L27.5668 158.466C27.4446 155.297 29.9545 152.647 33.1254 152.595Z" fill="#D9E8D4"/>
<path d="M142.764 148.483L30.8304 150.33C27.4856 150.385 24.8401 153.179 24.9673 156.523L25.148 161.265H150.347L150.62 156.683C150.888 152.184 147.27 148.407 142.764 148.483Z" fill="#6B818C"/>
<g opacity="0.85">
<path opacity="0.85" d="M34.3525 152.623C34.3525 153.178 33.9024 153.63 33.3452 153.63C32.788 153.63 32.3379 153.18 32.3379 152.623C32.3379 152.067 32.788 151.615 33.3452 151.615C33.9024 151.615 34.3525 152.067 34.3525 152.623Z" fill="#BDD0FB"/>
<path opacity="0.85" d="M34.3525 155.573C34.3525 156.128 33.9024 156.58 33.3452 156.58C32.788 156.58 32.3379 156.13 32.3379 155.573C32.3379 155.017 32.788 154.565 33.3452 154.565C33.9024 154.565 34.3525 155.016 34.3525 155.573Z" fill="#BDD0FB"/>
<path opacity="0.85" d="M34.3525 158.523C34.3525 159.078 33.9024 159.53 33.3452 159.53C32.788 159.53 32.3379 159.08 32.3379 158.523C32.3379 157.966 32.788 157.516 33.3452 157.516C33.9024 157.516 34.3525 157.966 34.3525 158.523Z" fill="#BDD0FB"/>
</g>
<path d="M52.1578 202.455C60.9693 202.455 68.1124 195.312 68.1124 186.501C68.1124 177.689 60.9693 170.546 52.1578 170.546C43.3463 170.546 36.2031 177.689 36.2031 186.501C36.2031 195.312 43.3463 202.455 52.1578 202.455Z" fill="#DFF2D9"/>
<path d="M52.1578 190.019C54.1004 190.019 55.6751 188.444 55.6751 186.502C55.6751 184.559 54.1004 182.984 52.1578 182.984C50.2153 182.984 48.6406 184.559 48.6406 186.502C48.6406 188.444 50.2153 190.019 52.1578 190.019Z" fill="#BEE5B2"/>
<path d="M60.7098 192.264C58.8658 194.971 55.7586 196.75 52.2347 196.75C46.574 196.75 41.9859 192.162 41.9859 186.501C41.9859 180.84 46.574 176.252 52.2347 176.252C52.4087 176.252 52.581 176.257 52.7517 176.266V173.667C52.5794 173.66 52.4087 173.655 52.2347 173.655C45.14 173.655 39.3906 179.406 39.3906 186.499C39.3906 193.594 45.1417 199.343 52.2347 199.343C56.6237 199.343 60.4973 197.141 62.8131 193.783L60.7098 192.264Z" fill="#BEE5B2"/>
<path d="M80.3021 174.366C80.2938 175.658 79.2396 176.697 77.9495 176.689C76.6577 176.68 75.6186 175.626 75.627 174.336C75.6354 173.044 76.6895 172.005 77.9796 172.014C79.2714 172.022 80.3105 173.076 80.3021 174.366Z" fill="url(#paint0_linear_199_17559)"/>
<path d="M80.2244 174.368C80.216 175.616 79.197 176.621 77.9487 176.613C76.7004 176.605 75.6948 175.586 75.7032 174.337C75.7115 173.089 76.7306 172.083 77.9788 172.092C79.2271 172.1 80.2327 173.119 80.2244 174.368Z" fill="url(#paint1_linear_199_17559)"/>
<path d="M75.8809 174.227C75.8859 174.138 75.8976 174.051 75.9127 173.964L75.8809 174.227Z" fill="url(#paint2_linear_199_17559)"/>
<path d="M76.1074 173.401C76.4555 172.723 77.1649 172.26 77.9781 172.267C78.107 172.268 78.2325 172.28 78.3546 172.303L76.1074 173.401Z" fill="url(#paint3_linear_199_17559)"/>
<path d="M80.3021 188.542C80.2938 189.834 79.2396 190.873 77.9495 190.865C76.6577 190.856 75.6186 189.802 75.627 188.512C75.6354 187.22 76.6895 186.181 77.9796 186.19C79.2714 186.196 80.3105 187.25 80.3021 188.542Z" fill="url(#paint4_linear_199_17559)"/>
<path d="M80.2244 188.541C80.216 189.79 79.197 190.795 77.9487 190.787C76.7004 190.778 75.6948 189.759 75.7032 188.511C75.7115 187.263 76.7306 186.257 77.9788 186.266C79.2271 186.274 80.2327 187.293 80.2244 188.541Z" fill="url(#paint5_linear_199_17559)"/>
<path d="M75.8809 188.401C75.8859 188.312 75.8976 188.225 75.9127 188.14L75.8809 188.401Z" fill="url(#paint6_linear_199_17559)"/>
<path d="M76.1074 187.575C76.4555 186.897 77.1649 186.434 77.9781 186.441C78.107 186.442 78.2325 186.454 78.3546 186.477L76.1074 187.575Z" fill="url(#paint7_linear_199_17559)"/>
<path d="M80.3021 202.714C80.2938 204.006 79.2396 205.045 77.9495 205.037C76.6577 205.028 75.6186 203.974 75.627 202.684C75.6354 201.394 76.6895 200.353 77.9796 200.361C79.2714 200.368 80.3105 201.422 80.3021 202.714Z" fill="url(#paint8_linear_199_17559)"/>
<path d="M77.9637 204.959C79.2122 204.959 80.2243 203.947 80.2243 202.698C80.2243 201.45 79.2122 200.438 77.9637 200.438C76.7152 200.438 75.7031 201.45 75.7031 202.698C75.7031 203.947 76.7152 204.959 77.9637 204.959Z" fill="url(#paint9_linear_199_17559)"/>
<path d="M75.8809 202.574C75.8859 202.486 75.8976 202.399 75.9127 202.312L75.8809 202.574Z" fill="url(#paint10_linear_199_17559)"/>
<path d="M76.1074 201.748C76.4555 201.07 77.1649 200.607 77.9781 200.613C78.107 200.615 78.2325 200.627 78.3546 200.65L76.1074 201.748Z" fill="url(#paint11_linear_199_17559)"/>
<path opacity="0.62" d="M83.8995 174.247L83.9095 174.645C83.9379 175.722 84.6123 176.578 85.4355 176.583L130.927 176.678C131.777 176.683 132.466 175.779 132.464 174.667C132.463 173.574 131.797 172.684 130.964 172.662L85.4623 172.168C84.5822 172.143 83.8677 173.094 83.8995 174.247Z" fill="white"/>
<path opacity="0.62" d="M83.8995 188.349L83.9095 188.747C83.9379 189.825 84.6123 190.68 85.4355 190.685L130.927 190.78C131.777 190.785 132.466 189.882 132.464 188.769C132.463 187.676 131.797 186.786 130.964 186.765L85.4623 186.271C84.5822 186.248 83.8677 187.198 83.8995 188.349Z" fill="white"/>
<path opacity="0.62" d="M83.8995 202.453L83.9095 202.851C83.9379 203.928 84.6123 204.784 85.4355 204.789L130.927 204.884C131.777 204.889 132.466 203.985 132.464 202.873C132.463 201.78 131.797 200.89 130.964 200.868L85.4623 200.374C84.5822 200.351 83.8677 201.301 83.8995 202.453Z" fill="white"/>
<path d="M135.255 213.57L37.6 215.302C35.8849 215.332 34.5931 216.873 34.8642 218.568L35.2942 221.262C35.5134 222.634 36.6997 223.643 38.0902 223.638L134.886 223.258C136.323 223.253 137.528 222.165 137.68 220.736L138.11 216.69C138.291 215.002 136.952 213.54 135.255 213.57Z" fill="#319AF0"/>
<path d="M113.969 200.268C113.584 199.89 113.181 199.468 112.732 198.98L112.311 198.52L112.908 198.704C113.41 198.858 113.922 198.988 114.431 199.092L114.621 199.13L114.161 200.457L113.969 200.268ZM113.398 199.197C113.612 199.425 113.818 199.637 114.016 199.836L114.173 199.385C113.914 199.328 113.656 199.266 113.398 199.197Z" fill="#BEE5B2"/>
<path d="M43.3758 58.3386C48.0626 65.6792 55.7396 71.2345 63.3848 75.7741C73.3809 81.7108 84.2522 87.0017 91.3786 96.188C98.823 105.784 101.154 118.416 101.448 130.557C101.743 142.698 100.244 154.86 101.077 166.976C101.87 178.5 105.099 190.398 112.858 198.865C105.309 196.549 100.033 189.028 98.0935 181.255C96.0253 172.966 96.9456 164.275 97.3355 155.74C97.727 147.206 97.476 138.251 93.3899 130.749C85.3716 116.03 65.9148 111.994 54.3776 99.834C48.409 93.5442 44.8299 85.2933 42.8638 76.8483C41.5235 71.0923 40.8843 65.2124 40.4693 59.3108C40.3539 57.676 42.494 56.9565 43.3758 58.3386Z" fill="#BEE5B2"/>
<path d="M72.4389 107.912L71.7328 47.1872C71.6927 43.7754 74.7213 41.14 78.0946 41.6503L94.5747 44.1452C97.2803 44.5551 99.2799 46.881 99.2799 49.6168V104.982L72.4389 107.912Z" fill="#6B818C"/>
<path d="M378.629 169.5C379.715 169.713 380.44 168.413 379.697 167.573C375.448 162.762 366.1 154.195 355.085 156.634C339.987 159.978 330.158 169.037 320.381 196.468C310.877 223.132 280.157 237.699 271.461 239.607C271.058 239.696 270.777 240.064 270.794 240.484C270.815 241.034 271.326 241.429 271.85 241.3C277.93 239.808 309.796 231.584 324.404 219.795C339.741 207.42 357.65 165.391 378.629 169.5Z" fill="#BEE5B2"/>
<path d="M368.177 164.192C366.907 163.926 365.57 163.831 364.255 163.797C362.934 163.769 361.612 163.844 360.304 164.005C359.648 164.071 358.999 164.197 358.351 164.306C357.707 164.446 357.061 164.568 356.427 164.751C355.15 165.075 353.907 165.509 352.682 165.987C350.249 166.985 347.95 168.296 345.839 169.859C343.724 171.42 341.806 173.239 340.042 175.194C336.528 179.129 333.793 183.717 331.549 188.506C331.008 189.718 330.495 190.931 329.966 192.159C329.434 193.392 328.933 194.637 328.368 195.857L327.54 197.693L326.67 199.511C326.102 200.73 325.465 201.914 324.857 203.114C323.584 205.483 322.257 207.828 320.79 210.088C319.319 212.345 317.743 214.537 316.028 216.624C312.612 220.807 308.543 224.458 304.057 227.452C299.568 230.447 294.698 232.799 289.724 234.789C284.746 236.785 279.679 238.505 274.614 240.219C274.534 240.246 274.445 240.202 274.418 240.122C274.391 240.043 274.433 239.958 274.51 239.928C279.513 238.042 284.547 236.23 289.448 234.123C294.342 232.015 299.137 229.655 303.501 226.632C307.875 223.632 311.766 219.975 315.109 215.869C316.779 213.813 318.315 211.649 319.749 209.419C321.181 207.185 322.476 204.864 323.72 202.517C324.314 201.327 324.934 200.152 325.49 198.944L326.34 197.14L327.15 195.316C327.704 194.107 328.191 192.867 328.713 191.642C329.238 190.414 329.782 189.169 330.334 187.941C332.646 183.071 335.466 178.388 339.105 174.35C342.731 170.323 347.237 167.016 352.316 165.05C353.591 164.582 354.881 164.145 356.209 163.859C356.867 163.692 357.538 163.585 358.206 163.461C358.878 163.369 359.548 163.262 360.224 163.211C362.924 162.97 365.648 163.052 368.311 163.695C368.448 163.728 368.533 163.867 368.5 164.005C368.468 164.14 368.334 164.224 368.198 164.195L368.177 164.192Z" fill="#49800E"/>
<path d="M273.693 209.854L273.232 208.527L273.423 208.488C273.932 208.385 274.444 208.254 274.946 208.1L275.543 207.916L275.122 208.376C274.673 208.865 274.27 209.286 273.885 209.665L273.693 209.854ZM273.679 208.781L273.836 209.233C274.036 209.034 274.24 208.821 274.454 208.594C274.196 208.664 273.939 208.726 273.679 208.781Z" fill="url(#paint12_linear_199_17559)"/>
<path d="M295.436 212.524L295.412 211.601L295.539 211.614C295.879 211.651 296.225 211.671 296.572 211.676L296.983 211.681L296.627 211.885C296.249 212.101 295.911 212.285 295.595 212.446L295.436 212.524ZM295.643 211.85L295.651 212.164C295.815 212.079 295.986 211.987 296.167 211.888C295.989 211.878 295.815 211.865 295.643 211.85Z" fill="url(#paint13_linear_199_17559)"/>
<path d="M368.238 137.607C363.832 141.271 357.907 143.216 352.208 144.533C344.754 146.254 336.883 147.396 330.576 151.726C323.99 156.251 320.003 163.703 317.389 171.253C314.776 178.805 313.281 186.728 310.335 194.155C307.532 201.22 303.128 208.032 296.57 211.786C301.766 211.845 306.578 208.186 309.347 203.703C312.302 198.921 313.465 193.288 314.928 187.862C316.39 182.434 318.338 176.872 322.401 172.987C330.372 165.365 343.375 166.729 353.04 161.414C358.04 158.665 361.933 154.211 364.857 149.31C366.848 145.97 368.426 142.413 369.866 138.797C370.266 137.796 369.068 136.918 368.238 137.607Z" fill="#82CD6B"/>
<path d="M331.819 131.174C330.368 128.779 328.574 126.623 326.693 124.539C326.116 123.898 325.057 124.323 325.074 125.187C325.146 128.796 323.434 132.464 321.205 135.417C318.367 139.179 314.689 142.268 312.03 146.156C306.557 154.161 306.038 164.572 307.211 174.2C308.384 183.827 311.053 193.289 311.254 202.986C311.349 207.609 310.851 212.348 308.85 216.516C306.885 220.609 303.291 224.094 298.875 225.115C298.748 225.145 298.674 225.277 298.721 225.401C298.748 225.473 298.813 225.526 298.89 225.538C304.521 226.411 310.019 222.153 312.226 216.884C314.45 211.576 314.028 205.551 313.068 199.877C312.107 194.203 310.64 188.54 310.893 182.791C311.145 177.05 313.167 171.399 316.614 166.801C319.751 162.615 323.954 159.373 327.605 155.627C331.256 151.881 334.486 147.297 334.854 142.08C335.123 138.257 333.803 134.453 331.819 131.174Z" fill="#BEE5B2"/>
<path d="M327.027 132.553C327.005 133.09 326.95 133.611 326.858 134.129C326.772 134.648 326.664 135.163 326.537 135.674C326.284 136.694 325.961 137.7 325.564 138.674C325.382 139.169 325.154 139.643 324.945 140.126C324.843 140.369 324.718 140.602 324.602 140.837L324.248 141.544C323.993 142.004 323.725 142.457 323.464 142.916L322.613 144.246C322.312 144.678 321.997 145.099 321.691 145.528C321.542 145.745 321.369 145.944 321.205 146.15L320.71 146.764C320.384 147.181 320.039 147.566 319.703 147.962C319.363 148.357 319.027 148.752 318.692 149.149C317.354 150.735 316.043 152.338 314.889 154.046C313.738 155.755 312.759 157.572 311.989 159.476C311.576 160.418 311.286 161.407 310.967 162.386C310.721 163.386 310.43 164.377 310.269 165.398C309.856 167.422 309.69 169.491 309.538 171.555C309.494 172.591 309.471 173.629 309.441 174.666L309.473 177.782V177.785C309.473 177.867 309.407 177.934 309.325 177.936C309.247 177.936 309.181 177.875 309.176 177.797C308.919 173.639 308.957 169.43 309.68 165.292C310.329 161.146 311.932 157.13 314.28 153.638C315.449 151.889 316.77 150.256 318.107 148.657C318.769 147.852 319.464 147.069 320.113 146.269L320.6 145.67C320.76 145.469 320.931 145.275 321.078 145.064C321.381 144.647 321.691 144.238 321.987 143.818L322.84 142.532C323.101 142.091 323.371 141.651 323.627 141.206C323.864 140.75 324.127 140.307 324.353 139.844C324.574 139.38 324.811 138.922 325.005 138.445C325.427 137.506 325.762 136.53 326.073 135.548C326.225 135.056 326.357 134.558 326.47 134.056C326.583 133.555 326.68 133.043 326.736 132.543L326.737 132.533C326.746 132.451 326.819 132.392 326.901 132.402C326.973 132.408 327.03 132.476 327.027 132.553Z" fill="#49800E"/>
<path d="M292.374 221.854C292.374 224.102 290.533 225.939 288.284 225.939H67.1664C64.9175 225.939 63.0769 224.1 63.0769 221.854L61.2363 94.7845C61.2363 92.5373 63.8834 88.1517 68.7343 88.4813L284.834 82.8893C287.655 82.8156 290.384 83.9016 292.382 85.8945C294.38 87.8856 295.474 90.6097 295.407 93.4292L292.374 221.854Z" fill="#1C3102"/>
<path d="M288.337 217.934C288.337 220.063 286.597 221.803 284.468 221.803H72.5C70.3716 221.803 68.6314 220.063 68.6314 217.934L66.8945 102.579C67.0987 95.6367 73.1844 93.1418 76.8739 93.2891L283.993 87.7321C285.976 87.6786 287.894 88.4416 289.296 89.8438C290.7 91.2443 291.466 93.1602 291.416 95.1431L288.337 217.934Z" fill="#C3DCBA"/>
<path d="M77.9682 211.535C78.1908 202.001 78.1071 117.573 77.5599 110.281C77.0128 102.989 88.3693 101.622 105.805 100.802C123.24 99.9818 270.348 96.7323 274.134 96.4261C282.648 95.735 284.41 108.462 283.558 136.088C282.919 156.843 281.858 191.035 281.369 206.758C281.224 211.44 277.397 215.155 272.714 215.168C237.314 215.265 101.635 215.655 92.6027 215.923C82.21 216.232 77.8812 215.317 77.9682 211.535Z" fill="#D9E8D4"/>
<path d="M304.728 236.487H55.2051C52.1346 236.487 49.623 233.976 49.623 230.905C49.623 227.835 52.1346 225.323 55.2051 225.323H304.728C307.799 225.323 310.31 227.835 310.31 230.905C310.31 233.976 307.799 236.487 304.728 236.487Z" fill="#1C3102"/>
<path d="M315.154 59.3675C315.093 59.3675 315.035 59.3307 315.013 59.2688C314.985 59.1918 315.025 59.1065 315.102 59.078C315.289 59.0094 315.478 58.9425 315.667 58.8772C315.746 58.8505 315.83 58.8923 315.856 58.9693C315.883 59.0479 315.841 59.1316 315.764 59.1584C315.577 59.2236 315.391 59.2889 315.205 59.3575C315.189 59.3658 315.17 59.3675 315.154 59.3675Z" fill="#BDD0FB"/>
<path d="M353.397 103.84C353.372 103.84 353.349 103.834 353.325 103.822C353.253 103.782 353.227 103.691 353.267 103.619C353.362 103.445 353.456 103.271 353.548 103.096C353.586 103.022 353.677 102.995 353.749 103.032C353.822 103.071 353.849 103.161 353.812 103.233C353.719 103.41 353.625 103.586 353.528 103.762C353.501 103.812 353.451 103.84 353.397 103.84Z" fill="#BDD0FB"/>
<path d="M345.406 102.764C345.513 102.645 345.533 102.471 345.456 102.33L343.249 98.3228C344.283 96.4538 345.026 94.4057 345.419 92.2439L349.661 90.5388C349.81 90.4785 349.903 90.3313 349.897 90.1707L349.622 84.6907C349.614 84.5301 349.505 84.3929 349.351 84.3494L344.961 83.0777C344.353 80.9643 343.408 79.0016 342.193 77.2463L343.988 73.0397C344.052 72.8925 344.013 72.7218 343.895 72.613L339.825 68.9318C339.706 68.8247 339.532 68.8047 339.392 68.8816L335.384 71.0887C333.515 70.0546 331.467 69.3117 329.305 68.9184L327.6 64.6767C327.54 64.5278 327.393 64.4341 327.232 64.4408L321.752 64.7152C321.592 64.7235 321.454 64.8323 321.411 64.9862L320.139 69.3769C318.026 69.9843 316.063 70.9297 314.308 72.1445L310.101 70.3491C309.954 70.2855 309.783 70.324 309.675 70.4428L305.993 74.5122C305.886 74.631 305.866 74.805 305.943 74.9456L308.15 78.953C307.116 80.8221 306.373 82.8702 305.98 85.032L301.738 86.7371C301.589 86.7974 301.496 86.9446 301.502 87.1052L301.777 92.5852C301.785 92.7458 301.894 92.883 302.048 92.9265L306.438 94.1982C307.046 96.3116 307.991 98.2743 309.206 100.03L307.411 104.236C307.347 104.383 307.386 104.554 307.504 104.663L311.574 108.344C311.693 108.451 311.867 108.471 312.007 108.394L316.015 106.187C317.884 107.221 319.932 107.964 322.094 108.357L323.799 112.599C323.859 112.748 324.006 112.842 324.167 112.835L329.647 112.561C329.807 112.552 329.945 112.444 329.99 112.29L331.261 107.899C333.375 107.292 335.338 106.346 337.093 105.131L341.299 106.927C341.447 106.99 341.617 106.952 341.726 106.833L345.406 102.764Z" fill="#82CD6B"/>
<path d="M325.694 93.7342C324.872 93.7342 324.057 93.5334 323.311 93.1368C322.109 92.4993 321.228 91.4301 320.828 90.1283C320.004 87.441 321.52 84.5864 324.208 83.7631C325.509 83.3649 326.888 83.4954 328.09 84.1346C329.291 84.7721 330.173 85.8414 330.573 87.1432C331.396 89.8304 329.88 92.685 327.193 93.5083C326.701 93.6606 326.195 93.7342 325.694 93.7342ZM325.707 83.9857C325.248 83.9857 324.79 84.0543 324.34 84.1915C321.89 84.9428 320.506 87.5464 321.258 89.9978C321.621 91.1841 322.426 92.1596 323.522 92.7419C324.618 93.3242 325.876 93.4447 327.062 93.0799C329.512 92.3286 330.896 89.725 330.144 87.2737C329.781 86.0873 328.976 85.1118 327.88 84.5295C327.199 84.1698 326.457 83.9857 325.707 83.9857Z" fill="#DFF2D9"/>
<path d="M325.599 102.028C318.483 102.028 312.521 96.4244 312.161 89.2394C312.15 89.0118 312.145 88.7843 312.145 88.5584C312.145 81.4403 317.748 75.4801 324.933 75.1203C332.351 74.7522 338.681 80.4781 339.052 87.8924C339.064 88.12 339.069 88.3459 339.069 88.5734C339.069 89.3063 339.011 90.0375 338.893 90.7554L338.452 90.6834C338.565 89.9907 338.622 89.2829 338.622 88.5751C338.622 88.3559 338.617 88.1367 338.606 87.9175C338.258 80.9701 332.495 75.5537 325.614 75.5537C325.395 75.5537 325.176 75.5587 324.955 75.5704C318.008 75.9185 312.591 81.6812 312.591 88.5617C312.591 88.7792 312.596 89.0001 312.608 89.2193C312.968 96.3859 319.09 101.928 326.259 101.566C328.615 101.448 330.892 100.695 332.841 99.3894L333.091 99.7609C331.074 101.111 328.72 101.891 326.282 102.013C326.053 102.023 325.825 102.028 325.599 102.028Z" fill="#DFF2D9"/>
<path d="M307.773 66.5778L306.362 64.4377C306.858 63.3484 307.181 62.1704 307.304 60.9456L309.598 59.8044C309.679 59.7643 309.726 59.6773 309.714 59.5886L309.317 56.5399C309.306 56.4512 309.239 56.3792 309.152 56.3608L306.643 55.8455C306.21 54.6926 305.596 53.6384 304.838 52.7114L305.655 50.2818C305.683 50.1965 305.655 50.1028 305.583 50.0476L303.146 48.1718C303.074 48.1166 302.977 48.1133 302.902 48.1635L300.762 49.574C299.673 49.0788 298.495 48.7558 297.27 48.632L296.129 46.3379C296.088 46.2576 296.001 46.2108 295.913 46.2225L292.864 46.6191C292.775 46.6308 292.703 46.6977 292.685 46.7847L292.17 49.2929C291.017 49.7263 289.963 50.3404 289.036 51.0984L286.606 50.2818C286.521 50.2534 286.427 50.2818 286.372 50.3538L284.496 52.7901C284.441 52.862 284.438 52.9591 284.488 53.0344L285.898 55.1745C285.403 56.2638 285.08 57.4418 284.956 58.6666L282.662 59.8078C282.582 59.8479 282.535 59.9349 282.547 60.0236L282.943 63.0723C282.955 63.161 283.022 63.233 283.109 63.2514L285.617 63.7667C286.051 64.9196 286.665 65.9738 287.423 66.9008L286.606 69.3304C286.578 69.4157 286.606 69.5094 286.678 69.5646L289.114 71.4404C289.186 71.4956 289.283 71.4989 289.359 71.4487L291.499 70.0382C292.588 70.5335 293.766 70.8564 294.991 70.9802L296.132 73.2743C296.172 73.3546 296.259 73.4014 296.348 73.3897L299.397 72.9932C299.485 72.9814 299.557 72.9145 299.576 72.8275L300.091 70.3193C301.244 69.8859 302.298 69.2718 303.225 68.5138L305.655 69.3304C305.74 69.3588 305.834 69.3304 305.889 69.2584L307.765 66.8221C307.82 66.7502 307.823 66.6531 307.773 66.5778Z" fill="#82CD6B"/>
<path d="M296.135 62.8836C294.959 62.8836 293.845 62.1758 293.386 61.0162C293.097 60.2833 293.108 59.4801 293.423 58.7556C293.736 58.0311 294.313 57.4739 295.046 57.1827C296.56 56.5837 298.281 57.3283 298.88 58.8426C299.169 59.5755 299.157 60.3787 298.843 61.1032C298.53 61.8277 297.953 62.3849 297.22 62.6761C296.862 62.8166 296.495 62.8836 296.135 62.8836ZM296.129 57.4237C295.823 57.4237 295.511 57.4806 295.21 57.5994C294.588 57.8454 294.099 58.3189 293.833 58.933C293.567 59.5471 293.555 60.2281 293.803 60.8506C294.312 62.1356 295.771 62.7665 297.054 62.2595C297.676 62.0135 298.165 61.5399 298.431 60.9259C298.697 60.3118 298.709 59.6307 298.461 59.0083C298.071 58.0244 297.126 57.4237 296.129 57.4237Z" fill="#DFF2D9"/>
<path d="M296.07 67.5359C292.292 67.5359 288.997 64.7248 288.497 60.8797C288.453 60.5467 288.432 60.2154 288.432 59.8874C288.432 56.1092 291.243 52.8162 295.088 52.3159C297.111 52.0532 299.117 52.5936 300.735 53.8385C302.353 55.0835 303.389 56.8839 303.652 58.9085C303.722 59.449 303.735 59.9962 303.69 60.535L303.243 60.4982C303.26 60.3007 303.269 60.1033 303.269 59.9041C303.269 59.5912 303.248 59.2783 303.208 58.9671C303.205 58.937 303.2 58.9052 303.195 58.8751C302.936 57.0596 302.014 55.4399 300.585 54.292C300.544 54.2585 300.503 54.2267 300.461 54.1949C298.938 53.0237 297.051 52.515 295.145 52.7626C291.526 53.2345 288.88 56.3334 288.878 59.8908C288.878 60.1986 288.898 60.5115 288.939 60.8261C289.451 64.76 293.067 67.5426 297 67.0323C298.294 66.8633 299.515 66.3496 300.531 65.5447L300.809 65.8961C299.728 66.7512 298.431 67.2983 297.057 67.4774C296.729 67.5142 296.398 67.5359 296.07 67.5359Z" fill="#DFF2D9"/>
<path d="M163.838 170.567L143.799 155.882L163.89 139.575C164.471 139.103 164.56 138.249 164.088 137.669C163.616 137.088 162.763 136.999 162.182 137.471L140.727 154.885C140.401 155.149 140.217 155.551 140.227 155.971C140.237 156.391 140.441 156.782 140.781 157.03L162.236 172.754C162.476 172.931 162.758 173.017 163.035 173.017C163.452 173.017 163.864 172.824 164.13 172.463C164.573 171.859 164.443 171.01 163.838 170.567Z" fill="#319AF0"/>
<path d="M206.349 154.885L184.894 137.471C184.312 136.999 183.46 137.088 182.988 137.669C182.517 138.249 182.605 139.103 183.186 139.575L203.277 155.882L183.238 170.567C182.634 171.009 182.503 171.857 182.947 172.461C183.213 172.822 183.624 173.015 184.041 173.015C184.319 173.015 184.6 172.929 184.841 172.752L206.295 157.028C206.633 156.781 206.839 156.389 206.849 155.969C206.859 155.549 206.675 155.149 206.349 154.885Z" fill="#319AF0"/>
<path d="M177.338 133.619C176.602 133.481 175.894 133.966 175.755 134.7L167.83 176.815C167.691 177.551 168.177 178.259 168.911 178.398C169.08 178.43 169.246 178.428 169.405 178.4C169.94 178.302 170.387 177.884 170.494 177.317L178.419 135.202C178.556 134.466 178.072 133.758 177.338 133.619Z" fill="#319AF0"/>
<path d="M250.176 146.523C249.837 162.574 248.732 217.941 249.259 237.562C249.315 239.64 250.74 241.308 252.516 241.377C261.304 241.713 293.519 242.567 307.892 241.861C310.886 241.713 313.267 238.877 313.329 235.372C313.628 218.523 314.286 171.136 312.72 149.429C312.532 146.829 310.787 144.757 308.567 144.498C298.997 143.379 266.643 140.639 254.226 141.583C251.987 141.752 250.232 143.899 250.176 146.523Z" fill="#6B818C"/>
<path d="M254.096 151.447C253.623 164.403 252.132 207.503 252.605 223.441C252.674 225.77 254.244 227.654 256.233 227.79C264.422 228.35 292.364 229.587 304.376 228.461C306.54 228.258 308.237 226.212 308.354 223.677C308.963 210.46 310.71 170.326 310.256 154.567C310.184 152.054 308.519 150.001 306.378 149.775C297.518 148.845 267.827 146.631 257.619 147.282C255.703 147.406 254.178 149.205 254.096 151.447Z" fill="#D9E8D4"/>
<path opacity="0.5" d="M271.895 144.388C271.895 144.879 272.222 145.286 272.642 145.311C274.717 145.438 280.565 145.798 283.177 145.975C283.693 146.011 284.098 145.468 283.999 144.876L283.982 144.776C283.915 144.371 283.629 144.066 283.278 144.029C281.511 143.84 276.181 143.315 272.651 143.462C272.227 143.479 271.895 143.891 271.895 144.388Z" fill="white"/>
<path d="M305 173.848L305.104 158.645C305.116 156.813 303.938 155.265 302.42 155.151L263.024 152.173C261.427 152.052 260.103 153.528 260.031 155.456C260.031 155.456 258.227 201.163 258.227 201.72L257.583 219.664C257.511 221.594 258.779 223.218 260.381 223.267L301.734 224.532C303.334 224.58 304.659 222.987 304.672 221.058L304.868 192.842H304.866L304.993 173.847H305V173.848Z" fill="#D9E8D4"/>
<g opacity="0.85">
<path opacity="0.85" d="M275.31 197.036L262.469 187.628L275.343 177.178C275.716 176.875 275.772 176.33 275.47 175.957C275.167 175.583 274.622 175.527 274.249 175.829L260.501 186.988C260.292 187.157 260.173 187.415 260.18 187.684C260.187 187.954 260.317 188.205 260.535 188.364L274.282 198.439C274.436 198.552 274.617 198.606 274.794 198.606C275.062 198.606 275.325 198.484 275.495 198.251C275.78 197.863 275.696 197.319 275.31 197.036Z" fill="#82CD6B"/>
<path opacity="0.85" d="M302.548 186.985L288.801 175.826C288.428 175.524 287.882 175.58 287.579 175.954C287.277 176.327 287.333 176.872 287.707 177.175L300.581 187.625L287.74 197.033C287.353 197.316 287.27 197.86 287.553 198.247C287.723 198.479 287.986 198.601 288.254 198.601C288.431 198.601 288.612 198.546 288.766 198.434L302.513 188.359C302.731 188.2 302.861 187.949 302.868 187.68C302.876 187.412 302.758 187.156 302.548 186.985Z" fill="#82CD6B"/>
<path opacity="0.85" d="M283.959 173.363C283.488 173.274 283.034 173.585 282.945 174.055L277.869 201.042C277.78 201.514 278.09 201.967 278.561 202.056C278.668 202.076 278.776 202.076 278.878 202.058C279.221 201.996 279.507 201.728 279.575 201.363L284.652 174.377C284.741 173.905 284.431 173.451 283.959 173.363Z" fill="#82CD6B"/>
</g>
<path d="M112.294 197.865L232.482 197.34C233.631 197.33 234.567 198.262 234.56 199.411L234.304 241.481C234.297 242.637 233.342 243.562 232.186 243.529C221.587 243.213 112.963 241.819 110.887 241.906C108.834 241.991 109.95 208.77 110.256 199.855C110.293 198.75 111.191 197.875 112.294 197.865Z" fill="#BEE5B2"/>
<path d="M232.248 241.791H232.238C225.461 241.589 160.518 240.779 129.308 240.389C120.283 240.277 113.76 240.195 112.037 240.172L111.968 240.17L111.957 240.101C111.22 235.95 111.234 222.053 111.995 199.914C112.002 199.744 112.141 199.608 112.313 199.606L232.501 199.081C232.613 199.081 232.688 199.133 232.73 199.175C232.792 199.237 232.824 199.315 232.824 199.402L232.568 241.472C232.564 241.647 232.422 241.791 232.248 241.791ZM112.109 240.004C113.931 240.029 120.402 240.11 129.31 240.222C160.52 240.612 225.463 241.422 232.243 241.624H232.251C232.33 241.624 232.397 241.555 232.399 241.472L232.655 199.402C232.655 199.359 232.641 199.324 232.61 199.294C232.579 199.263 232.543 199.248 232.499 199.248L112.313 199.774C112.231 199.774 112.164 199.839 112.161 199.921C111.404 221.928 111.386 235.781 112.109 240.004Z" fill="#D9E8D4"/>
<path d="M117.438 208.73C117.438 209.868 117.817 210.79 118.286 210.79H164.324C164.793 210.79 165.173 209.868 165.173 208.73C165.173 207.592 164.793 206.67 164.324 206.67H118.284C117.817 206.67 117.438 207.592 117.438 208.73Z" fill="#49800E"/>
<path d="M117.438 215.752C117.438 216.89 117.817 217.812 118.286 217.812H164.324C164.793 217.812 165.173 216.89 165.173 215.752C165.173 214.614 164.793 213.692 164.324 213.692H118.284C117.817 213.692 117.438 214.614 117.438 215.752Z" fill="#49800E"/>
<path d="M117.438 222.775C117.438 223.912 117.817 224.834 118.286 224.834H164.324C164.793 224.834 165.173 223.912 165.173 222.775C165.173 221.637 164.793 220.715 164.324 220.715H118.284C117.817 220.715 117.438 221.637 117.438 222.775Z" fill="#49800E"/>
<path d="M117.438 229.797C117.438 230.935 117.817 231.857 118.286 231.857H164.324C164.793 231.857 165.173 230.935 165.173 229.797C165.173 228.659 164.793 227.737 164.324 227.737H118.284C117.817 227.737 117.438 228.659 117.438 229.797Z" fill="#49800E"/>
<path d="M184.504 212.505C185.786 208.272 183.393 203.801 179.16 202.52C174.927 201.238 170.456 203.63 169.174 207.864C167.893 212.097 170.285 216.567 174.518 217.849C178.751 219.131 183.222 216.738 184.504 212.505Z" fill="#DFF2D9"/>
<path d="M202.398 215.845C205.526 212.718 205.526 207.647 202.398 204.52C199.271 201.393 194.2 201.393 191.073 204.52C187.945 207.647 187.945 212.718 191.073 215.845C194.2 218.973 199.271 218.973 202.398 215.845Z" fill="#DFF2D9"/>
<path d="M222.3 216.107C225.428 212.98 225.428 207.909 222.3 204.782C219.173 201.654 214.103 201.654 210.975 204.782C207.848 207.909 207.848 212.98 210.975 216.107C214.103 219.234 219.173 219.234 222.3 216.107Z" fill="#DFF2D9"/>
<path d="M181.593 208.492C181.84 209.094 181.977 209.755 181.977 210.446C181.977 213.288 179.675 215.59 176.834 215.59C173.993 215.59 171.69 213.288 171.69 210.446C171.69 207.605 173.993 205.303 176.834 205.303C176.921 205.303 177.008 205.304 177.093 205.309V204.006C177.008 204.003 176.921 204.001 176.834 204.001C173.273 204.001 170.387 206.887 170.387 210.448C170.387 214.009 173.273 216.895 176.834 216.895C180.395 216.895 183.281 214.009 183.281 210.448C183.281 209.571 183.105 208.736 182.789 207.973L181.593 208.492Z" fill="#319AF0"/>
<path d="M199.391 214.799C198.598 215.299 197.658 215.59 196.65 215.59C193.809 215.59 191.507 213.288 191.507 210.446C191.507 207.605 193.809 205.303 196.65 205.303C196.737 205.303 196.824 205.304 196.91 205.309V204.006C196.824 204.003 196.737 204.001 196.65 204.001C193.09 204.001 190.203 206.887 190.203 210.448C190.203 214.009 193.09 216.895 196.65 216.895C197.893 216.895 199.053 216.544 200.037 215.935L199.391 214.799Z" fill="#319AF0"/>
<path d="M220.933 213.34C220.008 214.698 218.448 215.592 216.68 215.592C213.838 215.592 211.536 213.29 211.536 210.448C211.536 207.607 213.838 205.305 216.68 205.305C216.767 205.305 216.854 205.306 216.939 205.311V204.008C216.854 204.005 216.767 204.003 216.68 204.003C213.119 204.003 210.232 206.889 210.232 210.45C210.232 214.011 213.119 216.897 216.68 216.897C218.882 216.897 220.826 215.793 221.989 214.106L220.933 213.34Z" fill="#319AF0"/>
<path d="M183.359 221.582H170.309C169.489 221.582 168.826 222.246 168.826 223.065C168.826 223.883 169.49 224.547 170.309 224.547H183.359C184.178 224.547 184.841 223.883 184.841 223.065C184.841 222.246 184.178 221.582 183.359 221.582Z" fill="#49800E"/>
<path d="M203.263 221.582H190.213C189.393 221.582 188.73 222.246 188.73 223.065C188.73 223.883 189.395 224.547 190.213 224.547H203.263C204.083 224.547 204.745 223.883 204.745 223.065C204.745 222.246 204.081 221.582 203.263 221.582Z" fill="#49800E"/>
<path d="M210.113 224.549H223.163C223.983 224.549 224.646 223.885 224.646 223.067C224.646 222.248 223.981 221.584 223.163 221.584H210.113C209.293 221.584 208.631 222.248 208.631 223.067C208.631 223.885 209.295 224.549 210.113 224.549Z" fill="#49800E"/>
<path d="M183.359 226.198H170.309C169.489 226.198 168.826 226.863 168.826 227.681V236.415C168.826 237.235 169.49 237.898 170.309 237.898H183.359C184.178 237.898 184.841 237.233 184.841 236.415V227.681C184.843 226.861 184.178 226.198 183.359 226.198Z" fill="#49800E"/>
<path d="M203.263 226.198H190.213C189.393 226.198 188.73 226.863 188.73 227.681V236.415C188.73 237.235 189.395 237.898 190.213 237.898H203.263C204.083 237.898 204.745 237.233 204.745 236.415V227.681C204.745 226.861 204.081 226.198 203.263 226.198Z" fill="#49800E"/>
<path d="M223.163 226.198H210.113C209.293 226.198 208.631 226.863 208.631 227.681V236.415C208.631 237.235 209.295 237.898 210.113 237.898H223.163C223.983 237.898 224.646 237.233 224.646 236.415V227.681C224.647 226.861 223.983 226.198 223.163 226.198Z" fill="#49800E"/>
<path d="M87.3748 220.765C87.3748 220.765 87.0837 222.416 86.9398 224.051C86.8846 224.69 87.3765 225.244 88.0174 225.271C90.1943 225.361 94.851 225.538 96.5226 225.463C96.7736 225.451 96.9376 225.195 96.8455 224.961C96.7669 224.765 96.618 224.606 96.4256 224.519L88.7335 220.984L87.3748 220.765Z" fill="#6CC551"/>
<path d="M87.1387 219.794L87.3729 221.769C87.3729 221.769 88.7199 222.396 89.6402 221.69L89.083 219.488L87.1387 219.794Z" fill="url(#paint14_linear_199_17559)"/>
<path d="M87.3144 182.657C87.2123 183.173 86.7706 208.399 89.4679 219.703C89.5114 219.888 89.4177 220.078 89.242 220.15C88.8287 220.319 88.0172 220.564 87.0467 220.597C86.7455 220.607 86.4761 220.411 86.3907 220.123C85.6193 217.501 81.9264 204.36 81.4445 191.807C80.9057 177.78 81.4445 191.33 81.4445 191.33L81.7608 182.659L87.3144 182.657Z" fill="#1C3102"/>
<path d="M78.5275 221.627C78.5275 221.627 78.064 222.46 77.6139 224.676C77.5319 225.076 77.813 225.459 78.2179 225.499C78.9374 225.569 80.0435 225.661 80.9303 225.655C81.3386 225.651 81.6582 225.296 81.608 224.89C81.5092 224.082 81.2047 222.755 80.2593 221.721L78.5275 221.627Z" fill="#6CC551"/>
<path d="M78.1211 219.084L78.6683 222.071C78.6683 222.071 79.2104 222.474 80.2813 222.181L80.0203 218.967L78.1211 219.084Z" fill="url(#paint15_linear_199_17559)"/>
<path d="M76.6419 183.433C74.4365 196.743 77.1205 216.328 78.0257 220.162C78.0809 220.396 78.27 220.577 78.5076 220.615C78.9109 220.682 79.5768 220.737 80.2328 220.546C80.4586 220.481 80.6176 220.277 80.626 220.041C80.7481 216.942 80.5289 197.915 82.5837 190.397C82.6874 190.016 82.92 189.685 83.243 189.455L87.2321 186.619L87.5383 182.036L76.6419 183.433Z" fill="#1C3102"/>
<path d="M90.6945 158.211C84.085 158.102 76.7929 159.946 76.7929 159.946C74.8235 171.442 76.4482 184.699 76.4482 184.699C81.5651 186.041 87.3362 183.879 87.3362 183.879C88.1862 179.075 92.1536 165.553 92.1536 165.553C95.383 165.153 98.0435 164.221 100.234 162.99C98.5622 161.052 97.7758 158.589 97.4327 157.132C95.0969 157.858 92.7325 158.246 90.6945 158.211Z" fill="#35605A"/>
<path d="M110.216 148.479C109.566 147.694 108.745 148.065 108.745 148.065C107.773 152.173 102.673 155.505 97.4336 157.133C97.7749 158.59 98.5631 161.055 100.235 162.991C108.931 158.102 110.216 148.479 110.216 148.479Z" fill="url(#paint16_linear_199_17559)"/>
<path d="M110.057 148.678C110.126 148.894 109.338 149.223 108.876 148.34C108.859 147.916 108.601 146.103 108.856 145.758C110.203 143.921 112.815 141.618 112.815 141.618C113.256 142.053 112.892 142.482 112.892 142.482L111.625 143.802C111.889 144.28 112.214 144.685 112.365 145.264C112.48 145.703 112.41 146.171 112.187 146.571C111.965 146.971 111.662 147.493 111.374 147.9C110.832 148.671 110.057 148.678 110.057 148.678Z" fill="url(#paint17_linear_199_17559)"/>
<path d="M111.07 144.659L109.916 145.638L109.553 146.612L110.582 147.755C110.582 147.755 110.928 145.82 111.186 145.402C111.444 144.984 111.31 144.781 111.07 144.659Z" fill="url(#paint18_linear_199_17559)"/>
<path d="M79.3269 166.349L76.7919 159.95C76.7919 159.95 70.6192 164.145 69.6035 169.463C70.7698 169.548 72.8932 169.853 74.9697 170.902C75.4265 168.389 79.3269 166.349 79.3269 166.349Z" fill="#35605A"/>
<path d="M84.7216 172.371C84.7216 172.371 77.7909 176.288 75.4517 172.943C74.9664 172.249 74.8493 171.558 74.9698 170.9C72.8916 169.851 70.7699 169.548 69.6036 169.461C69.2974 171.064 69.4597 172.769 70.4017 174.492C74.4979 181.985 85.6385 174.079 85.6385 174.079L84.7216 172.371Z" fill="url(#paint19_linear_199_17559)"/>
<path d="M83.8882 177.325L87.6715 164.114C87.715 163.964 87.8422 163.855 87.9978 163.837C88.6838 163.756 90.6683 163.532 92.9624 163.338C95.7249 163.104 98.9309 162.915 100.849 163.075C101.121 163.099 101.285 163.387 101.165 163.631C100.075 165.836 95.5911 174.805 93.3472 177.743C93.2736 177.84 93.1581 177.897 93.036 177.896L84.2597 177.814C84.0003 177.815 83.8179 177.571 83.8882 177.325Z" fill="#1C3102"/>
<path d="M93.3532 162.195L96.0957 161.738C96.2413 161.713 96.3617 161.854 96.3149 161.994L96.0438 162.818C96.0204 162.889 95.9585 162.941 95.8832 162.951L93.2444 163.304C93.1072 163.323 92.9951 163.199 93.0269 163.065L93.1943 162.347C93.211 162.267 93.2746 162.207 93.3532 162.195Z" fill="#D9E8D4"/>
<path d="M91.2995 164.516L91.5254 163.339C91.5488 163.221 91.6459 163.132 91.7647 163.12L97.3032 162.558C97.489 162.54 97.6395 162.71 97.596 162.893L97.2447 164.358C97.2162 164.476 97.1141 164.561 96.9937 164.566L91.5806 164.839C91.4049 164.847 91.2677 164.69 91.2995 164.516Z" fill="#D9E8D4"/>
<path d="M84.8026 174.135C84.8026 174.135 84.2755 171.968 84.488 171.2C84.7005 170.432 85.1121 169.443 86.4842 169.662C87.8563 169.881 89.476 170.46 89.476 170.46C89.476 170.46 89.394 171.461 88.3516 171.138L88.9991 171.638C88.9991 171.638 88.9071 172.439 88.0253 172.011L88.6277 172.675C88.6277 172.675 88.2495 173.333 87.6003 172.911C86.9527 172.49 86.6415 174.396 84.8026 174.135Z" fill="url(#paint20_linear_199_17559)"/>
<path d="M83.9985 152.848L81.8952 158.928C81.86 159.029 81.9019 159.141 81.9956 159.193C82.5695 159.509 84.6343 160.426 87.1225 158.848C87.3818 158.684 87.5575 158.416 87.5977 158.112L88.2787 152.848H83.9985V152.848Z" fill="url(#paint21_linear_199_17559)"/>
<path d="M88.5729 147.219C88.5729 147.219 90.882 151.566 90.5859 153.321C90.2897 155.076 87.4284 154.951 84.9285 153.525L83.1816 148.832L88.5729 147.219Z" fill="url(#paint22_linear_199_17559)"/>
<path d="M85.0405 151.221C85.1426 151.176 85.1794 151.052 85.1192 150.958C84.9334 150.675 84.5871 150.098 84.4766 149.594C84.4766 149.594 84.0617 149.328 85.5325 148.977C87.0049 148.624 89.1986 148.078 89.6604 146.825C90.1105 145.604 88.9292 142.533 87.0434 144.98C86.9715 145.073 86.8309 145.075 86.759 144.981C86.4494 144.58 85.6379 143.745 84.5084 144.25C83.4526 144.724 83.3338 145.497 83.3488 145.886C83.3539 146.002 83.2501 146.091 83.138 146.069C82.6042 145.967 81.3242 145.88 80.7252 147.193C80.2332 148.276 80.5528 148.888 80.844 149.188C80.9377 149.285 80.8975 149.446 80.767 149.484C80.4156 149.591 79.9638 149.889 80.009 150.711C80.0709 151.847 81.3426 151.746 81.704 151.694C81.7626 151.686 81.8228 151.706 81.863 151.751C82.1725 152.094 83.5697 153.552 85.0824 153.727C85.2129 153.742 85.3149 153.614 85.2714 153.488L84.6172 151.586C84.5871 151.497 84.6289 151.4 84.7142 151.363L85.0405 151.221Z" fill="#1C3102"/>
<path d="M85.3033 151.49C85.3033 151.49 83.6584 150.362 83.5396 151.313C83.4192 152.263 85.0205 152.688 85.8136 152.335L85.3033 151.49Z" fill="url(#paint23_linear_199_17559)"/>
<path d="M300.549 77.3072L197.72 76.8136C196.48 76.8018 195.474 78.1722 195.482 79.8589L195.71 120.543C195.72 122.24 196.752 123.593 197.997 123.541L300.241 121.351C301.431 121.302 302.381 119.987 302.396 118.368L302.754 80.3676C302.771 78.6926 301.782 77.3189 300.549 77.3072Z" fill="#BEE5B2"/>
<path d="M197.933 120.883C197.774 120.883 197.644 120.721 197.644 120.522L197.416 79.8378C197.416 79.7425 197.441 79.6571 197.491 79.5869C197.562 79.4898 197.647 79.4697 197.707 79.4697L300.536 79.9633C300.595 79.9633 300.68 79.9851 300.749 80.0821C300.799 80.1524 300.824 80.2361 300.824 80.3315L300.466 118.331C300.464 118.527 300.341 118.685 300.187 118.691H300.185L197.933 120.883ZM197.706 79.6387C197.685 79.6387 197.657 79.6437 197.625 79.6873C197.597 79.7274 197.582 79.7776 197.582 79.8378L197.809 120.522C197.809 120.637 197.873 120.718 197.93 120.718L300.178 118.527C300.234 118.526 300.295 118.447 300.295 118.333L300.654 80.3331C300.654 80.2746 300.64 80.2244 300.61 80.1825C300.578 80.139 300.55 80.134 300.531 80.134L197.706 79.6387Z" fill="white"/>
<path d="M206.893 98.3301H201.889V117.454H206.893V98.3301Z" fill="#49800E"/>
<path d="M215.255 104.904H210.25V117.456H215.255V104.904Z" fill="#49800E"/>
<path d="M223.616 88.6602H218.611V117.454H223.616V88.6602Z" fill="#49800E"/>
<path d="M231.977 110.537H226.973V117.454H231.977V110.537Z" fill="#49800E"/>
<path d="M240.339 92.5078H235.334V117.453H240.339V92.5078Z" fill="#49800E"/>
<path d="M248.7 96.8281H243.695V117.453H248.7V96.8281Z" fill="#49800E"/>
<path d="M257.063 101.522H252.059V117.454H257.063V101.522Z" fill="#49800E"/>
<path d="M265.425 82.8389H260.42V117.454H265.425V82.8389Z" fill="#49800E"/>
<path d="M273.786 86.499H268.781V117.453H273.786V86.499Z" fill="#49800E"/>
<path d="M282.147 92.0391H277.143V117.453H282.147V92.0391Z" fill="#49800E"/>
<path d="M290.509 111.177H285.504V117.452H290.509V111.177Z" fill="#49800E"/>
<path d="M298.87 98.9883H293.865V117.455H298.87V98.9883Z" fill="#49800E"/>
<path d="M175.197 65.6554C174.213 61.8838 171.496 55.7663 164.143 54.8511C154.37 53.6363 78.5338 52.9084 64.905 52.7862C63.6852 52.7745 62.6445 53.6614 62.4604 54.8678C61.9584 58.1825 61.1586 64.8221 61.7643 70.3857C61.9032 71.6658 63.0025 72.6246 64.2893 72.5794L172.916 68.7359C174.489 68.679 175.595 67.1781 175.197 65.6554ZM169.689 65.3291L67.517 68.945C66.1968 68.9919 65.0841 67.9494 65.0657 66.6292C65.0272 63.88 65.2397 61.0689 65.4991 58.7314C65.6513 57.356 66.8193 56.3219 68.2014 56.3353C108.531 56.7117 156.523 57.4497 163.707 58.3432C167.368 58.7983 169.491 61.094 170.723 63.6106C171.106 64.387 170.554 65.299 169.689 65.3291Z" fill="#319AF0"/>
<path d="M67.5332 52.5487C67.5416 57.4899 67.6185 69.4722 68.164 75.7319C68.2644 76.8881 69.2399 77.7699 70.3995 77.7632C76.1188 77.7281 92.5553 77.5373 100.251 76.4714C101.25 76.3326 102.024 75.5361 102.148 74.5371C102.67 70.3205 103.847 59.1012 102.441 53.0691C102.213 52.0885 101.372 51.3757 100.368 51.3289C95.1388 51.0862 78.1033 50.3266 69.7653 50.3115C68.5321 50.3115 67.5315 51.3155 67.5332 52.5487Z" fill="#319AF0"/>
<path d="M74.5071 54.3304L75.0542 71.6555C75.096 72.959 76.182 73.9847 77.4855 73.9512L92.3425 73.5664C93.6275 73.5329 94.6516 72.4821 94.6516 71.197V55.0382C94.6516 53.7766 93.6627 52.7341 92.401 52.6706L76.9952 51.8858C75.6131 51.8172 74.4636 52.945 74.5071 54.3304Z" fill="#55ADF5"/>
<path d="M163.073 64.0381H161.666V106.963H163.073V64.0381Z" fill="#BEE5B2"/>
<path d="M170.017 63.6065L169.869 106.961L171.276 106.966L171.424 63.6113L170.017 63.6065Z" fill="#BEE5B2"/>
<path d="M166.566 112.948C169.347 112.948 171.601 110.693 171.601 107.913C171.601 105.132 169.347 102.878 166.566 102.878C163.785 102.878 161.531 105.132 161.531 107.913C161.531 110.693 163.785 112.948 166.566 112.948Z" fill="#447604"/>
<path d="M166.566 110.904C168.218 110.904 169.556 109.565 169.556 107.914C169.556 106.263 168.218 104.924 166.566 104.924C164.915 104.924 163.576 106.263 163.576 107.914C163.576 109.565 164.915 110.904 166.566 110.904Z" fill="#DFF2D9"/>
<path d="M163.108 126.224L161.385 116.822C161.025 114.856 162.535 113.044 164.534 113.044H168.816C170.988 113.044 172.7 114.895 172.531 117.06L171.778 126.731C171.677 128.01 171.025 129.173 170.002 129.949C168.446 131.13 166.244 133.585 165.766 138.198C165.008 145.504 171.866 147.957 176.088 147.17C179.383 146.556 181.175 142.582 180.465 139.605C180.201 138.498 181.002 137.427 182.14 137.427C182.935 137.427 183.629 137.966 183.822 138.737C184.648 142.037 185.721 150.544 175.404 152.215C163.187 154.195 151.335 141.173 161.778 130.642C162.924 129.486 163.401 127.824 163.108 126.224Z" fill="#49800E"/>
<path d="M166.564 68.3403C169.345 68.3403 171.599 66.0861 171.599 63.3054C171.599 60.5247 169.345 58.2705 166.564 58.2705C163.783 58.2705 161.529 60.5247 161.529 63.3054C161.529 66.0861 163.783 68.3403 166.564 68.3403Z" fill="#447604"/>
<path d="M166.564 66.2957C168.216 66.2957 169.554 64.957 169.554 63.3056C169.554 61.6542 168.216 60.3154 166.564 60.3154C164.913 60.3154 163.574 61.6542 163.574 63.3056C163.574 64.957 164.913 66.2957 166.564 66.2957Z" fill="#DFF2D9"/>
<path d="M252.747 65.8268L235.407 67.6541C233.262 67.88 231.395 66.1983 231.395 64.0415V44.0275C231.395 42.222 232.721 40.6893 234.508 40.4316L251.849 37.9351C254.037 37.6205 255.998 39.3189 255.998 41.5309V62.2143C255.998 64.0733 254.596 65.6311 252.747 65.8268Z" fill="#447604"/>
<path d="M238.722 62.1051C237.305 62.1051 236.152 60.9523 236.152 59.535C236.152 58.1177 237.305 56.9648 238.722 56.9648C240.14 56.9648 241.293 58.1177 241.293 59.535C241.293 60.9523 240.14 62.1051 238.722 62.1051ZM238.722 57.9839C237.867 57.9839 237.171 58.6799 237.171 59.535C237.171 60.39 237.867 61.0861 238.722 61.0861C239.578 61.0861 240.274 60.39 240.274 59.535C240.272 58.6799 239.576 57.9839 238.722 57.9839Z" fill="url(#paint24_linear_199_17559)"/>
<path d="M238.723 54.0492C241.746 54.0492 244.208 56.5089 244.208 59.5342C244.208 59.7216 244.198 59.9073 244.177 60.0897C244.152 60.3357 244.358 60.5415 244.603 60.5047L245.401 60.3859C245.575 60.3591 245.705 60.2152 245.719 60.0395C245.73 59.8738 245.737 59.7048 245.737 59.5358C245.737 55.6672 242.59 52.5215 238.723 52.5215C238.43 52.5215 238.14 52.5399 237.858 52.5767C237.645 52.6035 237.496 52.8009 237.533 53.0118L237.665 53.7882C237.699 53.9839 237.879 54.1195 238.077 54.0944C238.288 54.0642 238.503 54.0492 238.723 54.0492Z" fill="#EFF9EC"/>
<path d="M238.722 50.0965C243.926 50.0965 248.161 54.3299 248.161 59.5354V59.5404C248.161 59.768 248.36 59.9437 248.585 59.9102L249.368 59.7931C249.49 59.6509 249.568 59.5605 249.691 59.4183C249.629 53.4229 244.731 48.5654 238.722 48.5654C238.199 48.5654 237.683 48.6039 237.178 48.6775C236.972 48.7077 236.835 48.9034 236.868 49.1092L237 49.8823C237.034 50.0797 237.216 50.2169 237.415 50.1902C237.842 50.1283 238.277 50.0965 238.722 50.0965Z" fill="#EFF9EC"/>
<path d="M238.723 46.1424C245.915 46.1424 251.799 51.8432 252.101 58.9613C252.111 59.1855 252.306 59.3528 252.527 59.3194L253.304 59.2039C253.493 59.1755 253.632 59.0098 253.623 58.8191C253.248 50.9212 246.711 44.6113 238.723 44.6113C237.973 44.6113 237.235 44.6699 236.516 44.7787C236.31 44.8088 236.173 45.0062 236.206 45.212L236.338 45.9851C236.374 46.1859 236.563 46.3197 236.765 46.2896C237.403 46.1942 238.057 46.1424 238.723 46.1424Z" fill="#EFF9EC"/>
<path d="M290.272 241.469C290.664 241.469 290.98 241.151 290.98 240.761V156.077C290.98 155.685 290.662 155.369 290.272 155.369C289.881 155.369 289.564 155.687 289.564 156.077V240.761C289.564 241.151 289.881 241.469 290.272 241.469Z" fill="#7D97F4"/>
<path d="M309.471 241.469C309.863 241.469 310.179 241.151 310.179 240.761V156.077C310.179 155.685 309.861 155.369 309.471 155.369C309.08 155.369 308.764 155.687 308.764 156.077V240.761C308.764 241.151 309.08 241.469 309.471 241.469Z" fill="#7D97F4"/>
<path d="M356.642 242.006C356.734 242.006 356.827 241.988 356.918 241.95C357.277 241.797 357.446 241.381 357.293 241.021L321.063 155.801C320.911 155.441 320.494 155.274 320.134 155.426C319.774 155.579 319.607 155.995 319.759 156.355L355.989 241.575C356.105 241.844 356.367 242.006 356.642 242.006Z" fill="#7D97F4"/>
<path d="M334.261 242.006C334.354 242.006 334.447 241.988 334.538 241.95C334.897 241.797 335.066 241.381 334.912 241.021L298.683 155.801C298.529 155.441 298.114 155.274 297.754 155.426C297.394 155.579 297.225 155.995 297.379 156.355L333.609 241.575C333.724 241.844 333.987 242.006 334.261 242.006Z" fill="#7D97F4"/>
<path d="M289.173 156.855H322.36C322.913 156.855 323.359 156.409 323.359 155.856C323.359 155.304 322.913 154.857 322.36 154.857H289.173C288.621 154.857 288.174 155.304 288.174 155.856C288.174 156.409 288.621 156.855 289.173 156.855Z" fill="#7D97F4"/>
<path d="M303.507 169.816H325.952C326.343 169.816 326.66 169.498 326.66 169.108C326.66 168.718 326.342 168.4 325.952 168.4H303.507C303.115 168.4 302.799 168.718 302.799 169.108C302.799 169.498 303.115 169.816 303.507 169.816Z" fill="#7D97F4"/>
<path d="M332.838 184.516H310.393V185.933H332.838V184.516Z" fill="#7D97F4"/>
<path d="M339.504 200.634H317.059V202.051H339.504V200.634Z" fill="#7D97F4"/>
<path d="M324.052 218.167H346.497C346.888 218.167 347.205 217.849 347.205 217.459C347.205 217.069 346.887 216.751 346.497 216.751H324.052C323.66 216.751 323.344 217.069 323.344 217.459C323.344 217.849 323.66 218.167 324.052 218.167Z" fill="#7D97F4"/>
<path d="M330.811 234.286H353.257C353.648 234.286 353.964 233.968 353.964 233.578C353.964 233.186 353.646 232.87 353.257 232.87H330.811C330.42 232.87 330.104 233.188 330.104 233.578C330.102 233.968 330.42 234.286 330.811 234.286Z" fill="#7D97F4"/>
<path d="M293.194 154.08C294.571 154.199 296.96 154.393 298.842 154.475C299.975 154.525 300.626 154.415 301.003 154.264C301.003 154.306 301.001 154.346 300.999 154.383C300.991 154.58 300.829 154.739 300.63 154.751C297.07 154.95 294.239 154.82 293.232 154.758C293.023 154.744 292.899 154.518 293.006 154.341C293.058 154.254 293.123 154.167 293.194 154.08Z" fill="#6CC551"/>
<path d="M298.842 154.476C296.958 154.392 294.569 154.2 293.193 154.081C294.547 152.421 298.842 151.302 298.842 151.302H300.055C300.89 152.505 301.011 153.649 301.003 154.265C300.626 154.416 299.975 154.526 298.842 154.476Z" fill="#6CC551"/>
<path d="M300.26 149.319L300.146 151.567C300.135 151.809 299.952 152.015 299.708 152.048C299.465 152.084 299.141 152.087 298.796 151.973C298.583 151.903 298.426 151.724 298.388 151.506L297.996 149.319H300.26V149.319Z" fill="#6CC551"/>
<path d="M316.02 154.46C316.617 154.376 316.887 154.067 317 153.735C317 153.739 317.002 153.742 317.002 153.744C317.089 154.093 316.887 154.457 316.48 154.629C315.988 154.838 315.449 154.873 315.033 154.855C314.584 154.836 314.173 154.651 313.947 154.354L313.943 154.349C314.393 154.574 315.024 154.599 316.02 154.46Z" fill="#6CC551"/>
<path d="M313.205 149.306H314.206C315.73 149.274 316.687 152.49 317 153.735C316.886 154.066 316.617 154.376 316.02 154.46C315.024 154.598 314.393 154.572 313.943 154.349C313.12 153.265 312.712 151.679 312.516 150.752C312.292 149.701 313.205 149.306 313.205 149.306Z" fill="#6CC551"/>
<path d="M314.077 147.22L314.632 149.43C314.701 149.701 314.57 149.981 314.319 150.109C314.008 150.268 313.571 150.437 313.168 150.387C312.979 150.364 312.822 150.232 312.76 150.053L311.943 147.727L314.077 147.22Z" fill="#6CC551"/>
<path d="M314.74 147.858C314.049 148.47 311.8 148.552 311.8 148.552C303.7 129.112 300.387 126.35 300.387 126.35C301.556 133.687 300.576 149.931 300.576 149.931C299.239 150.52 297.515 149.931 297.515 149.931C297.406 137.919 295.561 127.442 293.379 119.183C298.854 119.059 301.765 117.187 302.716 116.436C307.279 123.793 314.74 147.858 314.74 147.858Z" fill="#1C3102"/>
<path d="M301.326 94.0783C302.361 99.247 301.99 108.497 301.747 112.717C301.679 113.903 302.507 115.546 303.176 116.669C303.282 116.845 303.216 117.071 303.034 117.164C301.913 117.74 298.118 119.525 293.719 119.746C293.426 119.761 293.163 119.561 293.088 119.278C289.825 107.095 286.035 99.309 286.035 99.309C290.218 92.6276 301.326 94.0783 301.326 94.0783Z" fill="#319AF0"/>
<path d="M307.822 108.911C307.489 111.319 306.505 113.946 304.539 116.736L303.791 116.126C303.791 116.126 304.654 112.624 304.164 108.649C305.377 108.413 306.811 108.655 307.822 108.911Z" fill="url(#paint25_linear_199_17559)"/>
<path d="M300.166 100.457L301.324 94.0801C301.324 94.0801 309.056 99.9918 307.823 108.914C306.811 108.658 305.378 108.413 304.163 108.651C303.812 105.786 302.756 102.677 300.166 100.457Z" fill="#319AF0"/>
<path d="M286.032 99.3096L289.017 105.738C288.535 109.619 286.45 111.297 284.202 111.941C284.061 110.172 283.614 108.743 283.199 107.755C286.072 104.79 286.032 99.3096 286.032 99.3096Z" fill="#319AF0"/>
<path d="M283.2 107.754C283.615 108.743 284.062 110.172 284.202 111.94C278.205 114.268 276.617 109.755 276.617 109.755L277.725 109.559C280.23 109.822 281.978 109.016 283.2 107.754Z" fill="url(#paint26_linear_199_17559)"/>
<path d="M288.783 91.3733L290.224 96.6709C290.386 97.2666 291.029 97.5862 291.603 97.3569C292.22 97.1093 293.005 96.773 293.679 96.4082C294.4 96.02 294.625 95.093 294.169 94.412L291.174 89.9443L288.783 91.3733Z" fill="url(#paint27_linear_199_17559)"/>
<path d="M273.87 106.212L310.794 119.652C312.343 120.216 313.083 121.979 312.4 123.478L312.288 123.724C311.684 125.051 310.116 125.634 308.793 125.021L272.939 108.436L273.87 106.212Z" fill="#319AF0"/>
<path opacity="0.15" d="M256.897 116.026C266.963 116.026 275.124 108.012 275.124 98.1265C275.124 88.2412 266.963 80.2275 256.897 80.2275C246.83 80.2275 238.67 88.2412 238.67 98.1265C238.67 108.012 246.83 116.026 256.897 116.026Z" fill="white"/>
<path d="M236.615 98.1269C236.615 109.127 245.696 118.044 256.897 118.044C268.098 118.044 277.179 109.127 277.179 98.1269C277.179 87.1268 268.098 78.21 256.897 78.21C245.696 78.21 236.615 87.1268 236.615 98.1269ZM239.594 98.1269C239.594 88.7432 247.341 81.1365 256.897 81.1365C266.453 81.1365 274.2 88.7432 274.2 98.1269C274.2 107.511 266.453 115.117 256.897 115.117C247.341 115.117 239.594 107.511 239.594 98.1269Z" fill="#319AF0"/>
<path d="M275.638 100.542C275.634 100.542 275.631 100.542 275.628 100.542C275.582 100.535 275.549 100.493 275.556 100.448C275.616 99.9827 275.658 99.5074 275.681 99.0373C275.683 98.9904 275.72 98.9519 275.768 98.9586C275.815 98.9603 275.85 99.0004 275.847 99.0456C275.823 99.5208 275.782 100.001 275.721 100.47C275.715 100.51 275.68 100.542 275.638 100.542ZM275.499 94.9712C275.459 94.9712 275.423 94.9428 275.417 94.9026C275.191 93.6376 274.826 92.3927 274.336 91.203C271.446 84.1937 264.601 79.6624 256.899 79.6624C253.306 79.6624 249.814 80.6597 246.801 82.5488C246.762 82.5739 246.71 82.5622 246.685 82.5221C246.66 82.4819 246.672 82.4317 246.712 82.4066C249.752 80.5024 253.276 79.4951 256.899 79.4951C264.669 79.4951 271.575 84.0665 274.491 91.1394C274.987 92.3408 275.353 93.5975 275.582 94.8725C275.591 94.9177 275.561 94.9612 275.516 94.9695C275.509 94.9712 275.504 94.9712 275.499 94.9712Z" fill="#91B3FA"/>
<path d="M304.101 116.021L300.611 115.736L299.1 117.13C299.1 117.13 299.458 117.624 300.575 117.341C301.693 117.057 303.226 116.988 303.226 116.988C303.226 116.988 304.77 117.684 304.789 116.382L304.101 116.021Z" fill="url(#paint28_linear_199_17559)"/>
<path d="M277.064 110.582C276.763 110.818 275.729 110.326 275.095 109.984C274.787 109.819 274.636 109.457 274.743 109.124C274.896 108.644 275.15 108.023 275.463 107.946C275.98 107.816 278.307 109.609 277.064 110.582Z" fill="url(#paint29_linear_199_17559)"/>
<path d="M310.065 124.452C310.029 124.452 309.998 124.43 309.986 124.395C309.971 124.351 309.994 124.304 310.038 124.288C311.102 123.92 311.659 123.321 311.694 122.507C311.73 121.686 311.211 120.921 310.401 120.605L305.967 118.876C305.923 118.86 305.903 118.811 305.92 118.768C305.937 118.724 305.985 118.704 306.029 118.721L310.463 120.449C311.338 120.791 311.9 121.62 311.862 122.514C311.823 123.403 311.228 124.052 310.091 124.445C310.083 124.45 310.073 124.452 310.065 124.452Z" fill="#91B3FA"/>
<path d="M304.633 118.349C304.623 118.349 304.613 118.348 304.603 118.344L304.029 118.12C303.986 118.103 303.966 118.055 303.982 118.011C303.999 117.968 304.048 117.946 304.091 117.965L304.665 118.189C304.709 118.206 304.729 118.254 304.712 118.298C304.699 118.329 304.667 118.349 304.633 118.349Z" fill="#91B3FA"/>
<path d="M288.472 86.1729C288.472 86.1729 287.279 88.912 287.198 90.351C287.118 91.7884 286.809 92.722 288.472 93.0115C290.135 93.301 291.536 92.4727 292.294 91.0404C292.294 91.0404 293.483 88.8334 293.215 87.9298C292.949 87.0262 288.472 86.1729 288.472 86.1729Z" fill="url(#paint30_linear_199_17559)"/>
<path d="M291.726 90.0117H291.515C291.515 90.0117 292.382 88.2347 291.621 87.9235C290.859 87.6106 287.846 86.9965 287.195 85.9273C286.567 84.8965 287.126 83.5646 287.963 83.1915C288.016 83.168 288.078 83.1931 288.105 83.2433L288.174 83.3739C288.22 83.4642 288.354 83.4508 288.381 83.3521C288.408 83.2601 288.533 83.24 288.584 83.322C288.783 83.6416 289.321 84.162 290.767 84.428C292.819 84.8062 294.176 85.6378 294.209 87.055C294.211 87.1454 294.308 87.1939 294.383 87.1471C294.535 87.055 294.776 87.0115 295.101 87.2843C295.665 87.7578 295.434 88.986 294.199 89.9983C294.14 90.0469 294.14 90.1372 294.204 90.179C294.428 90.3246 294.761 90.671 293.896 91.1345C293.011 91.608 292.487 91.5561 292.29 91.5059C292.236 91.4926 292.201 91.444 292.205 91.3888L292.281 90.1322C292.285 90.0669 292.235 90.0117 292.169 90.0117H291.726V90.0117Z" fill="url(#paint31_linear_199_17559)"/>
<path d="M291.674 90.2744C291.674 90.2744 292.129 88.5241 292.914 89.0144C293.698 89.5046 292.507 90.9755 291.876 91.0407L291.674 90.2744Z" fill="url(#paint32_linear_199_17559)"/>
<path d="M221.927 69.7901H210.855C210.008 69.7901 209.322 69.1041 209.322 68.2574V57.1553C209.322 56.3571 209.936 55.6911 210.731 55.6276L222.528 54.6721C223.456 54.5968 224.238 55.3615 224.183 56.2918L223.458 68.3494C223.408 69.1576 222.739 69.7901 221.927 69.7901Z" fill="#447604"/>
<path d="M212.433 67.6287C212.135 67.6287 211.845 67.5149 211.628 67.3091C211.394 67.0882 211.26 66.777 211.26 66.4557V59.3376C211.26 59.1368 211.422 58.9745 211.623 58.9745C211.824 58.9745 211.986 59.1368 211.986 59.3376V66.4557C211.986 66.5795 212.036 66.695 212.127 66.7803C212.217 66.8656 212.336 66.9075 212.458 66.9008L220.893 66.3988C221.127 66.3854 221.313 66.1896 221.313 65.9537V58.9645C221.313 58.8373 221.261 58.7202 221.166 58.6348C221.072 58.5495 220.948 58.5077 220.822 58.521L213.806 59.2154C213.574 59.2389 213.475 59.4062 213.443 59.4765C213.412 59.5468 213.353 59.7325 213.489 59.9216L216.164 63.6145C216.248 63.7299 216.378 63.7969 216.522 63.7985C216.524 63.7985 216.526 63.7985 216.526 63.7985C216.668 63.7985 216.797 63.7333 216.882 63.6195L219.83 59.6923C219.951 59.5317 220.178 59.4982 220.339 59.6204C220.5 59.7409 220.531 59.9684 220.411 60.1291L217.463 64.0562C217.237 64.3574 216.899 64.5331 216.515 64.5247C216.139 64.5214 215.796 64.3457 215.575 64.0395L212.9 60.3466C212.65 60.0019 212.605 59.5652 212.779 59.177C212.953 58.7888 213.31 58.5327 213.733 58.4909L220.749 57.7965C221.079 57.7647 221.406 57.8718 221.652 58.0944C221.897 58.3169 222.037 58.6331 222.037 58.9628V65.952C222.037 66.5711 221.554 67.0848 220.935 67.1233L212.5 67.6253C212.48 67.6287 212.456 67.6287 212.433 67.6287Z" fill="#EFF9EC"/>
</g>
<defs>
<linearGradient id="paint0_linear_199_17559" x1="81.793" y1="170.675" x2="74.6007" y2="177.582" gradientUnits="userSpaceOnUse">
<stop stop-color="#09005D"/>
<stop offset="1" stop-color="#1A0F91"/>
</linearGradient>
<linearGradient id="paint1_linear_199_17559" x1="79.6897" y1="171.783" x2="70.3244" y2="185.73" gradientUnits="userSpaceOnUse">
<stop stop-color="#09005D"/>
<stop offset="1" stop-color="#1A0F91"/>
</linearGradient>
<linearGradient id="paint2_linear_199_17559" x1="75.8816" y1="174.095" x2="75.9136" y2="174.095" gradientUnits="userSpaceOnUse">
<stop stop-color="#09005D"/>
<stop offset="1" stop-color="#1A0F91"/>
</linearGradient>
<linearGradient id="paint3_linear_199_17559" x1="76.1075" y1="172.833" x2="78.3549" y2="172.833" gradientUnits="userSpaceOnUse">
<stop stop-color="#09005D"/>
<stop offset="1" stop-color="#1A0F91"/>
</linearGradient>
<linearGradient id="paint4_linear_199_17559" x1="81.793" y1="184.849" x2="74.6007" y2="191.757" gradientUnits="userSpaceOnUse">
<stop stop-color="#09005D"/>
<stop offset="1" stop-color="#1A0F91"/>
</linearGradient>
<linearGradient id="paint5_linear_199_17559" x1="79.6897" y1="185.957" x2="70.3244" y2="199.904" gradientUnits="userSpaceOnUse">
<stop stop-color="#09005D"/>
<stop offset="1" stop-color="#1A0F91"/>
</linearGradient>
<linearGradient id="paint6_linear_199_17559" x1="75.8816" y1="188.27" x2="75.9136" y2="188.27" gradientUnits="userSpaceOnUse">
<stop stop-color="#09005D"/>
<stop offset="1" stop-color="#1A0F91"/>
</linearGradient>
<linearGradient id="paint7_linear_199_17559" x1="76.1075" y1="187.007" x2="78.3549" y2="187.007" gradientUnits="userSpaceOnUse">
<stop stop-color="#09005D"/>
<stop offset="1" stop-color="#1A0F91"/>
</linearGradient>
<linearGradient id="paint8_linear_199_17559" x1="81.793" y1="199.022" x2="74.6007" y2="205.929" gradientUnits="userSpaceOnUse">
<stop stop-color="#09005D"/>
<stop offset="1" stop-color="#1A0F91"/>
</linearGradient>
<linearGradient id="paint9_linear_199_17559" x1="79.6896" y1="200.129" x2="70.3244" y2="214.076" gradientUnits="userSpaceOnUse">
<stop stop-color="#09005D"/>
<stop offset="1" stop-color="#1A0F91"/>
</linearGradient>
<linearGradient id="paint10_linear_199_17559" x1="75.8816" y1="202.443" x2="75.9136" y2="202.443" gradientUnits="userSpaceOnUse">
<stop stop-color="#09005D"/>
<stop offset="1" stop-color="#1A0F91"/>
</linearGradient>
<linearGradient id="paint11_linear_199_17559" x1="76.1075" y1="201.18" x2="78.3549" y2="201.18" gradientUnits="userSpaceOnUse">
<stop stop-color="#09005D"/>
<stop offset="1" stop-color="#1A0F91"/>
</linearGradient>
<linearGradient id="paint12_linear_199_17559" x1="274.474" y1="207.728" x2="274.086" y2="209.924" gradientUnits="userSpaceOnUse">
<stop stop-color="#A737D5"/>
<stop offset="1" stop-color="#EF497A"/>
</linearGradient>
<linearGradient id="paint13_linear_199_17559" x1="296.351" y1="211.348" x2="295.668" y2="212.646" gradientUnits="userSpaceOnUse">
<stop stop-color="#A737D5"/>
<stop offset="1" stop-color="#EF497A"/>
</linearGradient>
<linearGradient id="paint14_linear_199_17559" x1="87.1379" y1="220.758" x2="89.6398" y2="220.758" gradientUnits="userSpaceOnUse">
<stop stop-color="#FF928E"/>
<stop offset="1" stop-color="#FEB3B1"/>
</linearGradient>
<linearGradient id="paint15_linear_199_17559" x1="78.1205" y1="220.629" x2="80.2807" y2="220.629" gradientUnits="userSpaceOnUse">
<stop stop-color="#FF928E"/>
<stop offset="1" stop-color="#FEB3B1"/>
</linearGradient>
<linearGradient id="paint16_linear_199_17559" x1="111.691" y1="151.133" x2="73.5136" y2="174.475" gradientUnits="userSpaceOnUse">
<stop stop-color="#FF928E"/>
<stop offset="1" stop-color="#FEB3B1"/>
</linearGradient>
<linearGradient id="paint17_linear_199_17559" x1="112.017" y1="141.912" x2="107.603" y2="154.525" gradientUnits="userSpaceOnUse">
<stop stop-color="#FF928E"/>
<stop offset="1" stop-color="#FEB3B1"/>
</linearGradient>
<linearGradient id="paint18_linear_199_17559" x1="109.421" y1="136.296" x2="110.174" y2="143.324" gradientUnits="userSpaceOnUse">
<stop stop-color="#FF928E"/>
<stop offset="1" stop-color="#FEB3B1"/>
</linearGradient>
<linearGradient id="paint19_linear_199_17559" x1="69.4628" y1="173.591" x2="85.6386" y2="173.591" gradientUnits="userSpaceOnUse">
<stop stop-color="#FF928E"/>
<stop offset="1" stop-color="#FEB3B1"/>
</linearGradient>
<linearGradient id="paint20_linear_199_17559" x1="91.8772" y1="159.58" x2="89.2" y2="165.771" gradientUnits="userSpaceOnUse">
<stop stop-color="#FF928E"/>
<stop offset="1" stop-color="#FEB3B1"/>
</linearGradient>
<linearGradient id="paint21_linear_199_17559" x1="85.9581" y1="152.692" x2="83.2808" y2="165.577" gradientUnits="userSpaceOnUse">
<stop stop-color="#FF928E"/>
<stop offset="1" stop-color="#FEB3B1"/>
</linearGradient>
<linearGradient id="paint22_linear_199_17559" x1="856.344" y1="285.042" x2="844.786" y2="283.023" gradientUnits="userSpaceOnUse">
<stop stop-color="#FF928E"/>
<stop offset="1" stop-color="#FEB3B1"/>
</linearGradient>
<linearGradient id="paint23_linear_199_17559" x1="856.098" y1="286.448" x2="844.54" y2="284.43" gradientUnits="userSpaceOnUse">
<stop stop-color="#FF928E"/>
<stop offset="1" stop-color="#FEB3B1"/>
</linearGradient>
<linearGradient id="paint24_linear_199_17559" x1="236.151" y1="59.5342" x2="241.293" y2="59.5342" gradientUnits="userSpaceOnUse">
<stop stop-color="#DAE3FE"/>
<stop offset="1" stop-color="#E9EFFD"/>
</linearGradient>
<linearGradient id="paint25_linear_199_17559" x1="302.254" y1="109.373" x2="311.885" y2="117.901" gradientUnits="userSpaceOnUse">
<stop stop-color="#FF928E"/>
<stop offset="1" stop-color="#FEB3B1"/>
</linearGradient>
<linearGradient id="paint26_linear_199_17559" x1="284.203" y1="110.18" x2="276.619" y2="110.18" gradientUnits="userSpaceOnUse">
<stop stop-color="#FF928E"/>
<stop offset="1" stop-color="#FEB3B1"/>
</linearGradient>
<linearGradient id="paint27_linear_199_17559" x1="291.575" y1="89.9129" x2="291.658" y2="104.076" gradientUnits="userSpaceOnUse">
<stop stop-color="#FF928E"/>
<stop offset="1" stop-color="#FEB3B1"/>
</linearGradient>
<linearGradient id="paint28_linear_199_17559" x1="298.452" y1="113.669" x2="308.082" y2="122.197" gradientUnits="userSpaceOnUse">
<stop stop-color="#FF928E"/>
<stop offset="1" stop-color="#FEB3B1"/>
</linearGradient>
<linearGradient id="paint29_linear_199_17559" x1="282.136" y1="102.283" x2="279.375" y2="105.546" gradientUnits="userSpaceOnUse">
<stop stop-color="#FF928E"/>
<stop offset="1" stop-color="#FEB3B1"/>
</linearGradient>
<linearGradient id="paint30_linear_199_17559" x1="596.526" y1="784.874" x2="593.096" y2="777.093" gradientUnits="userSpaceOnUse">
<stop stop-color="#FF928E"/>
<stop offset="1" stop-color="#FEB3B1"/>
</linearGradient>
<linearGradient id="paint31_linear_199_17559" x1="286.926" y1="87.3585" x2="295.395" y2="87.3585" gradientUnits="userSpaceOnUse">
<stop stop-color="#09005D"/>
<stop offset="1" stop-color="#1A0F91"/>
</linearGradient>
<linearGradient id="paint32_linear_199_17559" x1="598.412" y1="784.04" x2="594.982" y2="776.259" gradientUnits="userSpaceOnUse">
<stop stop-color="#FF928E"/>
<stop offset="1" stop-color="#FEB3B1"/>
</linearGradient>
<clipPath id="clip0_199_17559">
<rect width="380" height="229.406" fill="white" transform="translate(0 14.1104)"/>
</clipPath>
</defs>
</svg>
