<svg width="52" height="51" viewBox="0 0 52 51" fill="none" xmlns="http://www.w3.org/2000/svg">
<path fill-rule="evenodd" clip-rule="evenodd" d="M-4.3335 -4.30078H55.7141V55.3016H-4.3335V-4.30078Z" fill="white"/>
<path fill-rule="evenodd" clip-rule="evenodd" d="M-1.69037 50.6456H-1.86202C-1.86202 50.5606 -1.90501 50.4326 -1.90501 50.3896C-1.90501 50.3472 -1.90501 50.2622 -2.03398 50.2622H-2.29192V50.6456H-2.42089V49.7501H-2.03398C-1.86202 49.7501 -1.73336 49.7931 -1.73336 49.9632C-1.73336 50.0912 -1.77635 50.1342 -1.81903 50.1762C-1.77604 50.2192 -1.73336 50.2619 -1.73336 50.3472V50.5176C-1.73336 50.5606 -1.73336 50.5606 -1.69037 50.5606V50.6456ZM-1.86202 50.0062C-1.86202 49.8782 -1.948 49.8782 -1.99099 49.8782H-2.29192V50.1342H-2.03398C-1.948 50.1342 -1.86202 50.0912 -1.86202 50.0062ZM-1.1315 50.1765C-1.1315 49.6651 -1.56109 49.2381 -2.11996 49.2381C-2.63553 49.2381 -3.06543 49.6651 -3.06543 50.1765C-3.06543 50.731 -2.63553 51.158 -2.11996 51.158C-1.5614 51.1577 -1.1315 50.731 -1.1315 50.1765ZM-1.26047 50.1765C-1.26047 50.6459 -1.64707 50.987 -2.11996 50.987C-2.59285 50.987 -2.93646 50.6456 -2.93646 50.1765C-2.93646 49.7501 -2.59254 49.3661 -2.11996 49.3661C-1.64738 49.3661 -1.26047 49.7501 -1.26047 50.1765ZM51.6839 32.9439C51.6839 34.2237 50.8674 34.8202 49.406 34.8202H46.6132V33.5403H49.406C49.664 33.5403 49.8789 33.498 49.9652 33.4129C50.0509 33.3273 50.1368 33.1993 50.1368 33.0289C50.1368 32.8579 50.0512 32.6875 49.9652 32.6025C49.8789 32.5169 49.7073 32.4745 49.4493 32.4745C48.1176 32.4315 46.4413 32.5169 46.4413 30.6402C46.4413 29.7868 46.9998 28.8484 48.5038 28.8484H51.3829V30.1282H48.7185C48.4612 30.1282 48.2889 30.1282 48.1599 30.2132C48.031 30.3412 47.9453 30.4693 47.9453 30.6826C47.9453 30.896 48.0743 31.024 48.2459 31.1096C48.4182 31.152 48.5901 31.1947 48.8051 31.1947H49.5783C50.3948 31.1947 50.9107 31.365 51.2546 31.664C51.5119 31.9624 51.6839 32.3468 51.6839 32.9439ZM45.6245 31.664C45.2805 31.365 44.7647 31.1947 43.9482 31.1947H43.175C42.9603 31.1947 42.788 31.1517 42.6164 31.1096C42.4441 31.024 42.3158 30.896 42.3158 30.6826C42.3158 30.4693 42.3585 30.3412 42.5304 30.2132C42.6594 30.1282 42.831 30.1282 43.089 30.1282H45.7534V28.8484H42.8743C41.327 28.8484 40.8111 29.7868 40.8111 30.6402C40.8111 32.5165 42.4874 32.4315 43.8198 32.4745C44.0771 32.4745 44.2494 32.5169 44.3351 32.6025C44.4207 32.6875 44.5073 32.8579 44.5073 33.0289C44.5073 33.1993 44.421 33.3273 44.3351 33.4129C44.2061 33.498 44.0344 33.5403 43.7765 33.5403H40.9831V34.8202H43.7765C45.2372 34.8202 46.054 34.2234 46.054 32.9439C46.054 32.3468 45.8824 31.9624 45.6245 31.664ZM40.1236 33.5836H36.7293V32.3891H40.0379V31.1953H36.7293V30.0858H40.1236V28.849H35.3109V34.8205H40.1236V33.5836ZM33.7636 29.1477C33.2907 28.8917 32.7321 28.8487 32.0016 28.8487H28.6929V34.8202H30.1537V32.6449H31.701C32.2163 32.6449 32.5175 32.6878 32.7324 32.9009C32.9904 33.1993 32.9904 33.7113 32.9904 34.0954V34.8202H34.4081V33.6684C34.4081 33.1139 34.3654 32.8579 34.1935 32.5595C34.0645 32.3885 33.8072 32.1755 33.4633 32.0475C33.8496 31.9201 34.4947 31.408 34.4947 30.4693C34.4944 29.7871 34.2365 29.4031 33.7636 29.1477ZM25.5986 28.8487H21.0002L19.1523 30.8109L17.3903 28.8487H11.5889V34.8202H17.3047L19.1526 32.8579L20.9146 34.8202H23.708V32.8159H25.5129C26.759 32.8159 28.0057 32.4745 28.0057 30.8109C28.0054 29.19 26.716 28.8487 25.5986 28.8487ZM32.6032 31.323C32.3885 31.408 32.1736 31.408 31.9156 31.408L30.1537 31.451V30.0855H31.9156C32.1736 30.0855 32.4315 30.0855 32.6032 30.2135C32.7754 30.2992 32.9038 30.4696 32.9038 30.7256C32.9038 30.9816 32.7754 31.195 32.6032 31.323ZM25.5986 31.6214H23.7077V30.0855H25.5986C26.1145 30.0855 26.4581 30.2992 26.4581 30.8109C26.4581 31.323 26.1142 31.6214 25.5986 31.6214ZM20.0548 31.8344L22.2893 29.4887V34.3087L20.0548 31.8344ZM16.5738 33.5836H13.0069V32.3891H16.1869V31.1953H13.0069V30.0858H16.6168L18.2068 31.8347L16.5738 33.5836ZM47.687 24.5404H45.6245L42.917 20.0615V24.5404H39.9953L39.4361 23.2179H36.428L35.8695 24.5404H34.1932C33.5056 24.5404 32.6032 24.3697 32.0879 23.8577C31.615 23.3459 31.3571 22.6635 31.3571 21.597C31.3571 20.7013 31.486 19.8908 32.1303 19.2511C32.5599 18.7817 33.3337 18.5686 34.3218 18.5686H35.6969V19.8485H34.3218C33.8066 19.8485 33.5053 19.9338 33.2047 20.1898C32.9468 20.4459 32.8178 20.9149 32.8178 21.5547C32.8178 22.1944 32.9468 22.6638 33.2047 22.9625C33.4194 23.1756 33.8066 23.2609 34.1929 23.2609H34.8377L36.9003 18.5689H39.0492L41.4557 24.1994V18.5686H43.6905L46.226 22.7062V18.5686H47.6867V24.5404H47.687ZM30.6266 18.5686H29.1658V24.5404H30.6266V18.5686ZM27.5752 18.8247C27.1023 18.5686 26.5871 18.5686 25.8565 18.5686H22.5473V24.5404H23.9653V22.3648H25.5123C26.0282 22.3648 26.3721 22.4075 26.5868 22.6208C26.8447 22.9195 26.8014 23.4316 26.8014 23.7727V24.5404H28.2621V23.3459C28.2621 22.8342 28.2194 22.5782 28.0048 22.2795C27.8758 22.1088 27.6179 21.8954 27.3173 21.7677C27.7036 21.597 28.3487 21.128 28.3487 20.1895C28.349 19.5071 28.0478 19.123 27.5752 18.8247ZM21.5158 23.3036H18.1638V22.1091H21.4728V20.8723H18.1638V19.8058H21.5158V18.5689H16.7028V24.5407H21.5158V23.3036ZM15.6284 18.5686H13.2648L11.5029 22.6208L9.61194 18.5686H7.29142V24.1991L4.84192 18.5686H2.69336L0.114894 24.5404H1.66191L2.22047 23.2179H5.22852L5.78708 24.5404H8.70946V19.8485L10.815 24.5404H12.0611L14.167 19.8485V24.5404H15.628V18.5686H15.6284ZM38.9208 21.9384L37.932 19.5924L36.9439 21.9384H38.9208ZM26.4581 21.0003C26.2435 21.1283 26.0285 21.1283 25.7276 21.1283H23.9653V19.8061H25.7273C25.9852 19.8061 26.2855 19.8061 26.4578 19.8914C26.6294 20.0194 26.7157 20.1901 26.7157 20.4458C26.7157 20.7016 26.6297 20.9146 26.4581 21.0003ZM2.73604 21.9384L3.72449 19.5924L4.71295 21.9384H2.73604ZM51.3402 -0.157227H0.0715923V21.3413L1.83356 17.3745H5.57213L6.08801 18.3556V17.3745H10.4714L11.4599 19.5071L12.4054 17.3745H26.3721C27.0163 17.3745 27.5749 17.5025 28.0051 17.8435V17.3745H31.8297V17.8435C32.4739 17.5022 33.2904 17.3745 34.2362 17.3745H39.7797L40.2956 18.3556V17.3745H44.3781L44.9799 18.3556V17.3745H48.9761V25.7349H44.9369L44.1637 24.4554V25.7349H39.1355L38.5769 24.3701H37.3302L36.7716 25.7349H34.1505C33.119 25.7349 32.3452 25.4789 31.83 25.2232V25.7349H25.5986V23.8153C25.5986 23.5593 25.5556 23.5166 25.3837 23.5166H25.169V25.7346H13.1359V24.6681L12.7063 25.7346H10.1708L9.74122 24.7108V25.7346H4.88491L4.36934 24.3697H3.12295L2.56439 25.7346H0.0715923V50.9443H51.3402V35.6306C50.7817 35.8866 50.0079 36.0147 49.2344 36.0147H45.4955V35.5026C45.0659 35.8443 44.2921 36.0147 43.5619 36.0147H31.7867V34.0954C31.7867 33.8394 31.744 33.8394 31.5287 33.8394H31.3141V36.0147H27.4462V33.754C26.802 34.0524 26.0712 34.0524 25.4266 34.0524H24.9967V36.0147H20.2697L19.1526 34.7348L17.9065 36.0147H10.2995V27.6545H18.0349L19.1523 28.9337L20.3557 27.6545H25.5556C26.1569 27.6545 27.1456 27.7395 27.5752 28.1659V27.6545H32.2163C32.6891 27.6545 33.5919 27.7395 34.1932 28.1659V27.6545H41.198V28.1662C41.585 27.8249 42.3158 27.6548 42.96 27.6548H46.8705V28.1662C47.3008 27.8679 47.902 27.6548 48.6758 27.6548H51.3402V-0.157227Z" fill="#0077A6"/>
</svg>
