<svg width="69" height="44" viewBox="0 0 69 44" fill="none" xmlns="http://www.w3.org/2000/svg">
<g clip-path="url(#clip0_244_9140)">
<path d="M65.594 0.0132178L48.6034 0.00878906H48.5987C48.5854 0.00878906 48.5728 0.01112 48.56 0.01112C46.2259 0.0824464 43.3185 1.95138 42.7892 4.25574L34.7541 39.7471C34.2245 42.0732 35.6648 43.9656 37.9821 44.0004H55.8317C58.1133 43.8878 60.3311 42.0403 60.8513 39.762L68.8868 4.27042C69.4248 1.92108 67.95 0.0132178 65.594 0.0132178Z" fill="#01798A"/>
<path d="M34.7545 39.7464L42.7895 4.25505C43.3189 1.9507 46.2262 0.0817592 48.5603 0.0104328L41.8046 0.00623718L29.6333 0.00390625C27.2927 0.0516903 24.3478 1.93368 23.8184 4.25528L15.7811 39.7464C15.2496 42.0725 16.6922 43.965 19.0078 43.9997H37.9824C35.6651 43.965 34.2249 42.0725 34.7545 39.7464Z" fill="#024381"/>
<path d="M15.7813 39.7468L23.8187 4.25534C24.348 1.93374 27.2929 0.0517466 29.6336 0.00396258L14.0415 0C11.6878 0 8.67002 1.90367 8.13203 4.25534L0.0946745 39.7468C0.0458727 39.9633 0.018553 40.1756 0.00244141 40.3831V41.0414C0.159821 42.7369 1.45692 43.9716 3.32143 43.9998H19.0081C16.6924 43.9653 15.2499 42.0728 15.7813 39.7468Z" fill="#DD0228"/>
<path d="M29.9623 25.865H30.2575C30.5286 25.865 30.7109 25.7738 30.7966 25.5941L31.5635 24.4487H33.6166L33.1886 25.202H35.6504L35.338 26.3566H32.4085C32.0711 26.8633 31.6557 27.1013 31.1565 27.0731H29.6305L29.9623 25.865ZM29.6252 27.5192H35.0193L34.6753 28.7733H32.5059L32.175 29.9835H34.2859L33.9421 31.2375H31.8313L31.3409 33.026C31.2195 33.3251 31.3792 33.4594 31.8173 33.4291H33.5375L33.2188 34.5945H29.9159C29.2899 34.5945 29.075 34.237 29.2714 33.5202L29.8984 31.2378H28.5492L28.892 29.9837H30.2414L30.5722 28.7735H29.2824L29.6252 27.5192ZM38.2344 24.4398L38.1496 25.1741C38.1496 25.1741 39.167 24.4116 40.0909 24.4116H43.5054L42.1997 29.1304C42.0914 29.6697 41.6269 29.938 40.8069 29.938H36.9366L36.0301 33.2514C35.9776 33.4291 36.0516 33.52 36.2468 33.52H37.0085L36.7285 34.5486H34.7926C34.0495 34.5486 33.7404 34.3255 33.863 33.8773L36.4247 24.4398H38.2344ZM41.1261 25.7738H38.0782L37.7134 27.0472C37.7134 27.0472 38.2211 26.6815 39.0694 26.6684C39.9153 26.6551 40.8809 26.6684 40.8809 26.6684L41.1261 25.7738ZM40.0216 28.7276C40.2469 28.7581 40.3732 28.6693 40.3882 28.4591L40.5748 27.788H37.5224L37.2665 28.7276H40.0216ZM37.963 30.2522H39.7225L39.6896 31.0124H40.158C40.3947 31.0124 40.5122 30.9366 40.5122 30.7872L40.6509 30.2956H42.1133L41.9181 31.0124C41.7528 31.61 41.315 31.9219 40.6032 31.9524H39.666L39.6615 33.2514C39.6445 33.4596 39.8327 33.5656 40.221 33.5656H41.1018L40.8176 34.5945H38.7046C38.1122 34.6225 37.8218 34.3409 37.8281 33.7433L37.963 30.2522ZM16.6425 18.1533C16.4038 19.3207 15.8507 20.2171 14.9925 20.8537C14.1421 21.4796 13.0456 21.7935 11.7027 21.7935C10.439 21.7935 9.51272 21.473 8.92149 20.8299C8.51146 20.3731 8.30762 19.7927 8.30762 19.0911C8.30762 18.8009 8.34241 18.489 8.41176 18.1536L9.84242 11.2673H12.003L10.5922 18.0752C10.5518 18.2462 10.5322 18.4215 10.5338 18.5971C10.5315 18.9458 10.6184 19.2316 10.7939 19.4547C11.0499 19.7861 11.4653 19.9505 12.0436 19.9505C12.7084 19.9505 13.2562 19.7882 13.6814 19.461C14.1066 19.136 14.3843 18.675 14.509 18.075L15.9244 11.2666H18.0743L16.6425 18.1533ZM25.7168 15.4441H27.409L26.0834 21.59H24.3945L25.7168 15.4441ZM26.2494 13.205H27.9568L27.6378 14.6968H25.9307L26.2494 13.205ZM28.9069 21.1222C28.4642 20.6999 28.2407 20.1304 28.2386 19.4071C28.2386 19.2836 28.2461 19.143 28.2627 18.9892C28.279 18.8333 28.2996 18.6817 28.3288 18.541C28.5293 17.5426 28.9569 16.7501 29.6151 16.1653C30.2724 15.5784 31.0654 15.284 31.994 15.284C32.7543 15.284 33.3575 15.4963 33.799 15.9205C34.2403 16.3473 34.4614 16.9231 34.4614 17.6552C34.4614 17.7806 34.4519 17.9258 34.4355 18.0818C34.4166 18.2355 34.393 18.3886 34.365 18.541C34.1689 19.5241 33.7427 20.308 33.0843 20.8819C32.4258 21.46 31.6349 21.7478 30.713 21.7478C29.9495 21.7481 29.3485 21.5402 28.9069 21.1222ZM32.1318 19.9053C32.4302 19.5827 32.6436 19.0932 32.7739 18.4414C32.7935 18.3396 32.8108 18.2335 32.8216 18.1275C32.8323 18.0235 32.8367 17.9261 32.8367 17.8373C32.8367 17.4582 32.7401 17.1638 32.546 16.9559C32.3532 16.7459 32.0788 16.642 31.7241 16.642C31.2555 16.642 30.8735 16.8063 30.5743 17.1356C30.2727 17.465 30.0588 17.9629 29.9243 18.6256C29.9058 18.7274 29.8907 18.8293 29.8766 18.9288C29.8659 19.0307 29.8626 19.1258 29.8647 19.2125C29.8647 19.5894 29.9614 19.8796 30.1554 20.0852C30.3485 20.291 30.6217 20.3926 30.9809 20.3926C31.4518 20.3924 31.8334 20.2299 32.1318 19.9053Z" fill="white"/>
<path d="M48.5991 0.00893377L41.8047 0.00683594L48.5603 0.0112647C48.5729 0.0112647 48.5858 0.00893377 48.5991 0.00893377Z" fill="#E02F41"/>
<path d="M41.8045 0.00652659L29.7267 0C29.6963 0 29.6648 0.00209784 29.6333 0.00419567L41.8045 0.00652659Z" fill="#2E4F7D"/>
<path d="M45.4402 25.9171L45.8482 24.4836H47.9114L47.8224 25.0099C47.8224 25.0099 48.8765 24.4836 49.6358 24.4836H52.1868L51.7815 25.9171H51.3801L49.4558 32.6782H49.8572L49.4754 34.0208H49.074L48.907 34.6034H46.909L47.0757 34.0208H43.1342L43.5183 32.6782H43.9131L45.8393 25.9171H45.4402ZM47.6662 25.9171L47.1413 27.7469C47.1413 27.7469 48.0398 27.4026 48.8141 27.3052C48.985 26.6665 49.2085 25.9171 49.2085 25.9171H47.6662ZM46.8982 28.6047L46.3712 30.5214C46.3712 30.5214 47.3669 30.0319 48.0501 29.9909C48.2474 29.2501 48.4449 28.6049 48.4449 28.6049H46.8982V28.6047ZM47.2842 32.6782L47.6788 31.2878H46.1391L45.7419 32.6782H47.2842ZM52.2737 24.3948H54.2134L54.2958 25.1092C54.2827 25.291 54.3913 25.378 54.6213 25.378H54.9641L54.6173 26.5882H53.1918C52.6477 26.6162 52.3678 26.4085 52.3416 25.9603L52.2737 24.3948ZM51.7053 26.9915H57.9877L57.619 28.291H55.6188L55.2758 29.4991H57.2743L56.9031 30.7962H54.6776L54.1741 31.5566H55.2637L55.5151 33.0789C55.545 33.2304 55.6795 33.3041 55.9098 33.3041H56.2479L55.8925 34.5577H54.6949C54.0742 34.5882 53.7536 34.3803 53.7272 33.932L53.4386 32.5416L52.4474 34.0208C52.213 34.4388 51.8527 34.6337 51.367 34.6034H49.5382L49.8938 33.3493H50.4645C50.6989 33.3493 50.8939 33.2456 51.0695 33.0353L52.6211 30.7962H50.6209L50.9917 29.4991H53.1612L53.5061 28.291H51.3348L51.7053 26.9915ZM18.6324 15.4424H20.1585L19.9839 16.3303L20.2029 16.0769C20.6977 15.5485 21.2985 15.2865 22.0079 15.2865C22.65 15.2865 23.113 15.4727 23.404 15.8473C23.6903 16.2219 23.7685 16.7396 23.6328 17.4043L22.792 21.5926H21.2235L21.9827 17.7964C22.0609 17.4043 22.0392 17.112 21.9187 16.9235C21.7996 16.7351 21.5717 16.6421 21.2429 16.6421C20.8394 16.6421 20.4999 16.7675 20.2232 17.0167C19.9456 17.268 19.7623 17.6167 19.6722 18.0605L18.9726 21.5926H17.4009L18.6324 15.4424ZM36.1336 15.4424H37.6611L37.4876 16.3303L37.7041 16.0769C38.1994 15.5485 38.8023 15.2865 39.5095 15.2865C40.1517 15.2865 40.6154 15.4727 40.9042 15.8473C41.1889 16.2219 41.2708 16.7396 41.1321 17.4043L40.2946 21.5926H38.724L39.4836 17.7964C39.5616 17.4043 39.5397 17.112 39.4203 16.9235C39.2966 16.7351 39.0731 16.6421 38.7457 16.6421C38.342 16.6421 38.0039 16.7675 37.7239 17.0167C37.4463 17.268 37.2618 17.6167 37.1752 18.0605L36.4721 21.5926H34.9025L36.1336 15.4424ZM43.6834 11.6309H48.1176C48.9699 11.6309 49.6295 11.8236 50.0827 12.2024C50.5339 12.5861 50.7597 13.1359 50.7597 13.8527V13.8744C50.7597 14.0107 50.7508 14.1646 50.7377 14.3312C50.7151 14.5005 50.6862 14.6688 50.6511 14.8359C50.4556 15.7843 50.0024 16.5468 49.3019 17.1249C48.5986 17.7008 47.7659 17.991 46.8072 17.991H44.4292L43.6939 21.5923H41.6351L43.6834 11.6309ZM44.7916 16.2589H46.7635C47.2774 16.2589 47.6854 16.1396 47.9831 15.9037C48.2782 15.6655 48.4734 15.3016 48.5813 14.8079C48.5986 14.7168 48.6096 14.6345 48.6226 14.5587C48.6292 14.4874 48.6378 14.4156 48.6378 14.3466C48.6378 13.9935 48.5122 13.738 48.2602 13.5777C48.0088 13.415 47.6139 13.3373 47.0673 13.3373H45.3926L44.7916 16.2589ZM59.975 22.7816C59.324 24.1631 58.7038 24.9684 58.3396 25.343C57.9749 25.7136 57.2524 26.5754 55.5126 26.5104L55.6627 25.4561C57.1268 25.0055 57.9184 22.9762 58.3699 22.0776L57.8317 15.4596L58.9642 15.4445H59.9143L60.0166 19.5959L61.7973 15.4445H63.6004L59.975 22.7816ZM54.9337 15.9447L54.2176 16.4363C53.4692 15.8517 52.786 15.4899 51.4672 16.1007C49.6708 16.9321 48.1696 23.31 53.1159 21.2094L53.3978 21.5429L55.3438 21.5928L56.6217 15.7976L54.9337 15.9447ZM53.8269 19.1129C53.5145 20.0334 52.8163 20.6418 52.2695 20.4686C51.7228 20.2996 51.5274 19.4117 51.8445 18.4892C52.1569 17.5666 52.8598 16.9603 53.402 17.1335C53.9486 17.3025 54.1459 18.1903 53.8269 19.1129Z" fill="white"/>
</g>
<defs>
<clipPath id="clip0_244_9140">
<rect width="69" height="44" fill="white"/>
</clipPath>
</defs>
</svg>
