<svg width="119" height="29" viewBox="0 0 119 29" fill="none" xmlns="http://www.w3.org/2000/svg">
<g clip-path="url(#clip0_244_9166)">
<path fill-rule="evenodd" clip-rule="evenodd" d="M10.3837 6.82617H18.5153C22.8813 6.82617 24.5248 9.04947 24.2709 12.3158C23.8511 17.7083 20.6102 20.6917 16.3114 20.6917H14.141C13.5511 20.6917 13.1544 21.0844 12.9949 22.1486L12.0734 28.3349C12.0126 28.7361 11.8027 28.9684 11.4878 29H6.37877C5.8981 29 5.72808 28.6305 5.85402 27.8303L8.96897 7.998C9.09072 7.20412 9.52311 6.82617 10.3837 6.82617Z" fill="#009EE3"/>
<path fill-rule="evenodd" clip-rule="evenodd" d="M45.6874 6.45898C48.4308 6.45898 50.9623 7.95597 50.6159 11.6868C50.1961 16.1207 47.8347 18.5742 44.1089 18.5847H40.8534C40.3853 18.5847 40.1586 18.969 40.0368 19.7565L39.4071 23.783C39.3127 24.3911 39.002 24.6909 38.5444 24.6909H35.5155C35.0328 24.6909 34.8648 24.3805 34.9719 23.6859L37.4718 7.54846C37.5957 6.75458 37.8916 6.45898 38.4311 6.45898H45.6811H45.6874ZM40.7547 15.0988H43.2211C44.7638 15.0397 45.7882 13.965 45.891 12.0267C45.954 10.8296 45.1501 9.97234 43.8718 9.97868L41.5502 9.98924L40.7547 15.0988ZM58.8504 23.4557C59.1275 23.2023 59.4087 23.0714 59.3689 23.3839L59.2702 24.1314C59.2198 24.522 59.373 24.7289 59.7341 24.7289H62.425C62.8784 24.7289 63.0988 24.5452 63.2101 23.84L64.8683 13.3717C64.9523 12.846 64.8242 12.5884 64.4275 12.5884H61.4679C61.2013 12.5884 61.0712 12.7383 61.0019 13.1479L60.8927 13.7919C60.8361 14.1276 60.6828 14.1867 60.5401 13.8489C60.0384 12.6538 58.758 12.1175 56.9718 12.1597C52.822 12.2463 50.024 15.4155 49.7238 19.4778C49.4929 22.6196 51.7305 25.0878 54.6817 25.0878C56.8227 25.0878 57.7799 24.4544 58.8588 23.462L58.8504 23.4557ZM56.596 21.8447C54.8098 21.8447 53.565 20.4111 53.8232 18.6544C54.0814 16.8977 55.7522 15.4641 57.5385 15.4641C59.3248 15.4641 60.5695 16.8977 60.3113 18.6544C60.0531 20.4111 58.3844 21.8447 56.596 21.8447ZM70.1347 12.5546H67.406C66.8435 12.5546 66.6147 12.9769 66.7931 13.4963L70.1809 23.4747L66.8582 28.2232C66.579 28.6202 66.7952 28.9812 67.1877 28.9812H70.2544C70.4331 29.002 70.614 28.9707 70.7755 28.8909C70.9371 28.8112 71.0724 28.6864 71.1654 28.5315L81.5849 13.4984C81.9061 13.036 81.755 12.5504 81.2281 12.5504H78.3251C77.8277 12.5504 77.6283 12.7488 77.3428 13.1648L72.9978 19.499L71.0562 13.15C70.9429 12.7657 70.6595 12.5546 70.1368 12.5546H70.1347Z" fill="#113984"/>
<path fill-rule="evenodd" clip-rule="evenodd" d="M92.4241 6.45833C95.1675 6.45833 97.6989 7.95531 97.3526 11.6861C96.9328 16.1201 94.5714 18.5735 90.8456 18.5841H87.5921C87.124 18.5841 86.8974 18.9683 86.7756 19.7559L86.1459 23.7823C86.0514 24.3904 85.7408 24.6902 85.2832 24.6902H82.2543C81.7715 24.6902 81.6036 24.3798 81.7107 23.6852L84.2148 7.54358C84.3386 6.7497 84.6346 6.4541 85.174 6.4541H92.4241V6.45833ZM87.4914 15.0981H89.9577C91.5005 15.039 92.5248 13.9643 92.6277 12.0261C92.6907 10.8289 91.8867 9.97168 90.6084 9.97802L88.2869 9.98858L87.4914 15.0981ZM105.587 23.4551C105.864 23.2017 106.145 23.0708 106.106 23.3833L106.007 24.1307C105.957 24.5213 106.11 24.7282 106.471 24.7282H109.162C109.615 24.7282 109.836 24.5445 109.947 23.8393L111.605 13.371C111.689 12.8453 111.561 12.5877 111.164 12.5877H108.209C107.942 12.5877 107.812 12.7376 107.743 13.1472L107.634 13.7912C107.577 14.1269 107.424 14.186 107.281 13.8482C106.779 12.6532 105.499 12.1169 103.713 12.1591C99.5629 12.2457 96.7649 15.4149 96.4647 19.4772C96.2338 22.6189 98.4714 25.0872 101.423 25.0872C103.564 25.0872 104.521 24.4537 105.6 23.4614L105.587 23.4551ZM103.335 21.8441C101.549 21.8441 100.304 20.4104 100.562 18.6537C100.82 16.8971 102.491 15.4634 104.277 15.4634C106.064 15.4634 107.308 16.8971 107.05 18.6537C106.792 20.4104 105.121 21.8441 103.335 21.8441ZM115.746 24.7451H112.64C112.586 24.7475 112.532 24.7379 112.482 24.717C112.432 24.696 112.387 24.6643 112.351 24.6239C112.315 24.5836 112.288 24.5357 112.272 24.4836C112.256 24.4316 112.252 24.3767 112.26 24.3228L114.989 6.93339C115.015 6.81471 115.08 6.70839 115.174 6.63172C115.267 6.55505 115.384 6.51254 115.505 6.51111H118.612C118.666 6.50868 118.719 6.51828 118.769 6.53923C118.819 6.56018 118.864 6.59196 118.9 6.6323C118.937 6.67264 118.964 6.72055 118.979 6.7726C118.995 6.82464 118.999 6.87955 118.991 6.93339L116.263 24.3228C116.237 24.4423 116.173 24.5496 116.079 24.6271C115.985 24.7046 115.868 24.7477 115.746 24.7493V24.7451Z" fill="#009EE3"/>
<path fill-rule="evenodd" clip-rule="evenodd" d="M5.29807 0H13.4381C15.7302 0 18.4506 0.0738988 20.2683 1.68912C21.4837 2.76804 22.1218 4.4846 21.9748 6.33418C21.4753 12.586 17.7579 16.0888 12.7706 16.0888H8.75727C8.07298 16.0888 7.62169 16.5449 7.42858 17.7779L6.3077 24.9567C6.23424 25.4212 6.03483 25.6957 5.678 25.7294H0.655031C0.0987897 25.7294 -0.0985205 25.3072 0.0463122 24.3739L3.65663 1.36396C3.80147 0.439168 4.30733 0 5.29807 0Z" fill="#113984"/>
<path fill-rule="evenodd" clip-rule="evenodd" d="M7.5459 17.0497L8.96694 7.99816C9.09078 7.20428 9.52318 6.82422 10.3838 6.82422H18.5154C19.8609 6.82422 20.9503 7.03536 21.8025 7.42597C20.986 12.9916 17.4071 16.0827 12.7221 16.0827H8.71506C8.17771 16.0848 7.78309 16.3551 7.5459 17.0497Z" fill="#172C70"/>
</g>
<defs>
<clipPath id="clip0_244_9166">
<rect width="119" height="29" fill="white"/>
</clipPath>
</defs>
</svg>
