<svg width="61" height="48" viewBox="0 0 61 48" fill="none" xmlns="http://www.w3.org/2000/svg">
<g clip-path="url(#clip0_244_9132)">
<path d="M59.7981 47.3487V47.4721H59.9119C59.9332 47.4724 59.9543 47.467 59.9729 47.4563C59.9803 47.451 59.9863 47.4439 59.9903 47.4357C59.9942 47.4274 59.9961 47.4183 59.9957 47.4091C59.9961 47.4001 59.9942 47.3912 59.9902 47.3831C59.9862 47.3751 59.9802 47.3682 59.9729 47.3632C59.9545 47.352 59.9333 47.3465 59.9119 47.3474H59.7981V47.3487ZM59.9131 47.2614C59.9618 47.2583 60.0101 47.2725 60.0497 47.3015C60.0656 47.3146 60.0782 47.3313 60.0865 47.3503C60.0948 47.3693 60.0986 47.39 60.0976 47.4107C60.0983 47.4285 60.0953 47.4463 60.0887 47.4629C60.082 47.4794 60.072 47.4943 60.0592 47.5066C60.0287 47.5335 59.9903 47.5496 59.95 47.5526L60.1025 47.7284H59.9851L59.8448 47.5538H59.7993V47.7284H59.7011V47.2617H59.9146L59.9131 47.2614ZM59.8826 47.8894C59.9341 47.8899 59.9851 47.8794 60.0323 47.8586C60.0779 47.8388 60.1193 47.8104 60.1543 47.775C60.1895 47.7396 60.2175 47.6977 60.237 47.6516C60.277 47.5538 60.277 47.444 60.237 47.3462C60.2173 47.3002 60.1892 47.2584 60.1543 47.2228C60.1192 47.1874 60.0779 47.1591 60.0323 47.1392C59.9848 47.1195 59.9339 47.1097 59.8826 47.1102C59.8304 47.1097 59.7786 47.1196 59.7301 47.1392C59.6836 47.1587 59.6412 47.187 59.6053 47.2228C59.5514 47.2788 59.5149 47.3496 59.5004 47.4264C59.4859 47.5032 59.4941 47.5826 59.5239 47.6547C59.5425 47.701 59.5702 47.743 59.6053 47.7781C59.6412 47.8138 59.6836 47.8422 59.7301 47.8617C59.7783 47.8825 59.8302 47.893 59.8826 47.8925V47.8894ZM59.8826 46.9979C60.0166 46.9978 60.1454 47.051 60.241 47.146C60.2871 47.1916 60.3238 47.246 60.3489 47.3061C60.375 47.3678 60.3884 47.4341 60.3884 47.5012C60.3884 47.5683 60.375 47.6347 60.3489 47.6963C60.3232 47.7561 60.2865 47.8104 60.241 47.8564C60.1942 47.9018 60.1397 47.9384 60.0802 47.9644C60.0177 47.9913 59.9505 48.0049 59.8826 48.0045C59.8139 48.005 59.7458 47.9914 59.6825 47.9644C59.6223 47.939 59.5674 47.9024 59.5205 47.8564C59.475 47.8087 59.4388 47.7526 59.4141 47.6911C59.388 47.6294 59.3746 47.563 59.3746 47.496C59.3746 47.4289 59.388 47.3625 59.4141 47.3009C59.4393 47.2408 59.476 47.1864 59.5221 47.1408C59.5683 47.094 59.6234 47.0573 59.684 47.0328C59.7473 47.0058 59.8154 46.9922 59.8841 46.9927L59.8826 46.9979ZM13.181 45.1955C13.181 44.3055 13.7574 43.5744 14.6996 43.5744C15.5999 43.5744 16.2075 44.274 16.2075 45.1955C16.2075 46.1169 15.5999 46.8165 14.6996 46.8165C13.7574 46.8165 13.181 46.0854 13.181 45.1955ZM17.2338 45.1955V42.6628H16.1453V43.2798C15.8 42.8238 15.2763 42.5379 14.5642 42.5379C13.1612 42.5379 12.0601 43.6509 12.0601 45.1967C12.0601 46.7425 13.1606 47.8555 14.5642 47.8555C15.276 47.8555 15.8 47.5692 16.1453 47.1136V47.7284H17.2326V45.1955H17.2338ZM54.0144 45.1955C54.0144 44.3055 54.5908 43.5744 55.5333 43.5744C56.4346 43.5744 57.0412 44.274 57.0412 45.1955C57.0412 46.1169 56.4346 46.8165 55.5333 46.8165C54.5911 46.8165 54.0144 46.0854 54.0144 45.1955ZM58.0684 45.1955V40.6299H56.979V43.2798C56.6337 42.8238 56.11 42.5379 55.3979 42.5379C53.9949 42.5379 52.8938 43.6509 52.8938 45.1967C52.8938 46.7425 53.9943 47.8555 55.3979 47.8555C56.11 47.8555 56.6337 47.5692 56.979 47.1136V47.7284H58.0684V45.1955ZM30.7441 43.5222C31.4456 43.5222 31.8961 43.9671 32.0111 44.7503H29.4137C29.5299 44.0192 29.9688 43.5222 30.7444 43.5222H30.7441ZM30.7661 42.5351C29.299 42.5351 28.2727 43.6148 28.2727 45.1939C28.2727 46.8039 29.3402 47.8527 30.839 47.8527C31.5929 47.8527 32.2834 47.6624 32.891 47.1432L32.3576 46.3273C31.9379 46.6666 31.4035 46.8569 30.9012 46.8569C30.1997 46.8569 29.561 46.5284 29.4039 45.6168H33.121C33.1316 45.4799 33.1426 45.3417 33.1426 45.1936C33.1316 43.6151 32.1666 42.5348 30.7655 42.5348L30.7661 42.5351ZM43.9079 45.1936C43.9079 44.3036 44.4844 43.5725 45.4265 43.5725C46.3269 43.5725 46.9344 44.2722 46.9344 45.1936C46.9344 46.115 46.3269 46.8147 45.4265 46.8147C44.4844 46.8147 43.9076 46.0836 43.9076 45.1936H43.9079ZM47.9604 45.1936V42.6628H46.8725V43.2798C46.526 42.8238 46.0036 42.5379 45.2914 42.5379C43.8884 42.5379 42.7873 43.6509 42.7873 45.1967C42.7873 46.7425 43.8878 47.8555 45.2914 47.8555C46.0036 47.8555 46.526 47.5692 46.8725 47.1136V47.7284H47.9607V45.1955L47.9604 45.1936ZM37.7606 45.1936C37.7606 46.7295 38.8178 47.8524 40.4312 47.8524C41.1852 47.8524 41.6875 47.6828 42.2307 47.2487L41.7079 46.3587C41.2992 46.6558 40.8701 46.8147 40.3964 46.8147C39.5275 46.8039 38.8885 46.1684 38.8885 45.1936C38.8885 44.2188 39.5275 43.5836 40.3964 43.5725C40.8689 43.5725 41.298 43.7314 41.7079 44.0285L42.2307 43.1385C41.6866 42.7044 41.1843 42.5348 40.4312 42.5348C38.8178 42.5348 37.7606 43.6573 37.7606 45.1936ZM51.7937 42.5348C51.1657 42.5348 50.7567 42.8318 50.4739 43.2767V42.6628H49.3952V47.7256H50.4849V44.8876C50.4849 44.0497 50.8409 43.5842 51.5524 43.5842C51.7854 43.5808 52.0168 43.6241 52.2332 43.7116L52.5687 42.6739C52.3277 42.578 52.0136 42.5357 51.7931 42.5357L51.7937 42.5348ZM22.6156 43.0654C22.0919 42.7162 21.3702 42.5357 20.5742 42.5357C19.306 42.5357 18.4895 43.1505 18.4895 44.1565C18.4895 44.982 19.0974 45.4913 20.2167 45.6502L20.731 45.7242C21.3278 45.809 21.6097 45.9679 21.6097 46.2539C21.6097 46.6453 21.2132 46.8687 20.4687 46.8687C19.7147 46.8687 19.1706 46.625 18.8037 46.339L18.2922 47.1975C18.8891 47.6423 19.643 47.8546 20.4595 47.8546C21.9052 47.8546 22.743 47.166 22.743 46.202C22.743 45.3121 22.0836 44.8466 20.9942 44.6877L20.4812 44.6124C20.0099 44.5507 19.6323 44.4548 19.6323 44.1154C19.6323 43.7453 19.9883 43.5225 20.5855 43.5225C21.2244 43.5225 21.843 43.7662 22.1462 43.9566L22.6174 43.0666L22.6156 43.0654ZM36.6611 42.5366C36.0331 42.5366 35.6241 42.8337 35.3426 43.2785V42.6628H34.2638V47.7256H35.3524V44.8876C35.3524 44.0497 35.7083 43.5842 36.4199 43.5842C36.6529 43.5808 36.8842 43.6241 37.1006 43.7116L37.4361 42.6739C37.1952 42.578 36.881 42.5357 36.6605 42.5357L36.6611 42.5366ZM27.372 42.6628H25.592V41.1269H24.4916V42.6628H23.4763V43.6691H24.4916V45.9787C24.4916 47.1534 24.9424 47.853 26.2301 47.853C26.7026 47.853 27.2467 47.705 27.5919 47.4616L27.2775 46.5188C26.9527 46.7092 26.5967 46.8051 26.3137 46.8051C25.7696 46.8051 25.592 46.4658 25.592 45.9577V43.67H27.372V42.6628ZM11.0975 47.7269V44.5495C11.0975 43.3529 10.3436 42.5477 9.12815 42.5369C8.48918 42.5261 7.83007 42.7273 7.36861 43.4377C7.02335 42.8763 6.47923 42.5369 5.71429 42.5369C5.17962 42.5369 4.65716 42.6958 4.24815 43.2887V42.6628H3.15869V47.7256H4.25669V44.9184C4.25669 44.0396 4.73859 43.5725 5.48279 43.5725C6.20564 43.5725 6.57134 44.0491 6.57134 44.9073V47.725H7.67178V44.9178C7.67178 44.0389 8.17411 43.5719 8.89666 43.5719C9.63994 43.5719 9.99466 44.0485 9.99466 44.9067V47.7244L11.0975 47.7269Z" fill="#231F20"/>
<path d="M60.4188 30.8858V30.1455H60.2282L60.0077 30.6536L59.7884 30.1455H59.5972V30.8858H59.7326V30.3281L59.9388 30.8093H60.0791L60.2852 30.3269V30.8858H60.4194H60.4188ZM59.2095 30.8858V30.2723H59.4535V30.1474H58.8301V30.2723H59.0741V30.8858H59.2083H59.2095Z" fill="#F79410"/>
<path d="M38.7526 34.0607H22.2563V4.07617H38.7529L38.7526 34.0607Z" fill="#FF5F00"/>
<path d="M23.302 19.0695C23.302 12.9872 26.1178 7.56896 30.5024 4.07724C27.1835 1.43029 23.0784 -0.00629574 18.8517 2.07408e-05C8.43996 2.07408e-05 0 8.5376 0 19.0695C0 29.6014 8.43996 38.139 18.8517 38.139C23.0785 38.1454 27.1837 36.7088 30.5027 34.0618C26.1184 30.5707 23.302 25.1522 23.302 19.0695Z" fill="#EB001B"/>
<path d="M61.0077 19.0695C61.0077 29.6014 52.5677 38.139 42.1559 38.139C37.9287 38.1453 33.8231 36.7087 30.5034 34.0618C34.8893 30.5701 37.7051 25.1522 37.7051 19.0695C37.7051 12.9869 34.8893 7.56896 30.5034 4.07724C33.823 1.43037 37.9285 -0.00618503 42.1556 2.00173e-05C52.5674 2.00173e-05 61.0074 8.5376 61.0074 19.0695" fill="#F79E1B"/>
</g>
<defs>
<clipPath id="clip0_244_9132">
<rect width="61" height="48" fill="white"/>
</clipPath>
</defs>
</svg>
