<svg width="47" height="42" viewBox="0 0 47 42" fill="none" xmlns="http://www.w3.org/2000/svg">
<path d="M7.69678 0C9.08875 0 10.3542 0.340693 11.4931 1.02208C12.632 1.70347 13.5372 2.6136 14.2089 3.75249C14.8903 4.89138 15.231 6.15194 15.231 7.53418C15.231 8.92616 14.8903 10.1916 14.2089 11.3305C13.5372 12.4694 12.632 13.3795 11.4931 14.0609C10.3542 14.7325 9.08875 15.0684 7.69678 15.0684C6.83045 15.0684 6.00305 14.9321 5.21459 14.6595C4.43586 14.3772 3.72527 13.9879 3.08282 13.4914V20.9672H0.162598V7.47578C0.1918 6.0838 0.542227 4.82811 1.21388 3.70869C1.88553 2.57953 2.7908 1.67913 3.92969 1.00748C5.06858 0.335826 6.32427 0 7.69678 0ZM7.69678 12.1481C8.97195 12.1481 10.0573 11.7004 10.9528 10.8048C11.8581 9.89957 12.3107 8.80935 12.3107 7.53418C12.3107 6.26875 11.8581 5.1834 10.9528 4.27813C10.0573 3.37286 8.97195 2.92023 7.69678 2.92023C6.43135 2.92023 5.346 3.37286 4.44073 4.27813C3.53546 5.1834 3.08282 6.26875 3.08282 7.53418C3.08282 8.80935 3.53546 9.89957 4.44073 10.8048C5.346 11.7004 6.43135 12.1481 7.69678 12.1481Z" fill="#071B48"/>
<path d="M23.6234 0C24.9959 0 26.2516 0.335826 27.3905 1.00748C28.5294 1.67913 29.4347 2.57953 30.1063 3.70869C30.778 4.82811 31.1284 6.0838 31.1576 7.47578V15.0976H28.2374V13.4914C27.5949 13.9879 26.8795 14.3772 26.091 14.6595C25.3123 14.9321 24.4898 15.0684 23.6234 15.0684C22.2412 15.0684 20.9758 14.7325 19.8271 14.0609C18.6883 13.3795 17.7781 12.4694 17.0967 11.3305C16.4251 10.1916 16.0893 8.92616 16.0893 7.53418C16.0893 6.15194 16.4251 4.89138 17.0967 3.75249C17.7781 2.6136 18.6883 1.70347 19.8271 1.02208C20.9758 0.340693 22.2412 0 23.6234 0ZM23.6234 12.1481C24.8986 12.1481 25.984 11.7004 26.8795 10.8048C27.7848 9.89957 28.2374 8.80935 28.2374 7.53418C28.2374 6.26875 27.7848 5.1834 26.8795 4.27813C25.984 3.37286 24.8986 2.92023 23.6234 2.92023C22.3483 2.92023 21.2581 3.37286 20.3528 4.27813C19.4573 5.1834 19.0095 6.26875 19.0095 7.53418C19.0095 8.80935 19.4573 9.89957 20.3528 10.8048C21.2581 11.7004 22.3483 12.1481 23.6234 12.1481Z" fill="#071B48"/>
<path d="M46.957 0.146437V0.131836H44.0368V7.59301C44.0368 8.86818 43.5842 9.9584 42.6789 10.8637C41.7736 11.7592 40.6883 12.207 39.4229 12.207C38.1477 12.207 37.0575 11.7592 36.1522 10.8637C35.2567 9.9584 34.8089 8.86818 34.8089 7.59301V0.131836H31.8887V7.59301C31.8887 8.97525 32.2245 10.2407 32.8961 11.3893C33.5775 12.5282 34.4877 13.4383 35.6266 14.1197C36.7654 14.7914 38.0309 15.1272 39.4229 15.1272C40.2892 15.1272 41.1117 14.9909 41.8904 14.7184C42.6789 14.4361 43.3944 14.0467 44.0368 13.5503V20.934H46.957V13.5503V7.60761V0.146437Z" fill="#071B48"/>
<path d="M1.625 23.7275V28.9281L23.6463 39.3292L45.5046 28.9281V23.7275" stroke="#2F80ED" stroke-width="2.9253"/>
</svg>
