<svg width="57" height="43" viewBox="0 0 57 43" fill="none" xmlns="http://www.w3.org/2000/svg">
<g clip-path="url(#clip0_244_9156)">
<path d="M60.6403 36.2867C60.6403 41.7694 56.1716 46.2339 50.6837 46.2339H-3.48975V6.83683C-3.48975 1.35413 0.978972 -3.11035 6.46687 -3.11035H60.6403V36.2867Z" fill="white"/>
<path d="M43.0005 26.1824H47.1164C47.234 26.1824 47.5084 26.1432 47.626 26.1432C48.41 25.9866 49.0764 25.2817 49.0764 24.3026C49.0764 23.3627 48.41 22.6578 47.626 22.462C47.5084 22.4229 47.2732 22.4229 47.1164 22.4229H43.0005V26.1824Z" fill="url(#paint0_linear_244_9156)"/>
<path d="M46.6461 0.21875C42.7262 0.21875 39.5119 3.39088 39.5119 7.34626V14.7479H49.5861C49.8213 14.7479 50.0957 14.7479 50.2917 14.7871C52.5652 14.9045 54.2508 16.0794 54.2508 18.1158C54.2508 19.7215 53.114 21.0922 50.9972 21.3663V21.4446C53.31 21.6013 55.074 22.8936 55.074 24.8909C55.074 27.0448 53.114 28.4546 50.5269 28.4546H39.4727V42.9446H49.9389C53.8588 42.9446 57.0731 39.7725 57.0731 35.8171V0.21875H46.6461Z" fill="url(#paint1_linear_244_9156)"/>
<path d="M48.5668 18.5854C48.5668 17.6455 47.9004 17.019 47.1164 16.9015C47.038 16.9015 46.842 16.8623 46.7244 16.8623H43.0005V20.3086H46.7244C46.842 20.3086 47.0772 20.3086 47.1164 20.2694C47.9004 20.1519 48.5668 19.5253 48.5668 18.5854Z" fill="url(#paint2_linear_244_9156)"/>
<path d="M7.21156 0.21875C3.29163 0.21875 0.0772854 3.39088 0.0772854 7.34626V24.93C2.07645 25.9091 4.15401 26.5357 6.23157 26.5357C8.70113 26.5357 10.0339 25.0475 10.0339 23.0111V14.7087H16.149V22.9719C16.149 26.1832 14.1498 28.8071 7.36835 28.8071C3.25243 28.8071 0.0380859 27.9064 0.0380859 27.9064V42.9055H10.5043C14.4242 42.9055 17.6386 39.7333 17.6386 35.778V0.21875H7.21156Z" fill="url(#paint3_linear_244_9156)"/>
<path d="M26.9287 0.21875C23.0088 0.21875 19.7944 3.39088 19.7944 7.34626V16.6668C21.5976 15.1395 24.7335 14.1605 29.7903 14.3954C32.495 14.5129 35.3957 15.257 35.3957 15.257V18.2725C33.9454 17.5284 32.2206 16.8626 29.9862 16.706C26.1447 16.4319 23.832 18.3116 23.832 21.6013C23.832 24.93 26.1447 26.8098 29.9862 26.4965C32.2206 26.3399 33.9454 25.635 35.3957 24.93V27.9455C35.3957 27.9455 32.5342 28.6896 29.7903 28.8071C24.7335 29.0421 21.5976 28.063 19.7944 26.5357V42.9838H30.2606C34.1806 42.9838 37.3949 39.8116 37.3949 35.8563V0.21875H26.9287Z" fill="url(#paint4_linear_244_9156)"/>
</g>
<defs>
<linearGradient id="paint0_linear_244_9156" x1="39.5051" y1="24.3073" x2="57.1204" y2="24.3073" gradientUnits="userSpaceOnUse">
<stop stop-color="#007940"/>
<stop offset="0.229" stop-color="#00873F"/>
<stop offset="0.743" stop-color="#40A737"/>
<stop offset="1" stop-color="#5CB531"/>
</linearGradient>
<linearGradient id="paint1_linear_244_9156" x1="39.5048" y1="21.5645" x2="57.1213" y2="21.5645" gradientUnits="userSpaceOnUse">
<stop stop-color="#007940"/>
<stop offset="0.229" stop-color="#00873F"/>
<stop offset="0.743" stop-color="#40A737"/>
<stop offset="1" stop-color="#5CB531"/>
</linearGradient>
<linearGradient id="paint2_linear_244_9156" x1="39.5047" y1="18.5804" x2="57.1205" y2="18.5804" gradientUnits="userSpaceOnUse">
<stop stop-color="#007940"/>
<stop offset="0.229" stop-color="#00873F"/>
<stop offset="0.743" stop-color="#40A737"/>
<stop offset="1" stop-color="#5CB531"/>
</linearGradient>
<linearGradient id="paint3_linear_244_9156" x1="0.0690534" y1="21.5645" x2="17.9569" y2="21.5645" gradientUnits="userSpaceOnUse">
<stop stop-color="#1F286F"/>
<stop offset="0.475" stop-color="#004E94"/>
<stop offset="0.826" stop-color="#0066B1"/>
<stop offset="1" stop-color="#006FBC"/>
</linearGradient>
<linearGradient id="paint4_linear_244_9156" x1="19.6929" y1="21.5645" x2="37.0664" y2="21.5645" gradientUnits="userSpaceOnUse">
<stop stop-color="#6C2C2F"/>
<stop offset="0.173" stop-color="#882730"/>
<stop offset="0.573" stop-color="#BE1833"/>
<stop offset="0.859" stop-color="#DC0436"/>
<stop offset="1" stop-color="#E60039"/>
</linearGradient>
<clipPath id="clip0_244_9156">
<rect width="57" height="43" fill="white"/>
</clipPath>
</defs>
</svg>
