<svg width="104" height="74" viewBox="0 0 104 74" fill="none" xmlns="http://www.w3.org/2000/svg">
<path d="M1 18.5H103V68.5C103 70.7091 101.209 72.5 99 72.5H5C2.79086 72.5 1 70.7091 1 68.5V18.5Z" stroke="#2F80ED" stroke-width="2"/>
<path d="M0 5.5C0 2.73858 2.23858 0.5 5 0.5H99C101.761 0.5 104 2.73858 104 5.5V18.5H0V5.5Z" fill="#2F80ED"/>
<rect x="13" y="57.5" width="79" height="3" rx="1" fill="#AAAAAA"/>
<rect x="13" y="57.5" width="60" height="3" rx="1" fill="#6CC551"/>
<path d="M95.5303 8.03033C95.8232 7.73744 95.8232 7.26256 95.5303 6.96967C95.2374 6.67678 94.7626 6.67678 94.4697 6.96967L95.5303 8.03033ZM88.4697 12.9697C88.1768 13.2626 88.1768 13.7374 88.4697 14.0303C88.7626 14.3232 89.2374 14.3232 89.5303 14.0303L88.4697 12.9697ZM94.4697 6.96967L88.4697 12.9697L89.5303 14.0303L95.5303 8.03033L94.4697 6.96967Z" fill="#F5F8FF"/>
<path d="M94.4697 14.0303C94.7626 14.3232 95.2374 14.3232 95.5303 14.0303C95.8232 13.7374 95.8232 13.2626 95.5303 12.9697L94.4697 14.0303ZM89.5303 6.96967C89.2374 6.67678 88.7626 6.67678 88.4697 6.96967C88.1768 7.26256 88.1768 7.73744 88.4697 8.03033L89.5303 6.96967ZM95.5303 12.9697L89.5303 6.96967L88.4697 8.03033L94.4697 14.0303L95.5303 12.9697Z" fill="#F5F8FF"/>
<circle cx="8" cy="10.5" r="2" fill="#F5F8FF"/>
<circle cx="16" cy="10.5" r="2" fill="#F5F8FF"/>
<circle cx="24" cy="10.5" r="2" fill="#F5F8FF"/>
<circle cx="72.5" cy="59" r="3.5" fill="#6CC551"/>
<path d="M59.3802 39.9014C59.6521 40.0543 59.6521 40.4457 59.3802 40.5986L48.7451 46.5809C48.4118 46.7683 48 46.5275 48 46.1451L48 34.3549C48 33.9725 48.4118 33.7317 48.7451 33.9191L59.3802 39.9014Z" fill="#2F80ED"/>
</svg>
